# Blender v3.1.0 Alpha OBJ File: 'untitled.blend'
# www.blender.org
o new_mouth
v 18.914106 38.483055 3.908187
v 18.901293 37.131611 3.654269
v 17.790649 37.612377 2.351696
v 17.612005 39.292667 2.812272
v 18.592810 35.956921 3.856197
v 17.580877 36.089226 2.458424
v 16.477625 36.167282 1.033165
v 16.602001 38.085979 0.997876
v 16.293159 40.073872 1.592430
v 8.407912 31.411505 -4.663990
v 9.217480 29.911694 -6.694321
v 7.227346 30.081762 -8.189770
v 6.371908 31.554264 -5.835071
v 9.841817 28.156727 -8.148939
v 7.853164 28.060452 -9.825003
v 5.404019 28.301460 -11.437531
v 5.035944 30.549185 -9.603676
v 4.378644 31.979055 -6.943921
v 15.818811 47.630768 4.397023
v 17.663570 46.364693 5.019900
v 17.255434 43.344616 4.321639
v 15.576785 44.159557 3.445190
v 19.353380 44.875824 5.693665
v 18.845171 42.348804 5.216603
v 18.812325 41.122856 4.889779
v 17.343472 42.112347 3.913935
v 15.787177 43.024448 2.970989
v 22.785212 35.918247 7.942716
v 22.462446 35.320377 7.979391
v 21.692835 35.700001 7.141173
v 22.031900 36.456699 7.149024
v 22.143080 34.825329 8.113093
v 21.333809 35.088417 7.300879
v 20.460779 35.388554 6.305881
v 20.830173 36.127548 6.078506
v 21.129957 37.045063 6.117518
v 23.120438 34.942322 8.624968
v 22.828047 34.568565 8.745492
v 23.446171 35.396770 8.571616
v 24.000774 34.927914 9.057931
v 23.655876 34.596813 9.106194
v 23.369022 34.331367 9.213924
v 24.621649 34.307167 9.554974
v 24.255796 34.153198 9.608397
v 24.025358 34.334450 9.419658
v 24.385672 34.567577 9.373800
v 23.957306 34.037937 9.720387
v 23.732006 34.155502 9.524748
v 24.822817 33.971516 9.670364
v 24.838411 33.823483 9.585179
v 24.481981 33.837925 9.706398
v 24.470146 33.935501 9.763777
v 24.765802 33.684914 9.356841
v 24.401560 33.745029 9.512371
v 24.077732 33.777954 9.690288
v 24.172266 33.838863 9.861053
v 24.170946 33.902374 9.902061
v 27.817091 34.677193 10.259379
v 28.056973 33.792751 10.177757
v 26.784327 34.419041 9.926748
v 26.608788 34.934219 9.943185
v 28.135996 32.958477 9.961015
v 26.837959 33.936546 9.785493
v 25.912262 34.025364 9.654488
v 25.871695 34.355816 9.728050
v 25.738649 34.722317 9.692834
v 26.276670 35.505623 9.837068
v 27.395355 35.605549 10.205148
v 25.462328 35.163460 9.550220
v 24.987482 35.715202 9.242979
v 25.738886 36.186073 9.558594
v 26.758387 36.660965 9.963200
v 23.412807 37.176506 8.172531
v 23.888824 37.919106 8.470746
v 24.917765 37.016720 9.068131
v 24.266943 36.406620 8.752122
v 24.744238 39.194271 8.936204
v 25.862936 37.910324 9.518373
v 22.795389 38.889374 7.823970
v 23.507174 40.429470 8.205020
v 22.501623 38.012726 7.542560
v 21.428095 39.000893 6.766234
v 21.597355 40.015713 7.054346
v 22.210995 41.758888 7.358765
v 18.822203 39.877293 4.433483
v 17.450766 40.826035 3.384300
v 16.058786 41.736969 2.250648
v 22.293051 37.251911 7.305693
v 23.086821 36.548458 8.006610
v 21.321255 38.057087 6.415344
v 23.809458 35.890358 8.602091
v 24.426668 35.306034 9.089305
v 25.095474 34.503601 9.572910
v 24.847130 34.849167 9.405475
v 11.609716 28.464411 -6.580483
v 11.995477 27.011282 -7.400124
v 10.259012 26.487261 -9.006524
v 13.235679 28.905136 -5.170937
v 13.600755 27.593889 -5.944419
v 13.755679 26.222807 -6.315375
v 12.100712 25.679867 -7.753246
v 10.302428 25.222704 -9.326687
v 8.348670 26.024487 -10.660441
v 5.811579 25.960703 -12.148894
v 8.350977 24.806681 -10.843231
v 5.795005 24.767635 -12.025637
v 8.752460 45.751568 -1.004748
v 8.479286 46.798637 0.224572
v 10.648427 46.111855 0.700274
v 10.767784 45.327415 -0.274435
v 8.429612 50.626163 1.182690
v 10.252435 50.088573 1.891623
v 12.077336 49.396244 2.755954
v 12.453461 45.463657 1.602073
v 12.596925 44.771694 0.908236
v 13.425545 41.393261 -1.289339
v 11.555862 41.785465 -2.612621
v 11.241956 43.859852 -1.598126
v 13.095159 43.336208 -0.411299
v 9.472795 42.141418 -3.883877
v 9.138947 44.205288 -2.456333
v 11.701312 39.290806 -3.139749
v 9.547485 39.710987 -4.333988
v 13.651219 39.063011 -1.802179
v 13.514232 36.539928 -1.625298
v 11.403281 36.672340 -2.650195
v 9.203502 36.886040 -3.450406
v 7.881138 23.656958 -10.396923
v 5.479300 23.943525 -11.224589
v 9.960789 23.613813 -9.114521
v 9.279733 19.403185 -8.384711
v 7.032869 19.360153 -9.258747
v 4.829051 19.721558 -9.790374
v 0.009645 37.001724 -3.776452
v 0.012224 39.788208 -4.351702
v 2.270554 39.720058 -4.502368
v 2.257970 37.005890 -3.835914
v 0.015816 42.610584 -3.225163
v 2.174912 42.534630 -3.726559
v 4.561028 42.448437 -4.331903
v 4.652950 39.694088 -4.959214
v 4.522031 37.011414 -4.001045
v 0.067982 45.550564 -0.933211
v 2.281281 45.679390 -1.133793
v 2.190308 44.491577 -2.662847
v 0.028013 44.392857 -2.317097
v 4.539691 45.898167 -1.357468
v 4.509624 44.530479 -3.065324
v 0.126497 46.425377 -0.097588
v 2.311903 46.537704 -0.222179
v 0.481918 51.431984 0.571139
v 2.606220 51.286758 0.521715
v 4.658705 51.151436 0.530255
v 4.471372 46.815239 -0.287060
v -0.184085 20.975674 -9.347933
v -0.048329 25.555595 -11.400766
v 2.785852 24.798677 -11.418416
v 2.439096 20.466541 -9.750769
v -0.017677 26.409319 -12.571916
v 2.791382 25.745928 -12.571268
v 0.232864 29.645386 -12.875571
v 2.698582 29.128225 -12.542455
v 2.762153 27.079393 -13.057620
v 0.078424 27.672689 -13.206181
v 2.703942 31.293356 -10.663576
v 2.445566 32.619999 -7.726664
v 0.332332 31.799757 -10.995110
v 0.298700 33.080940 -8.017739
v 7.086115 42.403145 -4.383245
v 7.253723 39.881367 -4.931662
v 6.919158 37.081608 -3.972210
v 6.864841 44.425282 -2.947208
v 6.671219 45.950943 -1.326508
v 6.526829 46.978783 -0.134551
v 6.594010 50.970612 0.685187
v 20.287752 41.203575 6.153019
v 20.167702 40.071278 5.870176
v 20.844587 43.281734 6.498170
v 19.916077 36.629189 4.903957
v 19.545208 35.705811 5.156157
v 20.095078 37.726971 5.000961
v 15.243258 38.594276 -0.373913
v 15.135895 36.345737 -0.297335
v 14.946611 40.786629 0.190773
v 14.648588 42.595181 0.967298
v 14.224133 43.923473 1.979008
v 13.941205 44.883286 2.532966
v 13.944797 48.612495 3.607998
v 22.308712 33.501888 7.270978
v 22.967669 33.587841 8.134847
v 23.347002 33.455406 7.795462
v 22.725258 33.332447 6.846962
v 23.493895 33.671692 8.838331
v 23.846457 33.572811 8.572063
v 24.222071 33.424389 8.320508
v 23.734997 33.259563 7.482468
v 23.132711 33.079437 6.470772
v 24.140127 32.983437 7.195837
v 23.530670 32.733139 6.149795
v 24.635298 33.207653 8.075914
v 25.153410 32.845192 7.849742
v 24.624537 32.540955 6.943156
v 23.979076 32.197845 5.889501
v 25.858526 32.061543 7.650431
v 25.270967 31.587921 6.729328
v 26.852989 29.918522 7.464506
v 26.165810 29.235409 6.539575
v 25.353901 28.554157 5.527570
v 24.562000 31.069878 5.691010
v 20.592407 33.419895 5.103203
v 21.528326 33.461903 6.266425
v 21.991297 33.234673 5.746259
v 21.091646 33.126087 4.462273
v 22.423914 32.893215 5.304804
v 21.545340 32.666946 3.938951
v 22.815195 32.452766 4.956942
v 21.929766 32.103733 3.561088
v 23.220490 31.804354 4.701771
v 22.295950 31.323963 3.318865
v 13.565668 20.596464 -6.321028
v 13.732437 24.257111 -6.391899
v 15.359838 24.865145 -5.077575
v 15.357393 21.444281 -5.054276
v 15.287176 26.856770 -4.944849
v 16.776289 27.652664 -3.478549
v 16.944683 25.696016 -3.608662
v 17.118483 22.476875 -3.587890
v 15.097328 28.224546 -4.562276
v 14.757505 29.461178 -3.852613
v 16.214495 30.112295 -2.491057
v 16.549026 28.971624 -3.127410
v 12.725873 30.285017 -4.018229
v 14.297760 30.701504 -2.819600
v 12.122039 31.585770 -2.504295
v 13.756453 31.818527 -1.474495
v 15.269958 32.120903 -0.353682
v 15.779139 31.197577 -1.560657
v 20.639524 25.028561 -0.007728
v 18.932308 23.743670 -1.828624
v 18.557467 26.793615 -1.909485
v 20.125383 28.014198 -0.100424
v 18.275503 28.646774 -1.833692
v 19.759102 29.750374 -0.064417
v 17.998415 29.863878 -1.551112
v 19.444460 30.824856 0.157017
v 17.652828 30.876312 -1.005436
v 19.081713 31.690689 0.620405
v 17.218630 31.810181 -0.178382
v 18.633318 32.462471 1.353316
v 16.732649 32.530228 0.893641
v 18.145952 32.994934 2.298709
v 20.143476 38.944130 5.427597
v 20.424496 32.310440 2.337458
v 20.802956 31.601780 1.921427
v 21.142212 30.678083 1.701365
v 19.459391 33.299438 3.760679
v 19.966248 32.910755 2.964880
v 21.540150 29.063797 1.636994
v 22.094122 26.128769 1.651190
v 22.737919 29.854540 3.184877
v 23.333805 27.044947 3.110584
v 24.412901 27.836527 4.393557
v 23.729786 30.497049 4.524698
v 24.564150 33.560501 8.942921
v 24.194967 33.663807 9.141725
v 23.858784 33.727966 9.354876
v 25.792292 33.399593 9.113502
v 25.543404 33.119846 8.576712
v 24.987812 33.399654 8.747981
v 25.199978 33.583847 9.214362
v 27.840231 31.414808 9.060861
v 27.418650 30.648111 8.323321
v 26.318913 32.516613 8.446512
v 26.641218 32.987362 9.079206
v 25.900667 33.704163 9.461079
v 25.280348 33.791771 9.493326
v 25.274099 34.013523 9.624231
v 28.073568 32.178112 9.600073
v 26.803328 33.462925 9.514645
v 11.028337 29.980982 -5.269053
v 10.329487 31.419994 -3.529638
v 11.946032 23.815161 -7.739220
v 11.529463 19.850124 -7.462649
v -18.908661 38.483017 3.916165
v -17.615030 39.287930 2.810652
v -17.787247 37.608040 2.357641
v -18.888178 37.135040 3.671701
v -16.297291 40.064442 1.590659
v -16.606531 38.072479 0.992212
v -16.480158 36.151978 1.027680
v -17.576420 36.085335 2.464508
v -18.579988 35.964470 3.873060
v -8.412805 31.421549 -4.669570
v -6.422711 31.614161 -5.896595
v -7.251171 30.095804 -8.216597
v -9.202639 29.905758 -6.675864
v -4.449688 32.062038 -7.032822
v -5.099273 30.588972 -9.680160
v -5.433318 28.302271 -11.464375
v -7.860356 28.056313 -9.827618
v -9.832562 28.167877 -8.137407
v -15.819719 47.636196 4.398103
v -15.581507 44.160374 3.443415
v -17.252821 43.347603 4.325451
v -17.660679 46.368458 5.023463
v -15.790836 43.022533 2.973118
v -17.341686 42.112041 3.916353
v -18.804327 41.121338 4.899331
v -18.839981 42.350838 5.223864
v -19.349430 44.878429 5.699890
v -22.785675 35.919487 7.943105
v -22.032694 36.457443 7.149675
v -21.692692 35.702267 7.142416
v -22.462273 35.322807 7.979863
v -21.129126 37.045784 6.119756
v -20.826845 36.130249 6.083210
v -20.458961 35.392361 6.309252
v -21.333181 35.091175 7.302730
v -22.143171 34.827812 8.113871
v -22.828930 34.570045 8.746164
v -23.120533 34.943981 8.625201
v -23.369780 34.332226 9.215209
v -23.656103 34.597260 9.107203
v -24.001129 34.928131 9.058702
v -23.446405 35.398182 8.571835
v -24.823275 33.973064 9.670910
v -24.758261 34.122505 9.655589
v -24.398613 34.031898 9.726583
v -24.470615 33.937149 9.764706
v -24.622242 34.308758 9.555648
v -24.256290 34.154568 9.609840
v -23.957819 34.039162 9.722611
v -24.100628 33.961926 9.851079
v -24.171436 33.903671 9.903360
v -24.482441 33.839527 9.707671
v -24.838848 33.825001 9.585773
v -24.172741 33.840580 9.862943
v -24.078192 33.779629 9.692763
v -24.401979 33.746635 9.513990
v -24.766203 33.686443 9.357518
v -27.817699 34.679405 10.259999
v -26.609371 34.935997 9.943750
v -26.784868 34.420620 9.927291
v -28.057465 33.794933 10.178330
v -25.739313 34.724133 9.693351
v -25.872198 34.357346 9.728563
v -25.912743 34.027023 9.655001
v -26.838503 33.938217 9.786074
v -28.136557 32.960857 9.961664
v -23.413267 37.177837 8.173193
v -24.267534 36.407379 8.752892
v -24.918442 37.017673 9.069030
v -23.889534 37.920696 8.471521
v -24.987848 35.715405 9.243578
v -25.740444 36.187645 9.559469
v -26.759411 36.663471 9.963859
v -25.864195 37.912403 9.519490
v -24.744957 39.196186 8.937270
v -23.508144 40.431290 8.207180
v -22.795542 38.890884 7.825199
v -22.211353 41.760799 7.362225
v -21.596764 40.016060 7.056909
v -21.426600 39.002243 6.769045
v -22.500849 38.015572 7.544158
v -17.451813 40.823536 3.385564
v -18.814079 39.876602 4.443853
v -16.060785 41.733170 2.252650
v -23.087568 36.549042 8.007041
v -22.292877 37.253765 7.306796
v -21.319147 38.058334 6.418910
v -24.427135 35.305855 9.090088
v -23.809877 35.891624 8.602458
v -25.274540 34.015072 9.624717
v -25.224602 34.240452 9.646645
v -25.096174 34.505310 9.573368
v -10.261670 26.492720 -9.008506
v -12.002644 27.044611 -7.410523
v -11.597318 28.478415 -6.567553
v -10.293332 25.212206 -9.315049
v -12.117399 25.703737 -7.772650
v -13.768650 26.245396 -6.331103
v -13.601814 27.614706 -5.947448
v -13.226382 28.916306 -5.161175
v -5.789106 25.937553 -12.121925
v -8.341224 26.012918 -10.649913
v -5.750843 24.754169 -11.977344
v -8.323950 24.783934 -10.811640
v -8.766327 45.754517 -1.062637
v -10.770576 45.332809 -0.291900
v -10.652420 46.114296 0.683832
v -8.496123 46.805878 0.162299
v -12.597629 44.777634 0.915106
v -12.458594 45.471874 1.597422
v -12.073490 49.403435 2.757336
v -10.259105 50.088242 1.869765
v -8.464489 50.629627 1.097589
v -13.425285 41.386204 -1.295141
v -13.097214 43.338745 -0.417102
v -11.243261 43.856464 -1.616840
v -11.553550 41.777184 -2.623841
v -9.142120 44.200108 -2.488561
v -9.469441 42.134853 -3.900384
v -9.540956 39.707420 -4.337705
v -11.696265 39.280113 -3.142213
v -9.194568 36.890686 -3.440585
v -11.395013 36.663712 -2.640726
v -13.505574 36.511658 -1.623855
v -13.650795 39.046246 -1.809212
v -5.428705 23.955723 -11.172508
v -7.826138 23.642828 -10.337192
v -4.742312 19.764143 -9.703143
v -6.910350 19.389074 -9.132325
v -9.171964 19.410458 -8.271456
v -9.924113 23.598612 -9.073935
v -2.239363 37.009598 -3.831357
v -2.249477 39.720455 -4.499837
v -4.505660 37.016487 -3.990728
v -4.634952 39.692177 -4.957295
v -4.545085 42.446033 -4.338535
v -2.150038 42.534000 -3.723670
v -2.160820 44.491306 -2.671162
v -2.264269 45.687344 -1.166292
v -4.498892 44.529537 -3.087010
v -4.545416 45.904873 -1.395802
v -2.311685 46.553055 -0.261132
v -4.482236 46.827320 -0.320099
v -4.687172 51.161781 0.461991
v -2.627261 51.308102 0.431649
v -2.409250 20.494770 -9.722216
v -2.762070 24.832558 -11.395859
v -2.778284 25.766172 -12.559834
v -2.766370 27.096455 -13.065630
v -2.731563 29.150229 -12.571683
v -2.499733 32.682629 -7.792683
v -2.761209 31.333534 -10.722568
v -7.241961 39.880264 -4.931494
v -7.077936 42.398678 -4.395944
v -6.905664 37.088997 -3.960788
v -6.688939 45.958607 -1.393932
v -6.865126 44.422340 -2.980409
v -6.626200 50.974174 0.616118
v -6.546990 46.996910 -0.204070
v -20.163605 40.070114 5.875635
v -20.283451 41.205105 6.159591
v -20.842056 43.283989 6.504316
v -19.541967 35.710331 5.161435
v -19.906889 36.633377 4.915131
v -20.089619 37.728397 5.008222
v -15.138755 36.325455 -0.305077
v -15.247338 38.578518 -0.381548
v -14.949122 40.778538 0.187882
v -14.224843 43.927578 1.988721
v -14.650110 42.594791 0.967287
v -13.945589 44.889359 2.533461
v -13.944360 48.619633 3.609770
v -22.308983 33.503517 7.271814
v -22.725693 33.334995 6.848561
v -23.347410 33.457355 7.796698
v -22.967890 33.589172 8.135387
v -23.133057 33.083164 6.473032
v -23.735380 33.262539 7.484235
v -24.222511 33.426685 8.321464
v -23.846912 33.574600 8.572976
v -23.494116 33.673164 8.839002
v -23.530884 32.737942 6.152407
v -24.140436 32.986614 7.197710
v -23.979208 32.203613 5.892280
v -24.624859 32.544231 6.945216
v -25.153868 32.847836 7.850795
v -24.635729 33.210663 8.076790
v -25.271238 31.592270 6.731464
v -25.859043 32.063183 7.651495
v -24.562307 31.076448 5.694037
v -25.354397 28.560789 5.530333
v -26.166122 29.239199 6.541392
v -26.853176 29.921148 7.465562
v -20.592026 33.424469 5.104459
v -21.090956 33.132030 4.464161
v -21.991222 33.238750 5.747620
v -21.528210 33.464565 6.267312
v -21.544434 32.673496 3.941194
v -22.423586 32.899109 5.306629
v -21.928707 32.110943 3.563668
v -22.814785 32.460052 4.959141
v -22.294765 31.331709 3.321405
v -23.220085 31.812162 4.704185
v -13.562290 20.600513 -6.317442
v -15.386483 21.459822 -5.085665
v -15.369081 24.877840 -5.087364
v -13.734547 24.259830 -6.393877
v -17.143785 22.496157 -3.615019
v -16.952520 25.710140 -3.617740
v -16.777882 27.664688 -3.480758
v -15.291630 26.869986 -4.949601
v -15.095755 28.238913 -4.561372
v -16.545458 28.984386 -3.125096
v -16.207687 30.121407 -2.484119
v -14.750463 29.471340 -3.844709
v -14.287072 30.705568 -2.807594
v -12.717014 30.286617 -4.007438
v -15.768811 31.203016 -1.550048
v -15.261640 32.121243 -0.344079
v -13.749812 31.817924 -1.465999
v -12.118840 31.585842 -2.499483
v -20.642389 25.042004 -0.011306
v -20.125017 28.025890 -0.101035
v -18.560612 26.804552 -1.913383
v -18.940735 23.759174 -1.837893
v -19.755352 29.760893 -0.061696
v -18.273817 28.655674 -1.832489
v -19.439024 30.833473 0.161394
v -17.994116 29.872166 -1.547435
v -19.075264 31.697001 0.625777
v -17.647043 30.882765 -0.999905
v -18.626572 32.466656 1.359301
v -17.211714 31.814243 -0.171520
v -18.140734 32.996552 2.303664
v -16.727488 32.531151 0.899230
v -20.138037 38.944408 5.434735
v -20.799776 31.608660 1.925315
v -20.421059 32.315590 2.340927
v -21.139475 30.685459 1.704468
v -19.962893 32.915413 2.968731
v -19.457104 33.301987 3.762984
v -22.095140 26.140564 1.650134
v -21.538622 29.071337 1.638317
v -23.333908 27.055599 3.111372
v -22.736851 29.862471 3.186699
v -23.729540 30.506479 4.527556
v -24.412884 27.845882 4.395654
v -24.195473 33.665520 9.143116
v -24.564524 33.562218 8.943520
v -23.859198 33.729626 9.356659
v -25.792778 33.401436 9.114082
v -25.200441 33.585472 9.214935
v -24.988235 33.401711 8.748495
v -25.543882 33.122417 8.577250
v -27.840967 31.417788 9.061969
v -26.641783 32.989700 9.080055
v -26.319595 32.518673 8.447344
v -27.419277 30.650648 8.324368
v -25.280811 33.793320 9.493801
v -25.901169 33.705826 9.461599
v -26.803923 33.464859 9.515381
v -28.074255 32.180943 9.600986
v -11.014652 29.978434 -5.252793
v -10.325896 31.419348 -3.524831
v -11.482633 19.848034 -7.412719
v -11.937362 23.811657 -7.729342
v -26.277443 35.507278 9.837610
v -25.462957 35.165009 9.550722
v -27.396290 35.608124 10.205790
v -24.847719 34.850101 9.406074
v -24.386181 34.568439 9.374599
v -24.025742 34.335461 9.420916
v -23.732586 34.156731 9.526474
v 24.757797 34.121082 9.654922
v 25.224121 34.238976 9.646176
v 24.398146 34.030571 9.725308
v 24.100088 33.960567 9.849206
v 14.659883 34.044830 3.345911
v 15.698093 34.787556 1.965309
v 16.920952 34.983677 3.218630
v 16.055700 34.251541 4.304777
v 18.010477 35.075344 4.496731
v 17.314129 34.393864 5.320446
v 19.599461 34.352840 7.127704
v 18.495493 34.408089 6.269176
v 19.045387 34.992413 5.668472
v 20.040276 34.819851 6.696809
v 21.538628 34.177158 8.537718
v 20.621092 34.270138 7.884547
v 20.983421 34.634167 7.578960
v 21.844532 34.460396 8.318143
v 22.867044 34.003536 9.519945
v 22.298399 34.087463 9.085762
v 22.567764 34.296417 8.913292
v 23.120531 34.143887 9.363900
v 23.690884 33.956165 9.878048
v 23.477354 34.031170 9.673637
v 23.431873 33.894611 10.052815
v 23.225367 33.939224 9.834042
v 23.601904 33.841976 10.277090
v 23.551662 33.863586 10.203043
v 23.824078 33.906513 10.017955
v 23.886213 33.870403 10.082356
v 23.877020 33.832161 10.053212
v 23.770926 33.795559 9.899108
v 23.461124 33.808880 10.112123
v 23.579906 33.824280 10.254838
v 23.539835 33.768032 9.591506
v 23.155045 33.735558 9.123511
v 22.800579 33.782978 9.403190
v 23.212030 33.798496 9.826015
v 21.442995 33.697498 8.196096
v 22.203239 33.742691 8.853702
v 22.595224 33.672451 8.496791
v 21.888252 33.604546 7.731555
v 19.477877 33.631989 6.608824
v 20.531048 33.675339 7.444501
v 21.048683 33.587116 6.845580
v 20.061813 33.552376 5.834194
v 18.915356 33.461094 4.680077
v 17.632362 33.247044 3.400844
v 17.022057 33.405148 4.652182
v 18.296219 33.549057 5.680408
v 16.259115 32.898052 2.124718
v 14.798675 32.609676 1.013127
v 14.245336 33.015236 2.644874
v 15.690817 33.195606 3.577900
v 13.237067 32.454510 0.078226
v 11.489352 32.372982 -0.699509
v 10.729851 33.001301 1.472643
v 12.631512 32.962223 1.934743
v 9.519613 32.408085 -1.412882
v 7.413203 32.451111 -2.232239
v 6.113592 32.888500 0.649219
v 8.534725 33.103886 1.109942
v 5.303054 32.454445 -3.179965
v 3.379692 32.600750 -3.993773
v 2.203554 32.842674 -0.855938
v 3.918587 32.823154 -0.122010
v -0.113803 33.161377 -4.563263
v 1.735590 32.937416 -4.452440
v 0.104187 32.813065 -1.485699
v 1.042475 32.825733 -1.349604
v -1.775347 32.978634 -4.482559
v -3.428248 32.675995 -4.052695
v -2.235572 32.893612 -0.893946
v -1.014117 32.862019 -1.368295
v -7.427989 32.484150 -2.250175
v -5.344464 32.515011 -3.233302
v -6.134371 32.989563 0.628557
v -3.950770 32.870140 -0.158396
v -11.488364 32.373711 -0.698048
v -9.525615 32.419006 -1.419881
v -10.733909 33.008884 1.467731
v -8.545156 33.135319 1.097418
v -14.795926 32.609791 1.016421
v -13.238770 32.457031 0.076611
v -14.244741 33.015831 2.645718
v -12.633356 32.964577 1.932672
v -17.630405 33.247738 3.403551
v -16.258778 32.899357 2.125664
v -17.020906 33.405521 4.654275
v -15.690052 33.196175 3.579123
v -20.062132 33.554768 5.835900
v -18.914558 33.462448 4.681686
v -19.477972 33.633343 6.610665
v -18.295681 33.549866 5.682494
v -21.443331 33.699017 8.197001
v -20.531239 33.676792 7.446033
v -21.048862 33.588741 6.846691
v -21.888519 33.605942 7.732294
v -22.800966 33.784622 9.404227
v -22.203588 33.744278 8.854317
v -22.595530 33.674000 8.497303
v -23.154993 33.737049 9.124113
v -23.771393 33.797348 9.901917
v -23.540037 33.769722 9.593352
v -23.461510 33.810806 10.114813
v -23.212423 33.800274 9.828053
v -23.886738 33.872108 10.083855
v -23.877367 33.833954 10.055211
v -23.602236 33.844105 10.278471
v -23.580286 33.826221 10.256932
v -23.432253 33.896252 10.055416
v -23.552029 33.865372 10.205078
v -23.824488 33.908089 10.019949
v -23.691137 33.957584 9.880549
v -22.867390 34.004955 9.520985
v -23.225769 33.940735 9.836000
v -23.477741 34.032436 9.675582
v -23.121073 34.145065 9.365052
v -21.539047 34.178307 8.538499
v -22.298719 34.088722 9.086413
v -22.568300 34.297684 8.913707
v -21.845179 34.461506 8.318248
v -19.601374 34.352093 7.126946
v -20.622141 34.270554 7.884945
v -20.984852 34.634701 7.578584
v -20.042976 34.819424 6.694911
v -17.333296 34.378666 5.296689
v -18.503096 34.402187 6.260574
v -19.049904 34.990139 5.663134
v -18.014793 35.073452 4.489347
v -14.671040 34.028805 3.329052
v -16.069651 34.235035 4.284448
v -16.921963 34.973694 3.213199
v -15.701688 34.772861 1.956618
v -14.216799 34.668770 0.873296
v -12.431423 34.626720 -0.043993
v -11.174592 34.059475 2.136986
v -13.033276 33.975101 2.617261
v -7.098826 34.309692 1.532166
v -9.107256 34.205379 1.855127
v -10.358317 34.821220 -0.696109
v -8.251318 34.978973 -1.290823
v -6.186653 34.929100 -1.913709
v -4.065170 34.964787 -2.074859
v -3.885751 34.288124 0.633469
v -5.465336 34.325275 1.025104
v 0.006360 35.070095 -1.815981
v -2.002973 35.061657 -1.895589
v -0.004163 34.297600 0.568023
v -1.949984 34.270077 0.539547
v 2.018387 35.053379 -1.903594
v 4.081498 34.949390 -2.095755
v 3.905752 34.257500 0.610039
v 1.960587 34.253853 0.532383
v 8.261856 34.950558 -1.321445
v 6.202312 34.907036 -1.943147
v 7.122112 34.240280 1.461477
v 5.488960 34.276291 0.978265
v 11.170183 34.034374 2.114522
v 9.114070 34.153019 1.804137
v 10.364264 34.809196 -0.721947
v 12.436737 34.637238 -0.056780
v 14.203698 34.683849 0.888278
v 13.020733 33.978798 2.624255
vt 0.803294 0.206299
vt 0.805773 0.225980
vt 0.778914 0.226873
vt 0.775481 0.203478
vt 0.808833 0.243221
vt 0.782687 0.247416
vt 0.754801 0.252303
vt 0.750542 0.227506
vt 0.746188 0.199529
vt 0.644417 0.444686
vt 0.657410 0.487050
vt 0.618384 0.501649
vt 0.605128 0.458112
vt 0.666556 0.522110
vt 0.627361 0.537831
vt 0.585783 0.547381
vt 0.577708 0.511268
vt 0.565937 0.468200
vt 0.743306 -0.012690
vt 0.773704 0.001981
vt 0.771905 0.136421
vt 0.741536 0.126864
vt 0.803160 0.018753
vt 0.801283 0.146344
vt 0.800261 0.166009
vt 0.771156 0.157858
vt 0.740951 0.149179
vt 0.892069 0.210536
vt 0.890944 0.220593
vt 0.873407 0.222002
vt 0.873485 0.210127
vt 0.890878 0.229479
vt 0.874278 0.232591
vt 0.854857 0.236168
vt 0.853158 0.223721
vt 0.852272 0.209728
vt 0.905366 0.219796
vt 0.904271 0.226969
vt 0.907774 0.211716
vt 0.920181 0.214115
vt 0.916568 0.220042
vt 0.914231 0.225325
vt 0.933208 0.221224
vt 0.928561 0.224229
vt 0.924082 0.221758
vt 0.928385 0.217650
vt 0.924986 0.226456
vt 0.920845 0.225188
vt 0.937329 0.226361
vt 0.938360 0.229142
vt 0.933097 0.229737
vt 0.932313 0.228021
vt 0.938682 0.233913
vt 0.933356 0.233514
vt 0.928914 0.233456
vt 0.928798 0.230422
vt 0.928306 0.229425
vt 0.975002 0.118647
vt 0.980962 0.203737
vt 0.965270 0.210064
vt 0.960679 0.203119
vt 0.984333 0.145913
vt 0.967740 0.217509
vt 0.953469 0.221168
vt 0.951675 0.215815
vt 0.948182 0.210595
vt 0.953219 0.196282
vt 0.966049 0.106639
vt 0.942013 0.204963
vt 0.932013 0.198880
vt 0.941768 0.189067
vt 0.952952 0.094226
vt 0.898325 0.187944
vt 0.904475 0.174590
vt 0.925078 0.181430
vt 0.917018 0.192937
vt 0.911523 0.067852
vt 0.934297 0.080425
vt 0.881594 0.169089
vt 0.886667 0.058432
vt 0.877209 0.183738
vt 0.853699 0.179213
vt 0.856630 0.163333
vt 0.860166 0.048764
vt 0.801201 0.186103
vt 0.772648 0.180318
vt 0.742771 0.173484
vt 0.874632 0.197434
vt 0.894356 0.199777
vt 0.852368 0.194805
vt 0.911469 0.202897
vt 0.925096 0.207165
vt 0.939406 0.216682
vt 0.934063 0.212103
vt 0.702972 0.500646
vt 0.709121 0.522415
vt 0.672411 0.545232
vt 0.735132 0.477213
vt 0.741555 0.497301
vt 0.746181 0.511583
vt 0.713450 0.537160
vt 0.676618 0.560152
vt 0.633004 0.561651
vt 0.590955 0.571309
vt 0.636824 0.576846
vt 0.594503 0.586548
vt 0.618379 0.125878
vt 0.618313 0.107182
vt 0.648355 0.109493
vt 0.648313 0.128814
vt 0.619074 -0.033205
vt 0.649434 -0.031286
vt 0.680587 -0.027572
vt 0.679285 0.113582
vt 0.679142 0.133895
vt 0.684883 0.188791
vt 0.653521 0.185305
vt 0.650117 0.153805
vt 0.681100 0.158675
vt 0.622711 0.183427
vt 0.619967 0.151034
vt 0.658086 0.226796
vt 0.626130 0.227042
vt 0.689997 0.226979
vt 0.694614 0.262354
vt 0.662039 0.266382
vt 0.628756 0.269537
vt 0.638340 0.581412
vt 0.596262 0.593075
vt 0.678890 0.566002
vt 0.686084 0.686991
vt 0.644724 0.713273
vt 0.600595 0.730573
vt 0.497032 0.277935
vt 0.498316 0.231073
vt 0.531462 0.230291
vt 0.531835 0.275759
vt 0.499440 0.183893
vt 0.531642 0.183461
vt 0.563133 0.183161
vt 0.563948 0.229251
vt 0.565248 0.273787
vt 0.500172 0.125748
vt 0.531016 0.125308
vt 0.531418 0.150231
vt 0.499981 0.150615
vt 0.561215 0.125160
vt 0.562131 0.150123
vt 0.500147 0.106960
vt 0.530668 0.106496
vt 0.499967 -0.034263
vt 0.530267 -0.034872
vt 0.560366 -0.034830
vt 0.560705 0.106410
vt 0.502775 0.749156
vt 0.501225 0.605707
vt 0.550799 0.603132
vt 0.552532 0.741796
vt 0.500116 0.590235
vt 0.548541 0.589461
vt 0.497848 0.550508
vt 0.542032 0.550262
vt 0.545756 0.574144
vt 0.499116 0.574513
vt 0.536714 0.514854
vt 0.529615 0.473018
vt 0.496490 0.515498
vt 0.495529 0.474421
vt 0.593090 0.182923
vt 0.595141 0.227971
vt 0.596853 0.271676
vt 0.591194 0.150113
vt 0.589875 0.125031
vt 0.589543 0.106412
vt 0.589692 -0.034276
vt 0.829645 0.155523
vt 0.827884 0.173197
vt 0.832084 0.034953
vt 0.830568 0.224979
vt 0.832951 0.239527
vt 0.828881 0.208423
vt 0.720845 0.227462
vt 0.725405 0.257793
vt 0.715887 0.194070
vt 0.712121 0.165707
vt 0.710150 0.140885
vt 0.710515 0.119276
vt 0.712015 -0.021886
vt 0.900821 0.266021
vt 0.912453 0.254802
vt 0.917990 0.260439
vt 0.906804 0.273999
vt 0.921398 0.245868
vt 0.926600 0.249188
vt 0.932257 0.252522
vt 0.923944 0.265911
vt 0.913115 0.281599
vt 0.930270 0.271510
vt 0.919455 0.288764
vt 0.938535 0.256358
vt 0.946841 0.260879
vt 0.938407 0.277509
vt 0.927327 0.295892
vt 0.958846 0.266373
vt 0.949887 0.284233
vt 0.972936 0.232919
vt 0.963228 0.260771
vt 0.950862 0.289562
vt 0.938277 0.303358
vt 0.870503 0.294758
vt 0.887066 0.279360
vt 0.893802 0.289715
vt 0.878111 0.307905
vt 0.900696 0.299361
vt 0.885689 0.319814
vt 0.907034 0.307711
vt 0.892077 0.329274
vt 0.914440 0.315580
vt 0.899037 0.337682
vt 0.756066 0.615632
vt 0.749691 0.520166
vt 0.778637 0.496459
vt 0.785453 0.578881
vt 0.773528 0.487046
vt 0.799844 0.460023
vt 0.806862 0.470366
vt 0.814336 0.537966
vt 0.768111 0.474021
vt 0.761647 0.455755
vt 0.787036 0.432094
vt 0.793562 0.448455
vt 0.724817 0.448065
vt 0.752243 0.428351
vt 0.713734 0.413315
vt 0.742637 0.396004
vt 0.770176 0.376857
vt 0.778660 0.406599
vt 0.874593 0.436616
vt 0.845372 0.487858
vt 0.836947 0.436445
vt 0.865493 0.401823
vt 0.829189 0.426575
vt 0.857326 0.392467
vt 0.822633 0.416138
vt 0.850814 0.382919
vt 0.816005 0.401880
vt 0.844224 0.370627
vt 0.807634 0.380033
vt 0.835693 0.352824
vt 0.799048 0.354554
vt 0.826822 0.332108
vt 0.827815 0.190984
vt 0.867161 0.343474
vt 0.873647 0.354222
vt 0.880304 0.363145
vt 0.850552 0.312293
vt 0.858974 0.328903
vt 0.888942 0.372140
vt 0.898651 0.392633
vt 0.908294 0.346363
vt 0.918764 0.354417
vt 0.936075 0.320422
vt 0.924549 0.323737
vt 0.937041 0.241794
vt 0.931647 0.240205
vt 0.926849 0.238884
vt 0.954508 0.235692
vt 0.952130 0.246812
vt 0.943355 0.244075
vt 0.945266 0.234778
vt 0.984139 0.180995
vt 0.979921 0.205358
vt 0.964876 0.250140
vt 0.968157 0.236514
vt 0.954638 0.227469
vt 0.945055 0.228458
vt 0.943894 0.224100
vt 0.985475 0.161798
vt 0.968880 0.225986
vt 0.693069 0.468461
vt 0.680834 0.429680
vt 0.716142 0.543913
vt 0.723035 0.652954
vt 0.201104 0.197996
vt 0.228162 0.198130
vt 0.222371 0.220999
vt 0.196447 0.217235
vt 0.256786 0.196907
vt 0.249857 0.224406
vt 0.243405 0.248727
vt 0.216611 0.241044
vt 0.191504 0.234180
vt 0.344364 0.448840
vt 0.384539 0.462343
vt 0.372825 0.506428
vt 0.332322 0.491978
vt 0.424637 0.471221
vt 0.414554 0.514957
vt 0.409231 0.551714
vt 0.366157 0.543484
vt 0.324932 0.528049
vt 0.269751 -0.015666
vt 0.268886 0.124949
vt 0.239482 0.131670
vt 0.240586 -0.005263
vt 0.266967 0.147224
vt 0.237515 0.153130
vt 0.209081 0.158159
vt 0.210833 0.138398
vt 0.211959 0.006738
vt 0.115263 0.190303
vt 0.133196 0.192723
vt 0.131506 0.204649
vt 0.114788 0.200572
vt 0.153631 0.195346
vt 0.150834 0.209255
vt 0.147516 0.221523
vt 0.129145 0.215153
vt 0.113493 0.209514
vt 0.100898 0.204856
vt 0.100976 0.197469
vt 0.091515 0.201529
vt 0.090104 0.195814
vt 0.087568 0.189225
vt 0.099947 0.188950
vt 0.068855 0.198404
vt 0.070599 0.196392
vt 0.074891 0.199681
vt 0.073457 0.200971
vt 0.073730 0.194006
vt 0.077745 0.197866
vt 0.080871 0.200743
vt 0.078265 0.202110
vt 0.077131 0.203094
vt 0.072408 0.202547
vt 0.067382 0.201006
vt 0.076484 0.203998
vt 0.075843 0.207004
vt 0.071517 0.206280
vt 0.066265 0.205734
vt 0.038123 0.067088
vt 0.050380 0.170776
vt 0.044637 0.176824
vt 0.030620 0.078273
vt 0.061080 0.180605
vt 0.056762 0.185175
vt 0.054068 0.190200
vt 0.040860 0.183781
vt 0.025475 0.091464
vt 0.112986 0.166684
vt 0.094242 0.168556
vt 0.088639 0.155687
vt 0.109517 0.152370
vt 0.078782 0.171855
vt 0.071232 0.160304
vt 0.062636 0.049033
vt 0.082302 0.040333
vt 0.105569 0.033637
vt 0.130165 0.030108
vt 0.132148 0.150497
vt 0.156030 0.026120
vt 0.156596 0.148358
vt 0.156816 0.164612
vt 0.133789 0.165769
vt 0.233456 0.175376
vt 0.205580 0.178119
vt 0.262689 0.171264
vt 0.114786 0.179161
vt 0.134053 0.179837
vt 0.155703 0.180390
vt 0.083988 0.181382
vt 0.097847 0.179474
vt 0.062860 0.194931
vt 0.064956 0.191632
vt 0.068496 0.188322
vt 0.320783 0.552002
vt 0.281293 0.528286
vt 0.286364 0.505661
vt 0.317916 0.567525
vt 0.277919 0.543685
vt 0.242441 0.516018
vt 0.246556 0.501141
vt 0.252540 0.480320
vt 0.406559 0.576147
vt 0.362672 0.568001
vt 0.404842 0.591762
vt 0.360549 0.583667
vt 0.384935 0.129288
vt 0.356292 0.131866
vt 0.357383 0.112651
vt 0.385742 0.110681
vt 0.326740 0.135920
vt 0.328183 0.115720
vt 0.328432 -0.024404
vt 0.357318 -0.026583
vt 0.385545 -0.027984
vt 0.317023 0.190187
vt 0.322987 0.160441
vt 0.353049 0.156649
vt 0.347727 0.187869
vt 0.382241 0.154300
vt 0.377847 0.186519
vt 0.371920 0.230015
vt 0.340473 0.229043
vt 0.366811 0.272628
vt 0.333944 0.268328
vt 0.301832 0.262769
vt 0.309067 0.227905
vt 0.403912 0.598399
vt 0.359571 0.588299
vt 0.402225 0.739187
vt 0.355497 0.724527
vt 0.310676 0.699308
vt 0.316244 0.573452
vt 0.462483 0.277377
vt 0.465259 0.231703
vt 0.429348 0.276615
vt 0.433081 0.231766
vt 0.436219 0.185601
vt 0.467344 0.184822
vt 0.468708 0.151603
vt 0.469559 0.126698
vt 0.438484 0.152594
vt 0.440000 0.127671
vt 0.469930 0.107905
vt 0.440691 0.108955
vt 0.440990 -0.031014
vt 0.470075 -0.032793
vt 0.452125 0.746527
vt 0.451315 0.606162
vt 0.451592 0.592285
vt 0.452427 0.576742
vt 0.453601 0.552567
vt 0.461348 0.474499
vt 0.456145 0.516782
vt 0.402361 0.231029
vt 0.406815 0.185955
vt 0.398142 0.275059
vt 0.412283 0.128230
vt 0.410143 0.153229
vt 0.413099 -0.029406
vt 0.413042 0.109676
vt 0.182072 0.162017
vt 0.183068 0.144129
vt 0.183629 0.017752
vt 0.168384 0.227793
vt 0.172525 0.213436
vt 0.176264 0.197112
vt 0.271776 0.256453
vt 0.278817 0.226589
vt 0.286566 0.193705
vt 0.296851 0.141222
vt 0.292717 0.165759
vt 0.298563 0.119711
vt 0.299220 -0.021363
vt 0.098463 0.244697
vt 0.091475 0.251760
vt 0.082329 0.236142
vt 0.088580 0.231423
vt 0.084209 0.258378
vt 0.075693 0.240611
vt 0.069526 0.225621
vt 0.075562 0.223267
vt 0.081144 0.220838
vt 0.076967 0.264545
vt 0.068647 0.245148
vt 0.068185 0.270390
vt 0.059729 0.249742
vt 0.053922 0.231370
vt 0.062793 0.228344
vt 0.047342 0.254400
vt 0.041194 0.234626
vt 0.056243 0.275980
vt 0.042536 0.246028
vt 0.032930 0.213259
vt 0.026193 0.182243
vt 0.124885 0.278535
vt 0.115825 0.290785
vt 0.102330 0.269833
vt 0.110304 0.260402
vt 0.106917 0.301804
vt 0.094301 0.278494
vt 0.099470 0.310501
vt 0.086971 0.285933
vt 0.091559 0.318013
vt 0.078601 0.292704
vt 0.233553 0.623526
vt 0.201561 0.582186
vt 0.208169 0.498318
vt 0.239332 0.524783
vt 0.170840 0.535210
vt 0.178541 0.468582
vt 0.185811 0.458265
vt 0.213230 0.488751
vt 0.218579 0.475338
vt 0.192390 0.446613
vt 0.199389 0.429988
vt 0.225108 0.456541
vt 0.234984 0.428485
vt 0.262761 0.450337
vt 0.208725 0.404065
vt 0.218718 0.373931
vt 0.245673 0.395504
vt 0.274393 0.414799
vt 0.110385 0.417403
vt 0.120286 0.389635
vt 0.148011 0.429636
vt 0.139035 0.477132
vt 0.129229 0.381003
vt 0.156324 0.420151
vt 0.136501 0.371938
vt 0.163454 0.409940
vt 0.144070 0.360043
vt 0.170879 0.395763
vt 0.154074 0.342726
vt 0.180591 0.373939
vt 0.164738 0.322521
vt 0.190945 0.348516
vt 0.179623 0.179808
vt 0.115579 0.339049
vt 0.123115 0.328915
vt 0.108042 0.347269
vt 0.132744 0.315101
vt 0.142835 0.299255
vt 0.087797 0.365966
vt 0.098482 0.355236
vt 0.069705 0.321295
vt 0.081279 0.325393
vt 0.067437 0.299276
vt 0.054752 0.281670
vt 0.072062 0.213310
vt 0.066558 0.213952
vt 0.076934 0.212822
vt 0.050532 0.204575
vt 0.059706 0.205400
vt 0.060028 0.215097
vt 0.050991 0.216203
vt 0.021209 0.126551
vt 0.037035 0.202735
vt 0.037907 0.217082
vt 0.022422 0.152317
vt 0.060983 0.199093
vt 0.051825 0.196294
vt 0.038205 0.192036
vt 0.022313 0.106954
vt 0.295371 0.472450
vt 0.307522 0.432769
vt 0.269955 0.664093
vt 0.275703 0.550577
vt 0.058865 0.165372
vt 0.068053 0.176115
vt 0.048380 0.057716
vt 0.074466 0.184713
vt 0.079020 0.191301
vt 0.082524 0.196201
vt 0.085116 0.200233
vt 0.935929 0.224102
vt 0.942368 0.220529
vt 0.931104 0.226505
vt 0.927354 0.228253
vt 0.765473 0.302127
vt 0.759529 0.275759
vt 0.787358 0.266992
vt 0.793510 0.289097
vt 0.813188 0.259521
vt 0.819037 0.277274
vt 0.860316 0.258391
vt 0.841016 0.267261
vt 0.836475 0.253183
vt 0.857280 0.247327
vt 0.893159 0.243571
vt 0.877886 0.250347
vt 0.875855 0.241699
vt 0.891724 0.236848
vt 0.913606 0.234724
vt 0.905257 0.238328
vt 0.904348 0.232946
vt 0.913248 0.230139
vt 0.922058 0.228707
vt 0.918641 0.228719
vt 0.920461 0.232000
vt 0.918107 0.232749
vt 0.922744 0.231653
vt 0.922028 0.231674
vt 0.924175 0.229716
vt 0.924885 0.230629
vt 0.925104 0.231161
vt 0.924983 0.233428
vt 0.921261 0.232471
vt 0.922598 0.231889
vt 0.922360 0.237167
vt 0.916656 0.241932
vt 0.912754 0.236760
vt 0.918405 0.233744
vt 0.890719 0.248809
vt 0.903348 0.241793
vt 0.907483 0.248675
vt 0.895491 0.257661
vt 0.857563 0.266870
vt 0.875591 0.257469
vt 0.881086 0.268662
vt 0.863754 0.281157
vt 0.842978 0.294778
vt 0.818764 0.310213
vt 0.811606 0.286788
vt 0.836130 0.276144
vt 0.791276 0.328384
vt 0.762636 0.346545
vt 0.756062 0.314708
vt 0.784467 0.300722
vt 0.734599 0.361755
vt 0.703691 0.375148
vt 0.693493 0.334318
vt 0.727372 0.325276
vt 0.666624 0.387005
vt 0.626244 0.398274
vt 0.605464 0.350930
vt 0.650077 0.343238
vt 0.585672 0.410370
vt 0.549439 0.421056
vt 0.530005 0.370976
vt 0.563876 0.359888
vt 0.495110 0.429045
vt 0.520281 0.427070
vt 0.495617 0.379580
vt 0.509799 0.377976
vt 0.469907 0.427936
vt 0.440704 0.423289
vt 0.460143 0.371934
vt 0.481304 0.377771
vt 0.362666 0.402454
vt 0.403963 0.414755
vt 0.385011 0.357300
vt 0.425044 0.365594
vt 0.285904 0.375880
vt 0.322415 0.389526
vt 0.298472 0.334317
vt 0.341336 0.345142
vt 0.228199 0.343388
vt 0.255460 0.360707
vt 0.237021 0.311530
vt 0.265160 0.323796
vt 0.174776 0.301100
vt 0.200731 0.322485
vt 0.184152 0.278121
vt 0.209794 0.295022
vt 0.133154 0.265704
vt 0.152208 0.282403
vt 0.140986 0.252093
vt 0.161027 0.264370
vt 0.110768 0.228948
vt 0.124458 0.239987
vt 0.117586 0.250483
vt 0.104861 0.237124
vt 0.091006 0.213229
vt 0.099406 0.219868
vt 0.094345 0.226106
vt 0.086377 0.217713
vt 0.079669 0.207685
vt 0.081578 0.211887
vt 0.083488 0.207425
vt 0.086026 0.209197
vt 0.080244 0.204932
vt 0.079933 0.205414
vt 0.082124 0.206271
vt 0.082144 0.206534
vt 0.084317 0.207092
vt 0.082889 0.206517
vt 0.081106 0.204153
vt 0.083331 0.203544
vt 0.090567 0.211045
vt 0.086515 0.208268
vt 0.086659 0.204157
vt 0.091681 0.206523
vt 0.109347 0.221941
vt 0.098155 0.216090
vt 0.099878 0.210843
vt 0.111569 0.216791
vt 0.142093 0.235654
vt 0.123163 0.228474
vt 0.126338 0.224081
vt 0.143695 0.232414
vt 0.183051 0.256034
vt 0.161739 0.244189
vt 0.163310 0.241084
vt 0.185391 0.250282
vt 0.232788 0.285467
vt 0.206364 0.269545
vt 0.209984 0.260516
vt 0.236659 0.271589
vt 0.264959 0.282535
vt 0.295376 0.292428
vt 0.289141 0.312271
vt 0.260564 0.298903
vt 0.361497 0.334207
vt 0.326650 0.324073
vt 0.329250 0.301551
vt 0.363980 0.308737
vt 0.394785 0.312109
vt 0.425070 0.313495
vt 0.418678 0.342735
vt 0.389667 0.339771
vt 0.496221 0.315011
vt 0.458999 0.315292
vt 0.495875 0.355233
vt 0.455817 0.341870
vt 0.533510 0.313346
vt 0.567724 0.310187
vt 0.572390 0.353386
vt 0.535795 0.354686
vt 0.629631 0.305369
vt 0.598068 0.308048
vt 0.629010 0.345271
vt 0.600670 0.348170
vt 0.702945 0.327515
vt 0.664934 0.338003
vt 0.664719 0.299914
vt 0.699005 0.292442
vt 0.730158 0.284211
vt 0.735828 0.315185
vn 0.7292 0.2055 -0.6527
vn 0.7513 -0.0639 -0.6568
vn 0.7651 0.0568 -0.6414
vn 0.7322 0.2756 -0.6228
vn 0.6889 -0.4518 -0.5668
vn 0.7266 -0.3714 -0.5780
vn 0.6793 -0.3332 -0.6539
vn 0.7469 0.1103 -0.6557
vn 0.7419 0.2999 -0.5997
vn 0.3018 0.8573 -0.4171
vn 0.4096 0.7431 -0.5292
vn 0.4611 0.7246 -0.5122
vn 0.3725 0.8601 -0.3487
vn 0.4903 0.5819 -0.6488
vn 0.5099 0.5290 -0.6784
vn 0.4756 0.4594 -0.7502
vn 0.4874 0.6965 -0.5267
vn 0.4295 0.8474 -0.3122
vn 0.5523 0.5796 -0.5992
vn 0.5712 0.4649 -0.6765
vn 0.5756 0.3740 -0.7272
vn 0.5972 0.4778 -0.6443
vn 0.6060 0.3177 -0.7292
vn 0.6074 0.2491 -0.7544
vn 0.6567 0.2310 -0.7179
vn 0.6454 0.3094 -0.6984
vn 0.6510 0.4157 -0.6352
vn 0.5750 -0.2546 -0.7776
vn 0.5298 -0.4192 -0.7373
vn 0.6054 -0.3794 -0.6997
vn 0.6676 -0.1619 -0.7267
vn 0.4436 -0.5894 -0.6752
vn 0.4897 -0.5882 -0.6436
vn 0.5385 -0.5804 -0.6108
vn 0.6643 -0.3212 -0.6750
vn 0.7222 -0.0488 -0.6900
vn 0.4347 -0.4663 -0.7704
vn 0.3712 -0.6166 -0.6943
vn 0.4708 -0.3312 -0.8177
vn 0.3732 -0.3873 -0.8431
vn 0.3351 -0.5235 -0.7834
vn 0.2767 -0.6762 -0.6828
vn 0.1586 -0.4088 -0.8987
vn 0.0989 -0.6298 -0.7705
vn 0.2220 -0.5807 -0.7833
vn 0.2726 -0.4158 -0.8676
vn 0.0511 -0.8252 -0.5626
vn 0.1641 -0.7542 -0.6358
vn -0.1473 0.2196 -0.9644
vn -0.0914 0.7401 -0.6663
vn -0.1614 0.8136 -0.5586
vn -0.2825 0.0164 -0.9591
vn 0.0767 0.9131 -0.4004
vn 0.0463 0.9590 -0.2794
vn 0.0303 0.9863 -0.1619
vn -0.1815 0.8954 -0.4065
vn -0.3889 -0.2782 -0.8783
vn 0.2696 0.1416 -0.9525
vn 0.2630 0.2775 -0.9240
vn 0.2289 0.2144 -0.9496
vn 0.2875 0.0618 -0.9558
vn 0.2615 0.4244 -0.8669
vn 0.2099 0.4065 -0.8892
vn 0.1312 0.3847 -0.9137
vn 0.1833 0.1215 -0.9755
vn 0.2679 -0.0482 -0.9622
vn 0.3555 -0.0365 -0.9340
vn 0.3103 0.0319 -0.9501
vn 0.3568 -0.1280 -0.9254
vn 0.4340 -0.1442 -0.8893
vn 0.4273 -0.0616 -0.9020
vn 0.3844 -0.0325 -0.9226
vn 0.5566 -0.0219 -0.8305
vn 0.5213 0.0099 -0.8533
vn 0.4808 -0.0354 -0.8761
vn 0.4939 -0.1009 -0.8636
vn 0.4877 0.0122 -0.8729
vn 0.4488 -0.0168 -0.8935
vn 0.5689 0.0490 -0.8210
vn 0.5326 0.0250 -0.8460
vn 0.6223 0.0704 -0.7796
vn 0.6613 0.1474 -0.7355
vn 0.6068 0.0893 -0.7898
vn 0.5792 0.0724 -0.8120
vn 0.6977 0.2797 -0.6596
vn 0.7003 0.3287 -0.6337
vn 0.7145 0.3968 -0.5762
vn 0.6683 0.0044 -0.7439
vn 0.5810 -0.1134 -0.8060
vn 0.7114 0.1265 -0.6913
vn 0.4888 -0.2080 -0.8472
vn 0.4057 -0.2631 -0.8753
vn 0.2181 -0.2136 -0.9523
vn 0.3186 -0.2679 -0.9092
vn 0.4339 0.6143 -0.6591
vn 0.5354 0.4129 -0.7368
vn 0.5636 0.3719 -0.7376
vn 0.3834 0.6255 -0.6796
vn 0.5061 0.4347 -0.7449
vn 0.6156 0.1414 -0.7753
vn 0.6270 0.0777 -0.7751
vn 0.6189 -0.0269 -0.7850
vn 0.5310 0.2830 -0.7987
vn 0.3828 0.1191 -0.9161
vn 0.5049 -0.2073 -0.8379
vn 0.1986 -0.4434 -0.8741
vn 0.2593 0.7872 -0.5596
vn 0.2619 0.8463 -0.4640
vn 0.4308 0.8075 -0.4028
vn 0.4247 0.7285 -0.5375
vn 0.2735 0.8480 -0.4541
vn 0.3756 0.8272 -0.4180
vn 0.4784 0.7718 -0.4189
vn 0.4916 0.7230 -0.4854
vn 0.5726 0.6325 -0.5217
vn 0.6474 0.3008 -0.7003
vn 0.5358 0.3167 -0.7827
vn 0.4925 0.5619 -0.6646
vn 0.6245 0.5166 -0.5858
vn 0.3659 0.3505 -0.8621
vn 0.3188 0.6110 -0.7246
vn 0.4972 -0.0112 -0.8676
vn 0.3479 -0.0447 -0.9364
vn 0.6124 0.0642 -0.7879
vn 0.4673 -0.3676 -0.8041
vn 0.3268 -0.4482 -0.8321
vn 0.2355 -0.4861 -0.8416
vn 0.3142 -0.6092 -0.7281
vn -0.0350 -0.7357 -0.6764
vn 0.5137 -0.4384 -0.7375
vn 0.4171 -0.5575 -0.7178
vn 0.2339 -0.6671 -0.7073
vn -0.0521 -0.7559 -0.6526
vn -0.0015 -0.4319 -0.9019
vn -0.0008 0.0565 -0.9984
vn -0.1344 0.0100 -0.9909
vn -0.0740 -0.4395 -0.8952
vn -0.0028 0.3770 -0.9262
vn -0.1723 0.3559 -0.9185
vn -0.0950 0.3511 -0.9315
vn -0.0801 -0.0489 -0.9956
vn -0.0374 -0.4540 -0.8902
vn 0.0059 0.7950 -0.6066
vn -0.1070 0.8051 -0.5835
vn -0.1540 0.6224 -0.7674
vn 0.0009 0.6247 -0.7808
vn -0.0474 0.8189 -0.5720
vn -0.0673 0.6336 -0.7707
vn -0.0037 0.8432 -0.5376
vn -0.0465 0.8571 -0.5131
vn 0.0137 0.8719 -0.4895
vn 0.0374 0.8744 -0.4837
vn 0.0658 0.8700 -0.4887
vn -0.0603 0.8638 -0.5002
vn 0.0082 -0.8890 -0.4577
vn -0.0049 -0.8795 -0.4759
vn -0.1768 -0.8259 -0.5353
vn -0.1757 -0.8548 -0.4883
vn -0.0039 -0.6123 -0.7906
vn -0.0461 -0.5672 -0.8223
vn 0.0212 0.4445 -0.8955
vn 0.3216 0.4286 -0.8443
vn 0.1831 0.0052 -0.9831
vn 0.0049 -0.0250 -0.9997
vn 0.3653 0.7111 -0.6007
vn 0.3514 0.8745 -0.3343
vn 0.0363 0.7616 -0.6470
vn 0.0388 0.9270 -0.3731
vn 0.1221 0.3730 -0.9198
vn 0.1224 -0.0479 -0.9913
vn 0.1168 -0.4697 -0.8750
vn 0.1197 0.6379 -0.7608
vn 0.0937 0.8143 -0.5728
vn 0.1382 0.8629 -0.4861
vn 0.1578 0.8684 -0.4701
vn 0.6095 0.1583 -0.7768
vn 0.6678 0.1904 -0.7196
vn 0.6119 0.1741 -0.7715
vn 0.7151 -0.2091 -0.6670
vn 0.6107 -0.5379 -0.5811
vn 0.7350 0.0862 -0.6725
vn 0.7051 0.1055 -0.7012
vn 0.5928 -0.3310 -0.7342
vn 0.7279 0.3009 -0.6162
vn 0.7054 0.4634 -0.5364
vn 0.6439 0.5235 -0.5579
vn 0.5260 0.6100 -0.5926
vn 0.5330 0.6841 -0.4979
vn 0.3345 0.9222 -0.1939
vn 0.2888 0.9464 -0.1450
vn 0.3469 0.9042 -0.2491
vn 0.4093 0.8649 -0.2906
vn 0.2187 0.9677 -0.1251
vn 0.2685 0.9385 -0.2170
vn 0.3176 0.8968 -0.3079
vn 0.4022 0.8532 -0.3321
vn 0.4665 0.7981 -0.3812
vn 0.4681 0.7678 -0.4374
vn 0.5375 0.6974 -0.4740
vn 0.3809 0.8287 -0.4101
vn 0.4484 0.7276 -0.5191
vn 0.5279 0.6598 -0.5348
vn 0.5880 0.5809 -0.5629
vn 0.4303 0.6726 -0.6021
vn 0.5029 0.6191 -0.6032
vn 0.3878 0.6866 -0.6149
vn 0.4496 0.6405 -0.6226
vn 0.5108 0.5739 -0.6401
vn 0.5547 0.5488 -0.6255
vn 0.3493 0.8703 -0.3471
vn 0.3505 0.9010 -0.2556
vn 0.4242 0.8247 -0.3742
vn 0.4178 0.7986 -0.4332
vn 0.4951 0.7478 -0.4424
vn 0.4937 0.7135 -0.4972
vn 0.5768 0.6239 -0.5273
vn 0.6020 0.5623 -0.5669
vn 0.6315 0.5010 -0.5917
vn 0.6597 0.4226 -0.6215
vn 0.6024 -0.2505 -0.7579
vn 0.6299 -0.1261 -0.7664
vn 0.6545 -0.0246 -0.7557
vn 0.6497 -0.1159 -0.7513
vn 0.6215 0.1798 -0.7625
vn 0.6387 0.2126 -0.7395
vn 0.6797 0.0591 -0.7311
vn 0.6839 -0.0108 -0.7295
vn 0.5033 0.4351 -0.7466
vn 0.3679 0.6229 -0.6904
vn 0.3740 0.6227 -0.6873
vn 0.5214 0.4312 -0.7363
vn 0.2898 0.7388 -0.6084
vn 0.2731 0.7382 -0.6169
vn 0.2002 0.8286 -0.5228
vn 0.1937 0.8200 -0.5386
vn 0.1893 0.8179 -0.5433
vn 0.2619 0.7468 -0.6113
vn 0.6899 0.1740 -0.7026
vn 0.6966 0.0803 -0.7129
vn 0.6866 0.1319 -0.7149
vn 0.6791 0.2052 -0.7047
vn 0.6489 0.2433 -0.7209
vn 0.6558 0.2812 -0.7007
vn 0.5364 0.4351 -0.7231
vn 0.5590 0.4564 -0.6922
vn 0.3792 0.6316 -0.6762
vn 0.4088 0.6547 -0.6358
vn 0.2498 0.7594 -0.6008
vn 0.2879 0.7724 -0.5662
vn 0.1657 0.8209 -0.5466
vn 0.2044 0.8288 -0.5209
vn 0.7086 0.2232 -0.6693
vn 0.4631 0.6860 -0.5612
vn 0.5913 0.5042 -0.6294
vn 0.6648 0.3438 -0.6631
vn 0.3029 0.8451 -0.4406
vn 0.3709 0.7834 -0.4987
vn 0.6641 0.2928 -0.6879
vn 0.6655 0.2810 -0.6915
vn 0.6435 0.3886 -0.6595
vn 0.6242 0.3908 -0.6765
vn 0.5713 0.4898 -0.6585
vn 0.6043 0.4735 -0.6408
vn 0.2136 0.9267 -0.3093
vn 0.1759 0.9620 -0.2091
vn 0.1424 0.9831 -0.1153
vn 0.2449 0.7457 -0.6196
vn 0.3509 0.7670 -0.5372
vn 0.2748 0.8646 -0.4206
vn 0.1503 0.8425 -0.5174
vn 0.2791 0.6624 -0.6952
vn 0.3270 0.7004 -0.6345
vn 0.3558 0.7005 -0.6186
vn 0.2879 0.6815 -0.6728
vn 0.1574 0.6181 -0.7702
vn 0.0307 0.6814 -0.7313
vn 0.0047 0.3342 -0.9425
vn 0.2583 0.5630 -0.7850
vn 0.2288 0.5765 -0.7844
vn 0.3437 0.7447 -0.5722
vn 0.2401 0.8426 -0.4820
vn 0.5802 -0.2696 -0.7686
vn 0.5226 -0.4127 -0.7460
vn -0.7307 0.2025 -0.6519
vn -0.7350 0.2733 -0.6205
vn -0.7681 0.0540 -0.6381
vn -0.7530 -0.0672 -0.6545
vn -0.7423 0.3001 -0.5991
vn -0.7486 0.1098 -0.6539
vn -0.6779 -0.3321 -0.6559
vn -0.7303 -0.3715 -0.5733
vn -0.6940 -0.4502 -0.5619
vn -0.3204 0.8510 -0.4160
vn -0.3937 0.8503 -0.3492
vn -0.4827 0.7121 -0.5098
vn -0.4213 0.7376 -0.5277
vn -0.4269 0.8438 -0.3251
vn -0.4962 0.6830 -0.5361
vn -0.4821 0.4418 -0.7565
vn -0.5185 0.5180 -0.6803
vn -0.4905 0.5852 -0.6458
vn -0.5532 0.5800 -0.5979
vn -0.5688 0.4918 -0.6592
vn -0.6048 0.3561 -0.7123
vn -0.5733 0.4644 -0.6750
vn -0.6484 0.4156 -0.6378
vn -0.6475 0.3084 -0.6969
vn -0.6577 0.2299 -0.7174
vn -0.6079 0.2480 -0.7543
vn -0.6066 0.3170 -0.7291
vn -0.5754 -0.2558 -0.7769
vn -0.6662 -0.1620 -0.7280
vn -0.6039 -0.3802 -0.7006
vn -0.5285 -0.4190 -0.7383
vn -0.7198 -0.0492 -0.6925
vn -0.6618 -0.3212 -0.6774
vn -0.5415 -0.5763 -0.6121
vn -0.4908 -0.5856 -0.6451
vn -0.4436 -0.5877 -0.6767
vn -0.3696 -0.6153 -0.6963
vn -0.4355 -0.4675 -0.7693
vn -0.2746 -0.6758 -0.6840
vn -0.3349 -0.5242 -0.7830
vn -0.3742 -0.3893 -0.8417
vn -0.4706 -0.3315 -0.8177
vn 0.1488 0.2198 -0.9641
vn -0.0161 -0.2901 -0.9569
vn 0.0494 -0.5981 -0.7999
vn 0.2839 0.0161 -0.9587
vn -0.1582 -0.4093 -0.8986
vn -0.0981 -0.6307 -0.7698
vn -0.0507 -0.8257 -0.5618
vn 0.0695 -0.8380 -0.5413
vn 0.3901 -0.2767 -0.8782
vn 0.1588 0.8124 -0.5611
vn 0.0940 0.7407 -0.6652
vn 0.1819 0.8953 -0.4066
vn -0.0311 0.9861 -0.1632
vn -0.0460 0.9592 -0.2790
vn -0.0761 0.9136 -0.3994
vn -0.2696 0.1416 -0.9525
vn -0.2797 0.0659 -0.9578
vn -0.2419 0.2192 -0.9452
vn -0.2631 0.2775 -0.9240
vn -0.2676 -0.0478 -0.9623
vn -0.1834 0.1215 -0.9755
vn -0.1324 0.3837 -0.9139
vn -0.2099 0.4064 -0.8892
vn -0.2615 0.4245 -0.8669
vn -0.5570 -0.0219 -0.8302
vn -0.4937 -0.1006 -0.8638
vn -0.4806 -0.0350 -0.8763
vn -0.5203 0.0109 -0.8539
vn -0.4340 -0.1441 -0.8893
vn -0.4272 -0.0616 -0.9021
vn -0.3844 -0.0324 -0.9226
vn -0.4488 -0.0166 -0.8935
vn -0.4877 0.0127 -0.8729
vn -0.5324 0.0258 -0.8461
vn -0.5657 0.0515 -0.8230
vn -0.5779 0.0733 -0.8128
vn -0.6056 0.0900 -0.7907
vn -0.6616 0.1466 -0.7354
vn -0.6214 0.0707 -0.7803
vn -0.7026 0.3286 -0.6312
vn -0.6989 0.2798 -0.6582
vn -0.7147 0.3968 -0.5760
vn -0.5823 -0.1139 -0.8050
vn -0.6668 0.0059 -0.7452
vn -0.7098 0.1275 -0.6928
vn -0.4065 -0.2641 -0.8747
vn -0.4877 -0.2069 -0.8482
vn -0.0027 0.3358 -0.9419
vn -0.1033 -0.0408 -0.9938
vn -0.2178 -0.2133 -0.9524
vn -0.5579 0.3696 -0.7431
vn -0.5297 0.4230 -0.7352
vn -0.4274 0.6232 -0.6549
vn -0.6112 -0.0442 -0.7902
vn -0.6227 0.0711 -0.7792
vn -0.6170 0.1422 -0.7740
vn -0.5036 0.4450 -0.7405
vn -0.3789 0.6325 -0.6755
vn -0.3843 0.0974 -0.9181
vn -0.5311 0.2671 -0.8041
vn -0.1906 -0.4614 -0.8665
vn -0.4967 -0.2293 -0.8371
vn -0.2606 0.7830 -0.5648
vn -0.4371 0.7246 -0.5328
vn -0.4170 0.8113 -0.4098
vn -0.2529 0.8477 -0.4662
vn -0.5747 0.6309 -0.5212
vn -0.4926 0.7216 -0.4865
vn -0.4796 0.7716 -0.4178
vn -0.3845 0.8240 -0.4162
vn -0.2794 0.8498 -0.4469
vn -0.6451 0.3005 -0.7025
vn -0.6276 0.5149 -0.5840
vn -0.4941 0.5586 -0.6662
vn -0.5405 0.3118 -0.7814
vn -0.3227 0.6042 -0.7286
vn -0.3705 0.3448 -0.8625
vn -0.3469 -0.0494 -0.9366
vn -0.4958 -0.0152 -0.8683
vn -0.2345 -0.4916 -0.8387
vn -0.3205 -0.4534 -0.8317
vn -0.4618 -0.3718 -0.8053
vn -0.6105 0.0620 -0.7896
vn 0.0264 -0.7467 -0.6647
vn -0.2709 -0.6212 -0.7353
vn 0.0505 -0.7623 -0.6452
vn -0.2252 -0.6790 -0.6987
vn -0.3990 -0.5726 -0.7162
vn -0.4981 -0.4573 -0.7367
vn 0.0720 -0.4414 -0.8944
vn 0.1337 0.0088 -0.9910
vn 0.0306 -0.4582 -0.8883
vn 0.0803 -0.0520 -0.9954
vn 0.0998 0.3474 -0.9324
vn 0.1731 0.3536 -0.9192
vn 0.1559 0.6175 -0.7710
vn 0.1134 0.8011 -0.5878
vn 0.0710 0.6275 -0.7754
vn 0.0579 0.8154 -0.5760
vn 0.0703 0.8539 -0.5157
vn 0.0615 0.8601 -0.5064
vn -0.0679 0.8660 -0.4955
vn -0.0267 0.8746 -0.4841
vn 0.1788 -0.8597 -0.4786
vn 0.1700 -0.8316 -0.5287
vn 0.0443 -0.5770 -0.8155
vn -0.1793 -0.0031 -0.9838
vn -0.3021 0.4263 -0.8527
vn -0.3017 0.8831 -0.3592
vn -0.3425 0.7141 -0.6106
vn -0.1209 -0.0521 -0.9913
vn -0.1194 0.3680 -0.9221
vn -0.1165 -0.4749 -0.8723
vn -0.0963 0.8104 -0.5780
vn -0.1198 0.6306 -0.7668
vn -0.1569 0.8660 -0.4748
vn -0.0887 0.8665 -0.4912
vn -0.6650 0.1907 -0.7221
vn -0.6217 0.1498 -0.7688
vn -0.6108 0.1741 -0.7724
vn -0.6138 -0.5305 -0.5846
vn -0.7124 -0.2097 -0.6697
vn -0.7327 0.0848 -0.6753
vn -0.5900 -0.3313 -0.7363
vn -0.7041 0.1050 -0.7023
vn -0.7279 0.3009 -0.6161
vn -0.6437 0.5214 -0.5602
vn -0.7065 0.4630 -0.5352
vn -0.5486 0.6026 -0.5795
vn -0.5331 0.6850 -0.4965
vn -0.3358 0.9238 -0.1839
vn -0.4073 0.8626 -0.3000
vn -0.3469 0.9062 -0.2418
vn -0.2900 0.9448 -0.1527
vn -0.4635 0.7953 -0.3907
vn -0.4024 0.8530 -0.3322
vn -0.3174 0.8978 -0.3054
vn -0.2682 0.9386 -0.2170
vn -0.2191 0.9674 -0.1270
vn -0.5337 0.6949 -0.4820
vn -0.4698 0.7704 -0.4309
vn -0.5881 0.5808 -0.5628
vn -0.5278 0.6598 -0.5349
vn -0.4477 0.7276 -0.5198
vn -0.3808 0.8285 -0.4106
vn -0.4981 0.6170 -0.6093
vn -0.4361 0.6759 -0.5942
vn -0.5543 0.5488 -0.6258
vn -0.5105 0.5741 -0.6401
vn -0.4494 0.6404 -0.6229
vn -0.3878 0.6865 -0.6151
vn -0.3535 0.8709 -0.3415
vn -0.4129 0.7989 -0.4373
vn -0.4298 0.8255 -0.3659
vn -0.3450 0.8999 -0.2667
vn -0.4896 0.7138 -0.5007
vn -0.4952 0.7473 -0.4431
vn -0.5996 0.5625 -0.5694
vn -0.5811 0.6247 -0.5217
vn -0.6616 0.4244 -0.6182
vn -0.6314 0.5011 -0.5918
vn -0.5910 -0.2541 -0.7656
vn -0.6430 -0.1117 -0.7577
vn -0.6536 -0.0211 -0.7565
vn -0.6199 -0.1328 -0.7733
vn -0.6842 -0.0040 -0.7293
vn -0.6802 0.0644 -0.7302
vn -0.6379 0.2168 -0.7389
vn -0.6221 0.1831 -0.7612
vn -0.5011 0.4415 -0.7443
vn -0.5196 0.4355 -0.7351
vn -0.3709 0.6261 -0.6859
vn -0.3643 0.6275 -0.6881
vn -0.2716 0.7400 -0.6153
vn -0.2880 0.7397 -0.6081
vn -0.2589 0.7495 -0.6092
vn -0.1862 0.8174 -0.5451
vn -0.1957 0.8196 -0.5384
vn -0.2026 0.8270 -0.5245
vn -0.6906 0.1757 -0.7016
vn -0.6800 0.2082 -0.7030
vn -0.6875 0.1355 -0.7134
vn -0.6986 0.0842 -0.7105
vn -0.6542 0.2829 -0.7014
vn -0.6484 0.2466 -0.7203
vn -0.5578 0.4581 -0.6921
vn -0.5355 0.4383 -0.7219
vn -0.4073 0.6561 -0.6354
vn -0.3772 0.6338 -0.6753
vn -0.2907 0.7735 -0.5632
vn -0.2451 0.7614 -0.6002
vn -0.2241 0.8322 -0.5071
vn -0.1633 0.8204 -0.5479
vn -0.7067 0.2239 -0.6712
vn -0.5907 0.5053 -0.6290
vn -0.4604 0.6871 -0.5622
vn -0.6641 0.3454 -0.6631
vn -0.3676 0.7841 -0.5001
vn -0.3151 0.8468 -0.4284
vn -0.6657 0.2823 -0.6907
vn -0.6653 0.2953 -0.6857
vn -0.6243 0.3918 -0.6758
vn -0.6435 0.3897 -0.6588
vn -0.5976 0.4704 -0.6493
vn -0.5713 0.4906 -0.6580
vn -0.1754 0.9622 -0.2084
vn -0.2135 0.9268 -0.3091
vn -0.1421 0.9831 -0.1151
vn -0.2450 0.7456 -0.6197
vn -0.1503 0.8424 -0.5174
vn -0.2748 0.8648 -0.4202
vn -0.3508 0.7667 -0.5377
vn -0.2790 0.6623 -0.6953
vn -0.2822 0.6770 -0.6797
vn -0.3534 0.6985 -0.6223
vn -0.3268 0.7002 -0.6347
vn -0.0313 0.6806 -0.7320
vn -0.1566 0.6185 -0.7700
vn -0.2423 0.5883 -0.7715
vn -0.2585 0.5630 -0.7850
vn -0.3430 0.7447 -0.5725
vn -0.2462 0.8392 -0.4849
vn -0.5044 -0.4257 -0.7512
vn -0.5772 -0.2818 -0.7664
vn -0.3525 -0.0294 -0.9354
vn -0.3566 -0.1278 -0.9255
vn -0.3103 0.0318 -0.9501
vn -0.3186 -0.2679 -0.9092
vn -0.2725 -0.4165 -0.8673
vn -0.2216 -0.5818 -0.7826
vn -0.1651 -0.7558 -0.6336
vn 0.0169 -0.2904 -0.9567
vn 0.1026 -0.0392 -0.9940
vn -0.0483 -0.5988 -0.7995
vn -0.0682 -0.8384 -0.5408
vn 0.3126 -0.8957 -0.3162
vn 0.4602 -0.7585 -0.4614
vn 0.5545 -0.7325 -0.3948
vn 0.4447 -0.8481 -0.2880
vn 0.5466 -0.7337 -0.4038
vn 0.4746 -0.8168 -0.3279
vn 0.3737 -0.7923 -0.4823
vn 0.4318 -0.8040 -0.4088
vn 0.4812 -0.7460 -0.4604
vn 0.4152 -0.7447 -0.5226
vn 0.3073 -0.7763 -0.5504
vn 0.3305 -0.7806 -0.5305
vn 0.3728 -0.7343 -0.5673
vn 0.3457 -0.7286 -0.5913
vn 0.2072 -0.8514 -0.4819
vn 0.2731 -0.7967 -0.5391
vn 0.2971 -0.7508 -0.5899
vn 0.2192 -0.8096 -0.5445
vn 0.0411 -0.9306 -0.3638
vn 0.1247 -0.8796 -0.4590
vn 0.0526 -0.9580 -0.2819
vn 0.1244 -0.9162 -0.3808
vn -0.3540 -0.6897 -0.6317
vn -0.0100 -0.9692 -0.2461
vn -0.0375 -0.9436 -0.3289
vn -0.3687 -0.5908 -0.7176
vn -0.1366 0.9641 -0.2276
vn 0.0408 0.9966 -0.0713
vn 0.0591 0.9977 -0.0319
vn -0.0578 0.9917 -0.1147
vn 0.1264 0.9910 -0.0436
vn 0.1852 0.9813 -0.0527
vn 0.1762 0.9840 -0.0253
vn 0.1278 0.9917 -0.0164
vn 0.2369 0.9701 -0.0535
vn 0.2252 0.9738 -0.0301
vn 0.2430 0.9677 -0.0669
vn 0.2616 0.9618 -0.0806
vn 0.2124 0.9711 -0.1090
vn 0.2161 0.9724 -0.0875
vn 0.2574 0.9558 -0.1418
vn 0.2679 0.9444 -0.1904
vn 0.2410 0.9235 -0.2985
vn 0.1720 0.8953 -0.4110
vn 0.1295 0.9384 -0.3203
vn 0.1715 0.9679 -0.1835
vn 0.1483 0.8634 -0.4822
vn 0.1555 0.8472 -0.5079
vn 0.1465 0.8623 -0.4847
vn 0.1198 0.8964 -0.4267
vn 0.1501 0.8453 -0.5128
vn 0.1493 0.8572 -0.4928
vn 0.1460 0.8419 -0.5195
vn 0.1392 0.8492 -0.5093
vn 0.1639 0.8712 -0.4628
vn 0.2180 0.8961 -0.3867
vn 0.1840 0.8965 -0.4030
vn 0.1410 0.8594 -0.4914
vn 0.2957 0.9062 -0.3022
vn 0.3292 0.9132 -0.2401
vn 0.2793 0.9275 -0.2483
vn 0.2536 0.9134 -0.3184
vn 0.0009 0.9781 -0.2080
vn 0.2585 0.9433 -0.2084
vn 0.0214 0.9837 -0.1783
vn 0.2047 0.9594 -0.1939
vn -0.2183 0.9508 -0.2199
vn -0.3181 0.9160 -0.2446
vn -0.2675 0.9299 -0.2523
vn -0.1721 0.9649 -0.1983
vn -0.2229 0.8930 -0.3911
vn -0.3028 0.9034 -0.3035
vn -0.1960 0.8957 -0.3992
vn -0.2637 0.9113 -0.3162
vn -0.1615 0.8555 -0.4920
vn -0.1609 0.8688 -0.4684
vn -0.1519 0.8402 -0.5205
vn -0.1491 0.8567 -0.4938
vn -0.1608 0.8455 -0.5091
vn -0.1544 0.8434 -0.5146
vn -0.1473 0.8623 -0.4844
vn -0.1410 0.8488 -0.5096
vn -0.1684 0.8949 -0.4133
vn -0.1188 0.8583 -0.4993
vn -0.1293 0.9385 -0.3201
vn -0.1198 0.8966 -0.4264
vn -0.2682 0.9440 -0.1919
vn -0.2258 0.9210 -0.3173
vn -0.2116 0.9713 -0.1083
vn -0.1706 0.9681 -0.1833
vn -0.2368 0.9701 -0.0534
vn -0.2158 0.9726 -0.0870
vn -0.2569 0.9558 -0.1431
vn -0.2615 0.9619 -0.0803
vn -0.1762 0.9840 -0.0255
vn -0.2252 0.9739 -0.0302
vn -0.2422 0.9681 -0.0647
vn -0.1798 0.9827 -0.0438
vn -0.0415 0.9965 -0.0726
vn -0.1260 0.9911 -0.0433
vn -0.0592 0.9977 -0.0323
vn -0.1278 0.9917 -0.0168
vn 0.3522 -0.5861 -0.7297
vn 0.1266 0.9640 -0.2340
vn 0.3487 -0.6868 -0.6378
vn 0.0588 0.9919 -0.1127
vn -0.0524 -0.9583 -0.2811
vn 0.0104 -0.9694 -0.2452
vn 0.0388 -0.9438 -0.3283
vn -0.0405 -0.9310 -0.3627
vn -0.2072 -0.8519 -0.4811
vn -0.1245 -0.9168 -0.3795
vn -0.1251 -0.8804 -0.4575
vn -0.2192 -0.8100 -0.5438
vn -0.3071 -0.7770 -0.5496
vn -0.2729 -0.7973 -0.5384
vn -0.2973 -0.7506 -0.5901
vn -0.3465 -0.7279 -0.5917
vn -0.3767 -0.7918 -0.4808
vn -0.3309 -0.7813 -0.5292
vn -0.3749 -0.7327 -0.5680
vn -0.4200 -0.7412 -0.5237
vn -0.4846 -0.8091 -0.3326
vn -0.4401 -0.7992 -0.4095
vn -0.4898 -0.7380 -0.4642
vn -0.5548 -0.7271 -0.4044
vn -0.3125 -0.8952 -0.3178
vn -0.4504 -0.8431 -0.2936
vn -0.5584 -0.7293 -0.3954
vn -0.4616 -0.7582 -0.4604
vn -0.3203 -0.7920 -0.5197
vn -0.1747 -0.8227 -0.5410
vn -0.0266 -0.9439 -0.3292
vn -0.1515 -0.9318 -0.3299
vn -0.0541 -0.9523 -0.3003
vn 0.0047 -0.9446 -0.3282
vn -0.0886 -0.8421 -0.5321
vn -0.1089 -0.8484 -0.5180
vn -0.0935 -0.8257 -0.5563
vn 0.0106 -0.8101 -0.5862
vn -0.0159 -0.9425 -0.3338
vn -0.0749 -0.9537 -0.2914
vn -0.0003 -0.8110 -0.5851
vn 0.0299 -0.8105 -0.5850
vn -0.0034 -0.9180 -0.3965
vn 0.0201 -0.9243 -0.3812
vn -0.0427 -0.8085 -0.5869
vn -0.0151 -0.8064 -0.5912
vn 0.0077 -0.9402 -0.3404
vn -0.0275 -0.9229 -0.3840
vn 0.1067 -0.8423 -0.5283
vn 0.0986 -0.8210 -0.5624
vn 0.0574 -0.9477 -0.3138
vn 0.0684 -0.9504 -0.3033
vn 0.0434 -0.9412 -0.3351
vn 0.0100 -0.9410 -0.3383
vn 0.0999 -0.8369 -0.5381
vn 0.1991 -0.8173 -0.5407
vn 0.3343 -0.7900 -0.5140
vn 0.1619 -0.9295 -0.3313
s 1
f 1/1/1 2/2/2 3/3/3 4/4/4
f 2/2/2 5/5/5 6/6/6 3/3/3
f 3/3/3 6/6/6 7/7/7 8/8/8
f 4/4/4 3/3/3 8/8/8 9/9/9
f 10/10/10 11/11/11 12/12/12 13/13/13
f 11/11/11 14/14/14 15/15/15 12/12/12
f 12/12/12 15/15/15 16/16/16 17/17/17
f 13/13/13 12/12/12 17/17/17 18/18/18
f 19/19/19 20/20/20 21/21/21 22/22/22
f 20/20/20 23/23/23 24/24/24 21/21/21
f 21/21/21 24/24/24 25/25/25 26/26/26
f 22/22/22 21/21/21 26/26/26 27/27/27
f 28/28/28 29/29/29 30/30/30 31/31/31
f 29/29/29 32/32/32 33/33/33 30/30/30
f 30/30/30 33/33/33 34/34/34 35/35/35
f 31/31/31 30/30/30 35/35/35 36/36/36
f 32/32/32 29/29/29 37/37/37 38/38/38
f 29/29/29 28/28/28 39/39/39 37/37/37
f 37/37/37 39/39/39 40/40/40 41/41/41
f 38/38/38 37/37/37 41/41/41 42/42/42
f 43/43/43 44/44/44 45/45/45 46/46/46
f 44/44/44 47/47/47 48/48/48 45/45/45
f 45/45/45 48/48/48 42/42/42 41/41/41
f 46/46/46 45/45/45 41/41/41 40/40/40
f 49/49/49 50/50/50 51/51/51 52/52/52
f 50/50/50 53/53/53 54/54/54 51/51/51
f 51/51/51 54/54/54 55/55/55 56/56/56
f 52/52/52 51/51/51 56/56/56 57/57/57
f 58/58/58 59/59/59 60/60/60 61/61/61
f 59/59/59 62/62/62 63/63/63 60/60/60
f 60/60/60 63/63/63 64/64/64 65/65/65
f 61/61/61 60/60/60 65/65/65 66/66/66
f 58/58/58 61/61/61 67/67/67 68/68/68
f 61/61/61 66/66/66 69/69/69 67/67/67
f 67/67/67 69/69/69 70/70/70 71/71/71
f 68/68/68 67/67/67 71/71/71 72/72/72
f 73/73/73 74/74/74 75/75/75 76/76/76
f 74/74/74 77/77/77 78/78/78 75/75/75
f 75/75/75 78/78/78 72/72/72 71/71/71
f 76/76/76 75/75/75 71/71/71 70/70/70
f 77/77/77 74/74/74 79/79/79 80/80/80
f 74/74/74 73/73/73 81/81/81 79/79/79
f 79/79/79 81/81/81 82/82/82 83/83/83
f 80/80/80 79/79/79 83/83/83 84/84/84
f 25/25/25 85/85/85 86/86/86 26/26/26
f 85/85/85 1/1/1 4/4/4 86/86/86
f 86/86/86 4/4/4 9/9/9 87/87/87
f 26/26/26 86/86/86 87/87/87 27/27/27
f 28/28/28 31/31/31 88/88/88 89/89/89
f 31/31/31 36/36/36 90/90/90 88/88/88
f 88/88/88 90/90/90 82/82/82 81/81/81
f 89/89/89 88/88/88 81/81/81 73/73/73
f 40/40/40 39/39/39 91/91/91 92/92/92
f 39/39/39 28/28/28 89/89/89 91/91/91
f 91/91/91 89/89/89 73/73/73 76/76/76
f 92/92/92 91/91/91 76/76/76 70/70/70
f 66/66/66 93/93/93 94/94/94 69/69/69
f 93/93/93 43/43/43 46/46/46 94/94/94
f 94/94/94 46/46/46 40/40/40 92/92/92
f 69/69/69 94/94/94 92/92/92 70/70/70
f 14/14/14 95/95/95 96/96/96 97/97/97
f 95/95/95 98/98/98 99/99/99 96/96/96
f 96/96/96 99/99/99 100/100/100 101/101/101
f 97/97/97 96/96/96 101/101/101 102/102/102
f 16/16/16 15/15/15 103/103/103 104/104/104
f 15/15/15 14/14/14 97/97/97 103/103/103
f 103/103/103 97/97/97 102/102/102 105/105/105
f 104/104/104 103/103/103 105/105/105 106/106/106
f 107/107/107 108/108/108 109/109/109 110/110/110
f 108/108/108 111/111/111 112/112/112 109/109/109
f 109/109/109 112/112/112 113/113/113 114/114/114
f 110/110/110 109/109/109 114/114/114 115/115/115
f 116/116/116 117/117/117 118/118/118 119/119/119
f 117/117/117 120/120/120 121/121/121 118/118/118
f 118/118/118 121/121/121 107/107/107 110/110/110
f 119/119/119 118/118/118 110/110/110 115/115/115
f 120/120/120 117/117/117 122/122/122 123/123/123
f 117/117/117 116/116/116 124/124/124 122/122/122
f 122/122/122 124/124/124 125/125/125 126/126/126
f 123/123/123 122/122/122 126/126/126 127/127/127
f 106/106/106 105/105/105 128/128/128 129/129/129
f 105/105/105 102/102/102 130/130/130 128/128/128
f 128/128/128 130/130/130 131/131/131 132/132/132
f 129/129/129 128/128/128 132/132/132 133/133/133
f 134/134/134 135/135/135 136/136/136 137/137/137
f 135/135/135 138/138/138 139/139/139 136/136/136
f 136/136/136 139/139/139 140/140/140 141/141/141
f 137/137/137 136/136/136 141/141/141 142/142/142
f 143/143/143 144/144/144 145/145/145 146/146/146
f 144/144/144 147/147/147 148/148/148 145/145/145
f 145/145/145 148/148/148 140/140/140 139/139/139
f 146/146/146 145/145/145 139/139/139 138/138/138
f 143/143/143 149/149/149 150/150/150 144/144/144
f 149/149/149 151/151/151 152/152/152 150/150/150
f 150/150/150 152/152/152 153/153/153 154/154/154
f 144/144/144 150/150/150 154/154/154 147/147/147
f 155/155/155 156/156/156 157/157/157 158/158/158
f 156/156/156 159/159/159 160/160/160 157/157/157
f 157/157/157 160/160/160 106/106/106 129/129/129
f 158/158/158 157/157/157 129/129/129 133/133/133
f 161/161/161 162/162/162 163/163/163 164/164/164
f 162/162/162 16/16/16 104/104/104 163/163/163
f 163/163/163 104/104/104 106/106/106 160/160/160
f 164/164/164 163/163/163 160/160/160 159/159/159
f 18/18/18 17/17/17 165/165/165 166/166/166
f 17/17/17 16/16/16 162/162/162 165/165/165
f 165/165/165 162/162/162 161/161/161 167/167/167
f 166/166/166 165/165/165 167/167/167 168/168/168
f 140/140/140 169/169/169 170/170/170 141/141/141
f 169/169/169 120/120/120 123/123/123 170/170/170
f 170/170/170 123/123/123 127/127/127 171/171/171
f 141/141/141 170/170/170 171/171/171 142/142/142
f 107/107/107 121/121/121 172/172/172 173/173/173
f 121/121/121 120/120/120 169/169/169 172/172/172
f 172/172/172 169/169/169 140/140/140 148/148/148
f 173/173/173 172/172/172 148/148/148 147/147/147
f 111/111/111 108/108/108 174/174/174 175/175/175
f 108/108/108 107/107/107 173/173/173 174/174/174
f 174/174/174 173/173/173 147/147/147 154/154/154
f 175/175/175 174/174/174 154/154/154 153/153/153
f 25/25/25 24/24/24 176/176/176 177/177/177
f 24/24/24 23/23/23 178/178/178 176/176/176
f 176/176/176 178/178/178 84/84/84 83/83/83
f 177/177/177 176/176/176 83/83/83 82/82/82
f 5/5/5 2/2/2 179/179/179 180/180/180
f 2/2/2 1/1/1 181/181/181 179/179/179
f 179/179/179 181/181/181 36/36/36 35/35/35
f 180/180/180 179/179/179 35/35/35 34/34/34
f 125/125/125 124/124/124 182/182/182 183/183/183
f 124/124/124 116/116/116 184/184/184 182/182/182
f 182/182/182 184/184/184 9/9/9 8/8/8
f 183/183/183 182/182/182 8/8/8 7/7/7
f 27/27/27 87/87/87 185/185/185 186/186/186
f 87/87/87 9/9/9 184/184/184 185/185/185
f 185/185/185 184/184/184 116/116/116 119/119/119
f 186/186/186 185/185/185 119/119/119 115/115/115
f 115/115/115 114/114/114 187/187/187 186/186/186
f 114/114/114 113/113/113 188/188/188 187/187/187
f 187/187/187 188/188/188 19/19/19 22/22/22
f 186/186/186 187/187/187 22/22/22 27/27/27
f 189/189/189 190/190/190 191/191/191 192/192/192
f 190/190/190 193/193/193 194/194/194 191/191/191
f 191/191/191 194/194/194 195/195/195 196/196/196
f 192/192/192 191/191/191 196/196/196 197/197/197
f 197/197/197 196/196/196 198/198/198 199/199/199
f 196/196/196 195/195/195 200/200/200 198/198/198
f 198/198/198 200/200/200 201/201/201 202/202/202
f 199/199/199 198/198/198 202/202/202 203/203/203
f 201/201/201 204/204/204 205/205/205 202/202/202
f 204/204/204 206/206/206 207/207/207 205/205/205
f 205/205/205 207/207/207 208/208/208 209/209/209
f 202/202/202 205/205/205 209/209/209 203/203/203
f 210/210/210 211/211/211 212/212/212 213/213/213
f 211/211/211 189/189/189 192/192/192 212/212/212
f 212/212/212 192/192/192 197/197/197 214/214/214
f 213/213/213 212/212/212 214/214/214 215/215/215
f 215/215/215 214/214/214 216/216/216 217/217/217
f 214/214/214 197/197/197 199/199/199 216/216/216
f 216/216/216 199/199/199 203/203/203 218/218/218
f 217/217/217 216/216/216 218/218/218 219/219/219
f 220/220/220 221/221/221 222/222/222 223/223/223
f 221/221/221 100/100/100 224/224/224 222/222/222
f 222/222/222 224/224/224 225/225/225 226/226/226
f 223/223/223 222/222/222 226/226/226 227/227/227
f 100/100/100 99/99/99 228/228/228 224/224/224
f 99/99/99 98/98/98 229/229/229 228/228/228
f 228/228/228 229/229/229 230/230/230 231/231/231
f 224/224/224 228/228/228 231/231/231 225/225/225
f 98/98/98 232/232/232 233/233/233 229/229/229
f 232/232/232 234/234/234 235/235/235 233/233/233
f 233/233/233 235/235/235 236/236/236 237/237/237
f 229/229/229 233/233/233 237/237/237 230/230/230
f 238/238/238 239/239/239 240/240/240 241/241/241
f 239/239/239 227/227/227 226/226/226 240/240/240
f 240/240/240 226/226/226 225/225/225 242/242/242
f 241/241/241 240/240/240 242/242/242 243/243/243
f 243/243/243 242/242/242 244/244/244 245/245/245
f 242/242/242 225/225/225 231/231/231 244/244/244
f 244/244/244 231/231/231 230/230/230 246/246/246
f 245/245/245 244/244/244 246/246/246 247/247/247
f 247/247/247 246/246/246 248/248/248 249/249/249
f 246/246/246 230/230/230 237/237/237 248/248/248
f 248/248/248 237/237/237 236/236/236 250/250/250
f 249/249/249 248/248/248 250/250/250 251/251/251
f 25/25/25 177/177/177 252/252/252 85/85/85
f 177/177/177 82/82/82 90/90/90 252/252/252
f 252/252/252 90/90/90 36/36/36 181/181/181
f 85/85/85 252/252/252 181/181/181 1/1/1
f 247/247/247 253/253/253 254/254/254 245/245/245
f 253/253/253 215/215/215 217/217/217 254/254/254
f 254/254/254 217/217/217 219/219/219 255/255/255
f 245/245/245 254/254/254 255/255/255 243/243/243
f 251/251/251 256/256/256 257/257/257 249/249/249
f 256/256/256 210/210/210 213/213/213 257/257/257
f 257/257/257 213/213/213 215/215/215 253/253/253
f 249/249/249 257/257/257 253/253/253 247/247/247
f 238/238/238 241/241/241 258/258/258 259/259/259
f 241/241/241 243/243/243 255/255/255 258/258/258
f 258/258/258 255/255/255 219/219/219 260/260/260
f 259/259/259 258/258/258 260/260/260 261/261/261
f 208/208/208 262/262/262 263/263/263 209/209/209
f 262/262/262 261/261/261 260/260/260 263/263/263
f 263/263/263 260/260/260 219/219/219 218/218/218
f 209/209/209 263/263/263 218/218/218 203/203/203
f 53/53/53 264/264/264 265/265/265 54/54/54
f 264/264/264 195/195/195 194/194/194 265/265/265
f 265/265/265 194/194/194 193/193/193 266/266/266
f 54/54/54 265/265/265 266/266/266 55/55/55
f 267/267/267 268/268/268 269/269/269 270/270/270
f 268/268/268 201/201/201 200/200/200 269/269/269
f 269/269/269 200/200/200 195/195/195 264/264/264
f 270/270/270 269/269/269 264/264/264 53/53/53
f 271/271/271 272/272/272 273/273/273 274/274/274
f 272/272/272 206/206/206 204/204/204 273/273/273
f 273/273/273 204/204/204 201/201/201 268/268/268
f 274/274/274 273/273/273 268/268/268 267/267/267
f 64/64/64 275/275/275 276/276/276 277/277/277
f 275/275/275 267/267/267 270/270/270 276/276/276
f 276/276/276 270/270/270 53/53/53 50/50/50
f 277/277/277 276/276/276 50/50/50 49/49/49
f 62/62/62 278/278/278 279/279/279 63/63/63
f 278/278/278 271/271/271 274/274/274 279/279/279
f 279/279/279 274/274/274 267/267/267 275/275/275
f 63/63/63 279/279/279 275/275/275 64/64/64
f 14/14/14 11/11/11 280/280/280 95/95/95
f 11/11/11 10/10/10 281/281/281 280/280/280
f 280/280/280 281/281/281 234/234/234 232/232/232
f 95/95/95 280/280/280 232/232/232 98/98/98
f 131/131/131 130/130/130 282/282/282 283/283/283
f 130/130/130 102/102/102 101/101/101 282/282/282
f 282/282/282 101/101/101 100/100/100 221/221/221
f 283/283/283 282/282/282 221/221/221 220/220/220
f 284/284/284 285/285/285 286/286/286 287/287/287
f 285/285/285 288/288/288 289/289/289 286/286/286
f 286/286/286 289/289/289 290/290/290 291/291/291
f 287/287/287 286/286/286 291/291/291 292/292/292
f 293/293/293 294/294/294 295/295/295 296/296/296
f 294/294/294 297/297/297 298/298/298 295/295/295
f 295/295/295 298/298/298 299/299/299 300/300/300
f 296/296/296 295/295/295 300/300/300 301/301/301
f 302/302/302 303/303/303 304/304/304 305/305/305
f 303/303/303 306/306/306 307/307/307 304/304/304
f 304/304/304 307/307/307 308/308/308 309/309/309
f 305/305/305 304/304/304 309/309/309 310/310/310
f 311/311/311 312/312/312 313/313/313 314/314/314
f 312/312/312 315/315/315 316/316/316 313/313/313
f 313/313/313 316/316/316 317/317/317 318/318/318
f 314/314/314 313/313/313 318/318/318 319/319/319
f 319/319/319 320/320/320 321/321/321 314/314/314
f 320/320/320 322/322/322 323/323/323 321/321/321
f 321/321/321 323/323/323 324/324/324 325/325/325
f 314/314/314 321/321/321 325/325/325 311/311/311
f 326/326/326 327/327/327 328/328/328 329/329/329
f 327/327/327 330/330/330 331/331/331 328/328/328
f 328/328/328 331/331/331 332/332/332 333/333/333
f 329/329/329 328/328/328 333/333/333 334/334/334
f 326/326/326 329/329/329 335/335/335 336/336/336
f 329/329/329 334/334/334 337/337/337 335/335/335
f 335/335/335 337/337/337 338/338/338 339/339/339
f 336/336/336 335/335/335 339/339/339 340/340/340
f 341/341/341 342/342/342 343/343/343 344/344/344
f 342/342/342 345/345/345 346/346/346 343/343/343
f 343/343/343 346/346/346 347/347/347 348/348/348
f 344/344/344 343/343/343 348/348/348 349/349/349
f 350/350/350 351/351/351 352/352/352 353/353/353
f 351/351/351 354/354/354 355/355/355 352/352/352
f 352/352/352 355/355/355 356/356/356 357/357/357
f 353/353/353 352/352/352 357/357/357 358/358/358
f 358/358/358 359/359/359 360/360/360 353/353/353
f 359/359/359 361/361/361 362/362/362 360/360/360
f 360/360/360 362/362/362 363/363/363 364/364/364
f 353/353/353 360/360/360 364/364/364 350/350/350
f 308/308/308 307/307/307 365/365/365 366/366/366
f 307/307/307 306/306/306 367/367/367 365/365/365
f 365/365/365 367/367/367 288/288/288 285/285/285
f 366/366/366 365/365/365 285/285/285 284/284/284
f 311/311/311 368/368/368 369/369/369 312/312/312
f 368/368/368 350/350/350 364/364/364 369/369/369
f 369/369/369 364/364/364 363/363/363 370/370/370
f 312/312/312 369/369/369 370/370/370 315/315/315
f 324/324/324 371/371/371 372/372/372 325/325/325
f 371/371/371 354/354/354 351/351/351 372/372/372
f 372/372/372 351/351/351 350/350/350 368/368/368
f 325/325/325 372/372/372 368/368/368 311/311/311
f 326/326/326 373/373/373 374/374/374 327/327/327
f 373/373/373 347/347/347 346/346/346 374/374/374
f 374/374/374 346/346/346 345/345/345 375/375/375
f 327/327/327 374/374/374 375/375/375 330/330/330
f 301/301/301 376/376/376 377/377/377 378/378/378
f 376/376/376 379/379/379 380/380/380 377/377/377
f 377/377/377 380/380/380 381/381/381 382/382/382
f 378/378/378 377/377/377 382/382/382 383/383/383
f 299/299/299 384/384/384 385/385/385 300/300/300
f 384/384/384 386/386/386 387/387/387 385/385/385
f 385/385/385 387/387/387 379/379/379 376/376/376
f 300/300/300 385/385/385 376/376/376 301/301/301
f 388/388/388 389/389/389 390/390/390 391/391/391
f 389/389/389 392/392/392 393/393/393 390/390/390
f 390/390/390 393/393/393 394/394/394 395/395/395
f 391/391/391 390/390/390 395/395/395 396/396/396
f 397/397/397 398/398/398 399/399/399 400/400/400
f 398/398/398 392/392/392 389/389/389 399/399/399
f 399/399/399 389/389/389 388/388/388 401/401/401
f 400/400/400 399/399/399 401/401/401 402/402/402
f 402/402/402 403/403/403 404/404/404 400/400/400
f 403/403/403 405/405/405 406/406/406 404/404/404
f 404/404/404 406/406/406 407/407/407 408/408/408
f 400/400/400 404/404/404 408/408/408 397/397/397
f 386/386/386 409/409/409 410/410/410 387/387/387
f 409/409/409 411/411/411 412/412/412 410/410/410
f 410/410/410 412/412/412 413/413/413 414/414/414
f 387/387/387 410/410/410 414/414/414 379/379/379
f 134/134/134 415/415/415 416/416/416 135/135/135
f 415/415/415 417/417/417 418/418/418 416/416/416
f 416/416/416 418/418/418 419/419/419 420/420/420
f 135/135/135 416/416/416 420/420/420 138/138/138
f 143/143/143 146/146/146 421/421/421 422/422/422
f 146/146/146 138/138/138 420/420/420 421/421/421
f 421/421/421 420/420/420 419/419/419 423/423/423
f 422/422/422 421/421/421 423/423/423 424/424/424
f 143/143/143 422/422/422 425/425/425 149/149/149
f 422/422/422 424/424/424 426/426/426 425/425/425
f 425/425/425 426/426/426 427/427/427 428/428/428
f 149/149/149 425/425/425 428/428/428 151/151/151
f 155/155/155 429/429/429 430/430/430 156/156/156
f 429/429/429 411/411/411 409/409/409 430/430/430
f 430/430/430 409/409/409 386/386/386 431/431/431
f 156/156/156 430/430/430 431/431/431 159/159/159
f 161/161/161 164/164/164 432/432/432 433/433/433
f 164/164/164 159/159/159 431/431/431 432/432/432
f 432/432/432 431/431/431 386/386/386 384/384/384
f 433/433/433 432/432/432 384/384/384 299/299/299
f 297/297/297 434/434/434 435/435/435 298/298/298
f 434/434/434 168/168/168 167/167/167 435/435/435
f 435/435/435 167/167/167 161/161/161 433/433/433
f 298/298/298 435/435/435 433/433/433 299/299/299
f 419/419/419 418/418/418 436/436/436 437/437/437
f 418/418/418 417/417/417 438/438/438 436/436/436
f 436/436/436 438/438/438 405/405/405 403/403/403
f 437/437/437 436/436/436 403/403/403 402/402/402
f 388/388/388 439/439/439 440/440/440 401/401/401
f 439/439/439 424/424/424 423/423/423 440/440/440
f 440/440/440 423/423/423 419/419/419 437/437/437
f 401/401/401 440/440/440 437/437/437 402/402/402
f 396/396/396 441/441/441 442/442/442 391/391/391
f 441/441/441 427/427/427 426/426/426 442/442/442
f 442/442/442 426/426/426 424/424/424 439/439/439
f 391/391/391 442/442/442 439/439/439 388/388/388
f 308/308/308 443/443/443 444/444/444 309/309/309
f 443/443/443 363/363/363 362/362/362 444/444/444
f 444/444/444 362/362/362 361/361/361 445/445/445
f 309/309/309 444/444/444 445/445/445 310/310/310
f 292/292/292 446/446/446 447/447/447 287/287/287
f 446/446/446 317/317/317 316/316/316 447/447/447
f 447/447/447 316/316/316 315/315/315 448/448/448
f 287/287/287 447/447/447 448/448/448 284/284/284
f 407/407/407 449/449/449 450/450/450 408/408/408
f 449/449/449 290/290/290 289/289/289 450/450/450
f 450/450/450 289/289/289 288/288/288 451/451/451
f 408/408/408 450/450/450 451/451/451 397/397/397
f 306/306/306 452/452/452 453/453/453 367/367/367
f 452/452/452 392/392/392 398/398/398 453/453/453
f 453/453/453 398/398/398 397/397/397 451/451/451
f 367/367/367 453/453/453 451/451/451 288/288/288
f 392/392/392 452/452/452 454/454/454 393/393/393
f 452/452/452 306/306/306 303/303/303 454/454/454
f 454/454/454 303/303/303 302/302/302 455/455/455
f 393/393/393 454/454/454 455/455/455 394/394/394
f 456/456/456 457/457/457 458/458/458 459/459/459
f 457/457/457 460/460/460 461/461/461 458/458/458
f 458/458/458 461/461/461 462/462/462 463/463/463
f 459/459/459 458/458/458 463/463/463 464/464/464
f 460/460/460 465/465/465 466/466/466 461/461/461
f 465/465/465 467/467/467 468/468/468 466/466/466
f 466/466/466 468/468/468 469/469/469 470/470/470
f 461/461/461 466/466/466 470/470/470 462/462/462
f 469/469/469 468/468/468 471/471/471 472/472/472
f 468/468/468 467/467/467 473/473/473 471/471/471
f 471/471/471 473/473/473 474/474/474 475/475/475
f 472/472/472 471/471/471 475/475/475 476/476/476
f 477/477/477 478/478/478 479/479/479 480/480/480
f 478/478/478 481/481/481 482/482/482 479/479/479
f 479/479/479 482/482/482 460/460/460 457/457/457
f 480/480/480 479/479/479 457/457/457 456/456/456
f 481/481/481 483/483/483 484/484/484 482/482/482
f 483/483/483 485/485/485 486/486/486 484/484/484
f 484/484/484 486/486/486 467/467/467 465/465/465
f 482/482/482 484/484/484 465/465/465 460/460/460
f 487/487/487 488/488/488 489/489/489 490/490/490
f 488/488/488 491/491/491 492/492/492 489/489/489
f 489/489/489 492/492/492 493/493/493 494/494/494
f 490/490/490 489/489/489 494/494/494 381/381/381
f 381/381/381 494/494/494 495/495/495 382/382/382
f 494/494/494 493/493/493 496/496/496 495/495/495
f 495/495/495 496/496/496 497/497/497 498/498/498
f 382/382/382 495/495/495 498/498/498 383/383/383
f 383/383/383 498/498/498 499/499/499 500/500/500
f 498/498/498 497/497/497 501/501/501 499/499/499
f 499/499/499 501/501/501 502/502/502 503/503/503
f 500/500/500 499/499/499 503/503/503 504/504/504
f 505/505/505 506/506/506 507/507/507 508/508/508
f 506/506/506 509/509/509 510/510/510 507/507/507
f 507/507/507 510/510/510 493/493/493 492/492/492
f 508/508/508 507/507/507 492/492/492 491/491/491
f 509/509/509 511/511/511 512/512/512 510/510/510
f 511/511/511 513/513/513 514/514/514 512/512/512
f 512/512/512 514/514/514 497/497/497 496/496/496
f 510/510/510 512/512/512 496/496/496 493/493/493
f 513/513/513 515/515/515 516/516/516 514/514/514
f 515/515/515 517/517/517 518/518/518 516/516/516
f 516/516/516 518/518/518 502/502/502 501/501/501
f 514/514/514 516/516/516 501/501/501 497/497/497
f 308/308/308 366/366/366 519/519/519 443/443/443
f 366/366/366 284/284/284 448/448/448 519/519/519
f 519/519/519 448/448/448 315/315/315 370/370/370
f 443/443/443 519/519/519 370/370/370 363/363/363
f 513/513/513 511/511/511 520/520/520 521/521/521
f 511/511/511 509/509/509 522/522/522 520/520/520
f 520/520/520 522/522/522 485/485/485 483/483/483
f 521/521/521 520/520/520 483/483/483 481/481/481
f 517/517/517 515/515/515 523/523/523 524/524/524
f 515/515/515 513/513/513 521/521/521 523/523/523
f 523/523/523 521/521/521 481/481/481 478/478/478
f 524/524/524 523/523/523 478/478/478 477/477/477
f 505/505/505 525/525/525 526/526/526 506/506/506
f 525/525/525 527/527/527 528/528/528 526/526/526
f 526/526/526 528/528/528 485/485/485 522/522/522
f 506/506/506 526/526/526 522/522/522 509/509/509
f 474/474/474 473/473/473 529/529/529 530/530/530
f 473/473/473 467/467/467 486/486/486 529/529/529
f 529/529/529 486/486/486 485/485/485 528/528/528
f 530/530/530 529/529/529 528/528/528 527/527/527
f 340/340/340 339/339/339 531/531/531 532/532/532
f 339/339/339 338/338/338 533/533/533 531/531/531
f 531/531/531 533/533/533 464/464/464 463/463/463
f 532/532/532 531/531/531 463/463/463 462/462/462
f 534/534/534 535/535/535 536/536/536 537/537/537
f 535/535/535 340/340/340 532/532/532 536/536/536
f 536/536/536 532/532/532 462/462/462 470/470/470
f 537/537/537 536/536/536 470/470/470 469/469/469
f 538/538/538 539/539/539 540/540/540 541/541/541
f 539/539/539 534/534/534 537/537/537 540/540/540
f 540/540/540 537/537/537 469/469/469 472/472/472
f 541/541/541 540/540/540 472/472/472 476/476/476
f 347/347/347 373/373/373 542/542/542 543/543/543
f 373/373/373 326/326/326 336/336/336 542/542/542
f 542/542/542 336/336/336 340/340/340 535/535/535
f 543/543/543 542/542/542 535/535/535 534/534/534
f 349/349/349 348/348/348 544/544/544 545/545/545
f 348/348/348 347/347/347 543/543/543 544/544/544
f 544/544/544 543/543/543 534/534/534 539/539/539
f 545/545/545 544/544/544 539/539/539 538/538/538
f 301/301/301 378/378/378 546/546/546 296/296/296
f 378/378/378 383/383/383 500/500/500 546/546/546
f 546/546/546 500/500/500 504/504/504 547/547/547
f 296/296/296 546/546/546 547/547/547 293/293/293
f 413/413/413 548/548/548 549/549/549 414/414/414
f 548/548/548 487/487/487 490/490/490 549/549/549
f 549/549/549 490/490/490 381/381/381 380/380/380
f 414/414/414 549/549/549 380/380/380 379/379/379
f 345/345/345 342/342/342 550/550/550 551/551/551
f 342/342/342 341/341/341 552/552/552 550/550/550
f 550/550/550 552/552/552 356/356/356 355/355/355
f 551/551/551 550/550/550 355/355/355 354/354/354
f 330/330/330 375/375/375 553/553/553 554/554/554
f 375/375/375 345/345/345 551/551/551 553/553/553
f 553/553/553 551/551/551 354/354/354 371/371/371
f 554/554/554 553/553/553 371/371/371 324/324/324
f 332/332/332 331/331/331 555/555/555 556/556/556
f 331/331/331 330/330/330 554/554/554 555/555/555
f 555/555/555 554/554/554 324/324/324 323/323/323
f 556/556/556 555/555/555 323/323/323 322/322/322
f 49/49/49 557/557/557 558/558/558 277/277/277
f 557/557/557 43/43/43 93/93/93 558/558/558
f 558/558/558 93/93/93 66/66/66 65/65/65
f 277/277/277 558/558/558 65/65/65 64/64/64
f 49/49/49 52/52/52 559/559/559 557/557/557
f 52/52/52 57/57/57 560/560/560 559/559/559
f 559/559/559 560/560/560 47/47/47 44/44/44
f 557/557/557 559/559/559 44/44/44 43/43/43
f 561/561/561 562/562/562 563/563/563 564/564/564
f 562/562/562 7/7/7 6/6/6 563/563/563
f 563/563/563 6/6/6 5/5/5 565/565/565
f 564/564/564 563/563/563 565/565/565 566/566/566
f 567/567/567 568/568/568 569/569/569 570/570/570
f 568/568/568 566/566/566 565/565/565 569/569/569
f 569/569/569 565/565/565 5/5/5 180/180/180
f 570/570/570 569/569/569 180/180/180 34/34/34
f 571/571/571 572/572/572 573/573/573 574/574/574
f 572/572/572 567/567/567 570/570/570 573/573/573
f 573/573/573 570/570/570 34/34/34 33/33/33
f 574/574/574 573/573/573 33/33/33 32/32/32
f 575/575/575 576/576/576 577/577/577 578/578/578
f 576/576/576 571/571/571 574/574/574 577/577/577
f 577/577/577 574/574/574 32/32/32 38/38/38
f 578/578/578 577/577/577 38/38/38 42/42/42
f 47/47/47 579/579/579 580/580/580 48/48/48
f 579/579/579 581/581/581 582/582/582 580/580/580
f 580/580/580 582/582/582 575/575/575 578/578/578
f 48/48/48 580/580/580 578/578/578 42/42/42
f 583/583/583 584/584/584 585/585/585 586/586/586
f 584/584/584 581/581/581 579/579/579 585/585/585
f 585/585/585 579/579/579 47/47/47 560/560/560
f 586/586/586 585/585/585 560/560/560 57/57/57
f 57/57/57 56/56/56 587/587/587 586/586/586
f 56/56/56 55/55/55 588/588/588 587/587/587
f 587/587/587 588/588/588 589/589/589 590/590/590
f 586/586/586 587/587/587 590/590/590 583/583/583
f 55/55/55 266/266/266 591/591/591 588/588/588
f 266/266/266 193/193/193 592/592/592 591/591/591
f 591/591/591 592/592/592 593/593/593 594/594/594
f 588/588/588 591/591/591 594/594/594 589/589/589
f 595/595/595 596/596/596 597/597/597 598/598/598
f 596/596/596 593/593/593 592/592/592 597/597/597
f 597/597/597 592/592/592 193/193/193 190/190/190
f 598/598/598 597/597/597 190/190/190 189/189/189
f 599/599/599 600/600/600 601/601/601 602/602/602
f 600/600/600 595/595/595 598/598/598 601/601/601
f 601/601/601 598/598/598 189/189/189 211/211/211
f 602/602/602 601/601/601 211/211/211 210/210/210
f 210/210/210 256/256/256 603/603/603 602/602/602
f 256/256/256 251/251/251 604/604/604 603/603/603
f 603/603/603 604/604/604 605/605/605 606/606/606
f 602/602/602 603/603/603 606/606/606 599/599/599
f 251/251/251 250/250/250 607/607/607 604/604/604
f 250/250/250 236/236/236 608/608/608 607/607/607
f 607/607/607 608/608/608 609/609/609 610/610/610
f 604/604/604 607/607/607 610/610/610 605/605/605
f 236/236/236 235/235/235 611/611/611 608/608/608
f 235/235/235 234/234/234 612/612/612 611/611/611
f 611/611/611 612/612/612 613/613/613 614/614/614
f 608/608/608 611/611/611 614/614/614 609/609/609
f 234/234/234 281/281/281 615/615/615 612/612/612
f 281/281/281 10/10/10 616/616/616 615/615/615
f 615/615/615 616/616/616 617/617/617 618/618/618
f 612/612/612 615/615/615 618/618/618 613/613/613
f 10/10/10 13/13/13 619/619/619 616/616/616
f 13/13/13 18/18/18 620/620/620 619/619/619
f 619/619/619 620/620/620 621/621/621 622/622/622
f 616/616/616 619/619/619 622/622/622 617/617/617
f 168/168/168 623/623/623 624/624/624 166/166/166
f 623/623/623 625/625/625 626/626/626 624/624/624
f 624/624/624 626/626/626 621/621/621 620/620/620
f 166/166/166 624/624/624 620/620/620 18/18/18
f 168/168/168 434/434/434 627/627/627 623/623/623
f 434/434/434 297/297/297 628/628/628 627/627/627
f 627/627/627 628/628/628 629/629/629 630/630/630
f 623/623/623 627/627/627 630/630/630 625/625/625
f 293/293/293 631/631/631 632/632/632 294/294/294
f 631/631/631 633/633/633 634/634/634 632/632/632
f 632/632/632 634/634/634 629/629/629 628/628/628
f 294/294/294 632/632/632 628/628/628 297/297/297
f 504/504/504 635/635/635 636/636/636 547/547/547
f 635/635/635 637/637/637 638/638/638 636/636/636
f 636/636/636 638/638/638 633/633/633 631/631/631
f 547/547/547 636/636/636 631/631/631 293/293/293
f 502/502/502 639/639/639 640/640/640 503/503/503
f 639/639/639 641/641/641 642/642/642 640/640/640
f 640/640/640 642/642/642 637/637/637 635/635/635
f 503/503/503 640/640/640 635/635/635 504/504/504
f 517/517/517 643/643/643 644/644/644 518/518/518
f 643/643/643 645/645/645 646/646/646 644/644/644
f 644/644/644 646/646/646 641/641/641 639/639/639
f 518/518/518 644/644/644 639/639/639 502/502/502
f 477/477/477 647/647/647 648/648/648 524/524/524
f 647/647/647 649/649/649 650/650/650 648/648/648
f 648/648/648 650/650/650 645/645/645 643/643/643
f 524/524/524 648/648/648 643/643/643 517/517/517
f 651/651/651 652/652/652 653/653/653 654/654/654
f 652/652/652 649/649/649 647/647/647 653/653/653
f 653/653/653 647/647/647 477/477/477 480/480/480
f 654/654/654 653/653/653 480/480/480 456/456/456
f 655/655/655 656/656/656 657/657/657 658/658/658
f 656/656/656 651/651/651 654/654/654 657/657/657
f 657/657/657 654/654/654 456/456/456 459/459/459
f 658/658/658 657/657/657 459/459/459 464/464/464
f 338/338/338 659/659/659 660/660/660 533/533/533
f 659/659/659 661/661/661 662/662/662 660/660/660
f 660/660/660 662/662/662 655/655/655 658/658/658
f 533/533/533 660/660/660 658/658/658 464/464/464
f 334/334/334 663/663/663 664/664/664 337/337/337
f 663/663/663 665/665/665 666/666/666 664/664/664
f 664/664/664 666/666/666 661/661/661 659/659/659
f 337/337/337 664/664/664 659/659/659 338/338/338
f 667/667/667 668/668/668 669/669/669 670/670/670
f 668/668/668 665/665/665 663/663/663 669/669/669
f 669/669/669 663/663/663 334/334/334 333/333/333
f 670/670/670 669/669/669 333/333/333 332/332/332
f 671/671/671 672/672/672 673/673/673 674/674/674
f 672/672/672 667/667/667 670/670/670 673/673/673
f 673/673/673 670/670/670 332/332/332 556/556/556
f 674/674/674 673/673/673 556/556/556 322/322/322
f 675/675/675 676/676/676 677/677/677 678/678/678
f 676/676/676 671/671/671 674/674/674 677/677/677
f 677/677/677 674/674/674 322/322/322 320/320/320
f 678/678/678 677/677/677 320/320/320 319/319/319
f 679/679/679 680/680/680 681/681/681 682/682/682
f 680/680/680 675/675/675 678/678/678 681/681/681
f 681/681/681 678/678/678 319/319/319 318/318/318
f 682/682/682 681/681/681 318/318/318 317/317/317
f 683/683/683 684/684/684 685/685/685 686/686/686
f 684/684/684 679/679/679 682/682/682 685/685/685
f 685/685/685 682/682/682 317/317/317 446/446/446
f 686/686/686 685/685/685 446/446/446 292/292/292
f 687/687/687 688/688/688 689/689/689 690/690/690
f 688/688/688 683/683/683 686/686/686 689/689/689
f 689/689/689 686/686/686 292/292/292 291/291/291
f 690/690/690 689/689/689 291/291/291 290/290/290
f 290/290/290 449/449/449 691/691/691 690/690/690
f 449/449/449 407/407/407 692/692/692 691/691/691
f 691/691/691 692/692/692 693/693/693 694/694/694
f 690/690/690 691/691/691 694/694/694 687/687/687
f 695/695/695 696/696/696 697/697/697 698/698/698
f 696/696/696 693/693/693 692/692/692 697/697/697
f 697/697/697 692/692/692 407/407/407 406/406/406
f 698/698/698 697/697/697 406/406/406 405/405/405
f 405/405/405 438/438/438 699/699/699 698/698/698
f 438/438/438 417/417/417 700/700/700 699/699/699
f 699/699/699 700/700/700 701/701/701 702/702/702
f 698/698/698 699/699/699 702/702/702 695/695/695
f 134/134/134 703/703/703 704/704/704 415/415/415
f 703/703/703 705/705/705 706/706/706 704/704/704
f 704/704/704 706/706/706 701/701/701 700/700/700
f 415/415/415 704/704/704 700/700/700 417/417/417
f 134/134/134 137/137/137 707/707/707 703/703/703
f 137/137/137 142/142/142 708/708/708 707/707/707
f 707/707/707 708/708/708 709/709/709 710/710/710
f 703/703/703 707/707/707 710/710/710 705/705/705
f 127/127/127 711/711/711 712/712/712 171/171/171
f 711/711/711 713/713/713 714/714/714 712/712/712
f 712/712/712 714/714/714 709/709/709 708/708/708
f 171/171/171 712/712/712 708/708/708 142/142/142
f 715/715/715 716/716/716 717/717/717 718/718/718
f 716/716/716 713/713/713 711/711/711 717/717/717
f 717/717/717 711/711/711 127/127/127 126/126/126
f 718/718/718 717/717/717 126/126/126 125/125/125
f 7/7/7 562/562/562 719/719/719 183/183/183
f 562/562/562 561/561/561 720/720/720 719/719/719
f 719/719/719 720/720/720 715/715/715 718/718/718
f 183/183/183 719/719/719 718/718/718 125/125/125
