# Blender v3.1.0 Alpha OBJ File: 'untitled.blend'
# www.blender.org
o new_mouth
v 18.564318 38.577511 4.274792
v 18.367205 37.349949 4.224252
v 17.125368 37.882305 3.041251
v 17.273500 39.321980 3.145287
v 18.087593 36.225494 4.396576
v 16.846581 36.552399 3.229721
v 15.544005 36.796040 1.979352
v 15.863081 38.353886 1.721811
v 15.967630 40.026546 1.880803
v 8.372322 31.409443 -4.721397
v 9.198135 29.905825 -6.722645
v 7.207590 30.080032 -8.222708
v 6.334604 31.568340 -5.909219
v 9.832100 28.151478 -8.163113
v 7.844460 28.056707 -9.839637
v 5.397354 28.298782 -11.452548
v 5.018912 30.549757 -9.639538
v 4.344120 32.003307 -7.028893
v 15.817636 47.624641 4.391006
v 17.662453 46.359909 5.015504
v 17.234753 43.328487 4.332616
v 15.563513 44.142956 3.444933
v 19.352379 44.872147 5.690429
v 18.826984 42.336582 5.228389
v 18.769941 41.099880 4.923880
v 17.272865 42.072674 3.969244
v 15.714723 42.977310 3.020758
v 22.661995 35.961891 8.109666
v 22.368338 35.361324 8.106905
v 21.544724 35.754711 7.317780
v 21.851858 36.509418 7.362740
v 22.079845 34.855656 8.198306
v 21.233585 35.130470 7.420002
v 20.277979 35.466187 6.509774
v 20.575760 36.217384 6.360784
v 20.868095 37.117798 6.405168
v 23.063332 34.972477 8.713618
v 22.787931 34.591187 8.806632
v 23.371042 35.431057 8.690238
v 23.960917 34.950691 9.131353
v 23.624144 34.616688 9.162045
v 23.344498 34.347042 9.255315
v 24.608297 34.315792 9.583123
v 24.242970 34.161995 9.633623
v 24.006237 34.347393 9.455770
v 24.363844 34.581635 9.418108
v 23.945581 34.046143 9.741828
v 23.715811 34.166542 9.553472
v 24.815138 33.974323 9.686996
v 24.831255 33.825001 9.598901
v 24.474205 33.839535 9.721573
v 24.462265 33.939034 9.781201
v 24.758440 33.686424 9.369618
v 24.393040 33.746536 9.527183
v 24.068855 33.779522 9.705458
v 24.164461 33.840527 9.876045
v 24.163328 33.905701 9.918607
v 27.816830 34.676617 10.258918
v 28.056757 33.792198 10.177256
v 26.782345 34.419048 9.929992
v 26.603664 34.934628 9.955745
v 28.135780 32.957939 9.960526
v 26.836803 33.936337 9.786715
v 25.908131 34.026302 9.661895
v 25.865656 34.357208 9.741540
v 25.728106 34.726234 9.718525
v 26.262575 35.508301 9.871875
v 27.392241 35.605385 10.212708
v 25.441198 35.171768 9.598809
v 24.941851 35.731697 9.336568
v 25.704624 36.194340 9.635232
v 26.741938 36.663368 10.002506
v 23.290461 37.205902 8.359882
v 23.799618 37.936550 8.619199
v 24.848890 37.032040 9.202217
v 24.182472 36.433243 8.904327
v 24.714985 39.198372 8.989562
v 25.827337 37.916050 9.592998
v 22.727606 38.899689 7.919549
v 23.500160 40.428692 8.214544
v 22.376007 38.035698 7.704993
v 21.341885 39.012520 6.862316
v 21.577738 40.014969 7.077232
v 22.210302 41.756802 7.357001
v 18.703333 39.869213 4.548383
v 17.320856 40.767712 3.494281
v 15.894398 41.644726 2.379110
v 22.123354 37.290253 7.511234
v 22.953533 36.587494 8.195838
v 21.136671 38.094761 6.616910
v 23.723801 35.924503 8.746182
v 24.380615 35.328354 9.178961
v 25.082720 34.510826 9.602437
v 24.823896 34.862148 9.456105
v 11.600245 28.457188 -6.593404
v 11.989558 27.006279 -7.408419
v 10.253534 26.483395 -9.014913
v 13.227503 28.896015 -5.181901
v 13.595123 27.587759 -5.952042
v 13.751702 26.218433 -6.320934
v 12.096622 25.676136 -7.759252
v 10.298635 25.219683 -9.332847
v 8.344273 26.021578 -10.668367
v 5.808344 25.958427 -12.156832
v 8.347871 24.804287 -10.849216
v 5.792608 24.765663 -12.031914
v 8.712449 45.673923 -1.020328
v 8.474903 46.733986 0.174529
v 10.645761 46.065495 0.666145
v 10.719651 45.267967 -0.267722
v 8.429736 50.613701 1.161572
v 10.251982 50.076714 1.875561
v 12.076418 49.386166 2.744144
v 12.446735 45.436440 1.582995
v 12.555106 44.716591 0.922774
v 13.277208 41.268433 -1.211735
v 11.575137 41.779358 -2.746425
v 11.113273 43.773304 -1.517703
v 12.895386 43.184681 -0.246998
v 9.482795 42.067833 -3.993387
v 9.076470 44.177402 -2.433629
v 11.558732 39.614040 -3.080786
v 9.500411 39.696857 -4.695893
v 13.277732 39.230072 -1.467555
v 12.717140 37.186710 -0.768744
v 11.063350 37.387821 -2.293990
v 9.026803 37.503593 -3.648940
v 7.878734 23.654932 -10.401990
v 5.477219 23.941719 -11.230403
v 9.958205 23.611500 -9.119126
v 9.278803 19.402048 -8.386901
v 7.032046 19.359079 -9.261153
v 4.828353 19.720480 -9.793157
v 0.010143 37.692165 -4.046650
v 0.013285 39.931583 -4.620928
v 2.171624 39.890263 -4.920000
v 2.075372 37.681362 -4.202905
v 0.021527 42.286766 -4.163794
v 2.222452 42.270588 -4.411244
v 4.581472 42.169930 -5.065711
v 4.531652 39.768364 -5.791422
v 4.343654 37.650593 -4.727046
v 0.083674 45.514561 -1.076955
v 2.315192 45.588039 -1.263451
v 2.242585 44.509285 -2.904260
v 0.044272 44.498474 -2.626440
v 4.566099 45.807079 -1.444197
v 4.577829 44.468891 -3.132419
v 0.125591 46.283199 -0.302178
v 2.315644 46.403667 -0.407812
v 0.482154 51.433285 0.529967
v 2.607282 51.284729 0.482279
v 4.659822 51.143906 0.496526
v 4.476213 46.750416 -0.409928
v -0.184040 20.974533 -9.351974
v -0.048293 25.554090 -11.410114
v 2.784295 24.797033 -11.426033
v 2.438610 20.465429 -9.754231
v -0.017663 26.407658 -12.581646
v 2.789696 25.744141 -12.579425
v 0.232467 29.643562 -12.893895
v 2.694516 29.126171 -12.559321
v 2.759978 27.077404 -13.067708
v 0.078349 27.670837 -13.217737
v 2.692733 31.294943 -10.702279
v 2.417776 32.649166 -7.819395
v 0.330734 31.802027 -11.036823
v 0.294305 33.112690 -8.115891
v 7.063413 42.137966 -4.893157
v 7.074990 39.683968 -5.777643
v 6.742865 37.596115 -4.617119
v 6.868142 44.376320 -2.957661
v 6.655982 45.873394 -1.365353
v 6.527293 46.899891 -0.208613
v 6.594709 50.959312 0.658057
v 20.279896 41.197754 6.157225
v 20.128841 40.066322 5.907353
v 20.843733 43.278942 6.495785
v 19.516981 36.779121 5.336004
v 19.225248 35.850845 5.503363
v 19.756502 37.825821 5.363489
v 14.605184 38.781044 0.215485
v 14.191540 36.987194 0.635508
v 14.661066 40.673218 0.423031
v 14.452157 42.466366 1.121181
v 14.166150 43.873466 2.010574
v 13.933189 44.863564 2.522413
v 13.943655 48.604557 3.599567
v 22.293104 33.506725 7.289440
v 22.951977 33.592907 8.156813
v 23.334532 33.459499 7.812892
v 22.715227 33.335079 6.858205
v 23.480171 33.675041 8.859379
v 23.834377 33.575909 8.590703
v 24.213123 33.427013 8.334276
v 23.727255 33.261749 7.492967
v 23.128284 33.079514 6.474549
v 24.136681 32.983593 7.199701
v 23.529646 32.731716 6.149055
v 24.630125 33.209003 8.083594
v 25.151676 32.844864 7.851415
v 24.623882 32.539833 6.942474
v 23.978464 32.196377 5.888352
v 25.858150 32.060642 7.649674
v 25.270525 31.586870 6.728469
v 26.852694 29.917841 7.463910
v 26.165478 29.234638 6.538906
v 25.353497 28.553249 5.526811
v 24.561470 31.068623 5.690014
v 20.576902 33.424755 5.116070
v 21.514296 33.465309 6.279586
v 21.984606 33.235210 5.751100
v 21.087294 33.124668 4.463296
v 22.422132 32.891479 5.304218
v 21.544157 32.663979 3.936902
v 22.814371 32.450710 4.955433
v 21.928663 32.101040 3.559182
v 23.219727 31.802500 4.700388
v 22.294939 31.321550 3.317146
v 13.564556 20.595064 -6.323012
v 13.729908 24.254236 -6.395686
v 15.357479 24.862041 -5.080998
v 15.356248 21.442724 -5.056180
v 15.283581 26.851923 -4.949805
v 16.773218 27.647581 -3.482845
v 16.942564 25.692745 -3.611716
v 17.117357 22.475195 -3.589689
v 15.092447 28.217636 -4.568889
v 14.751015 29.451025 -3.861469
v 16.209627 30.102421 -2.497961
v 16.545073 28.964525 -3.132913
v 12.713833 30.269896 -4.034824
v 14.289365 30.685581 -2.831529
v 12.105767 31.560902 -2.527747
v 13.744708 31.800783 -1.486696
v 15.255798 32.122559 -0.354133
v 15.773392 31.183731 -1.569164
v 20.638634 25.026890 -0.009157
v 18.931263 23.741922 -1.830264
v 18.555660 26.790333 -1.912138
v 20.123936 28.011219 -0.102637
v 18.273020 28.641863 -1.837281
v 19.757210 29.746145 -0.067291
v 17.995396 29.857349 -1.555520
v 19.442257 30.819586 0.153628
v 17.649307 30.867929 -1.010674
v 19.079254 31.684414 0.616540
v 17.214691 31.799641 -0.184466
v 18.629913 32.456432 1.349688
v 16.702084 32.570072 0.914489
v 18.112736 33.035564 2.324273
v 19.976669 38.973106 5.601938
v 20.422823 32.306141 2.334675
v 20.801418 31.597967 1.918906
v 21.140842 30.674850 1.699149
v 19.438103 33.314999 3.777415
v 19.962664 32.908371 2.963612
v 21.539042 29.061354 1.635211
v 22.093399 26.127291 1.649973
v 22.737074 29.852612 3.183443
v 23.333204 27.043690 3.109554
v 24.412407 27.835438 4.392678
v 23.729128 30.495504 4.523518
v 24.555933 33.562424 8.956403
v 24.184891 33.665836 9.158243
v 23.847902 33.730080 9.372499
v 25.789639 33.400009 9.117423
v 25.541033 33.120022 8.579879
v 24.982319 33.401207 8.756760
v 25.194500 33.585281 9.223489
v 27.840000 31.414240 9.060350
v 27.418392 30.647493 8.322781
v 26.318567 32.515827 8.445880
v 26.640741 32.986713 9.078960
v 25.897507 33.704887 9.466074
v 25.274529 33.793140 9.503815
v 25.267391 34.015308 9.637965
v 28.073347 32.177574 9.599584
v 26.802591 33.462452 9.514972
v 11.012168 29.969860 -5.291383
v 10.303498 31.400988 -3.567868
v 11.943427 23.812563 -7.743390
v 11.528434 19.848869 -7.464706
v -18.558764 38.577530 4.282851
v -17.275732 39.317757 3.144519
v -17.120848 37.878960 3.048141
v -18.353662 37.353664 4.242088
v -15.970428 40.017933 1.880515
v -15.865386 38.342701 1.718460
v -15.548044 36.781113 1.972057
v -16.842024 36.548893 3.235427
v -18.074137 36.232601 4.413937
v -8.377119 31.419563 -4.727144
v -6.384848 31.628853 -5.971773
v -7.231407 30.094053 -8.249487
v -9.183277 29.899883 -6.704239
v -4.414463 32.086777 -7.119133
v -5.082195 30.589365 -9.715818
v -5.426668 28.299566 -11.479305
v -7.851666 28.052570 -9.842224
v -9.822796 28.162624 -8.151656
v -15.818548 47.630066 4.392091
v -15.568230 44.143757 3.443175
v -17.232273 43.331535 4.336312
v -17.659561 46.363678 5.019067
v -15.718369 42.975414 3.022912
v -17.271122 42.072392 3.971626
v -18.761993 41.098377 4.933387
v -18.821875 42.338657 5.235575
v -19.348427 44.874756 5.696653
v -22.662455 35.963173 8.110123
v -21.852764 36.510178 7.363463
v -21.544559 35.757046 7.319201
v -22.368078 35.363838 8.107551
v -20.867586 37.118557 6.407553
v -20.572544 36.220062 6.365718
v -20.275719 35.469574 6.513557
v -21.232710 35.133163 7.422024
v -22.079653 34.858101 8.199207
v -22.788540 34.592525 8.807402
v -23.063379 34.974174 8.713960
v -23.345152 34.348091 9.256413
v -23.624500 34.617680 9.162776
v -23.961422 34.951557 9.131937
v -23.371244 35.432518 8.690545
v -24.815592 33.975876 9.687565
v -24.748669 34.127853 9.676287
v -24.388979 34.038101 9.746622
v -24.462734 33.940685 9.782153
v -24.608799 34.317104 9.583947
v -24.243416 34.163177 9.635221
v -23.946026 34.047245 9.744217
v -24.091330 33.968166 9.868916
v -24.163773 33.907455 9.919901
v -24.474663 33.841145 9.722864
v -24.831690 33.826519 9.599516
v -24.164940 33.842239 9.877950
v -24.069315 33.781193 9.707940
v -24.393454 33.748138 9.528817
v -24.758833 33.687954 9.370315
v -27.817438 34.678833 10.259538
v -26.604273 34.936317 9.956332
v -26.782885 34.420624 9.930541
v -28.057249 33.794380 10.177829
v -25.728683 34.727772 9.719073
v -25.866154 34.358738 9.742076
v -25.908609 34.027958 9.662422
v -26.837345 33.938007 9.787297
v -28.136343 32.960320 9.961176
v -23.290958 37.207195 8.360514
v -24.183077 36.433983 8.905084
v -24.849598 37.032978 9.203074
v -23.800430 37.938110 8.619880
v -24.942554 35.733303 9.337144
v -25.705719 36.196304 9.635870
v -26.743374 36.665730 10.003293
v -25.828657 37.918102 9.593994
v -24.715771 39.200249 8.990520
v -23.501163 40.430500 8.216670
v -22.727886 38.901165 7.920686
v -22.210663 41.758709 7.360463
v -21.577198 40.015297 7.079793
v -21.340601 39.013836 6.865029
v -22.375462 38.038471 7.706434
v -17.321871 40.765255 3.495601
v -18.695292 39.868511 4.558679
v -15.896340 41.640953 2.381176
v -22.954298 36.588032 8.196272
v -22.123299 37.292015 7.512309
v -21.134834 38.095909 6.620426
v -24.381342 35.329163 9.179596
v -23.724190 35.925777 8.746598
v -25.267826 34.016861 9.638474
v -25.216055 34.243919 9.666160
v -25.083323 34.512257 9.602982
v -10.256187 26.488853 -9.016898
v -11.996689 27.039581 -7.418868
v -11.587783 28.471170 -6.580553
v -10.289542 25.209185 -9.321204
v -12.113300 25.700003 -7.778667
v -13.764660 26.241011 -6.336675
v -13.596156 27.608547 -5.955104
v -13.218172 28.907139 -5.172186
v -5.785883 25.935282 -12.129864
v -8.336836 26.010010 -10.657834
v -5.748445 24.752201 -11.983644
v -8.320848 24.781553 -10.817627
v -8.726410 45.675995 -1.082099
v -10.721714 45.273991 -0.284000
v -10.649709 46.067368 0.649816
v -8.491216 46.738319 0.112381
v -12.556336 44.722931 0.929199
v -12.451927 45.444714 1.578328
v -12.072572 49.393368 2.745535
v -10.258652 50.076340 1.853672
v -8.464635 50.616993 1.076370
v -13.277670 41.262352 -1.218389
v -12.897716 43.187935 -0.252917
v -11.114300 43.768593 -1.540028
v -11.571481 41.771347 -2.757181
v -9.078639 44.166309 -2.462728
v -9.478874 42.057575 -4.009294
v -9.493084 39.690475 -4.700675
v -11.553085 39.604389 -3.083912
v -9.019704 37.504368 -3.646602
v -11.057731 37.379250 -2.288149
v -12.715504 37.168087 -0.770003
v -13.274917 39.217308 -1.471668
v -5.426612 23.953913 -11.178386
v -7.823726 23.640799 -10.342279
v -4.741609 19.763065 -9.705970
v -6.909522 19.387983 -9.134771
v -9.171025 19.409306 -8.273677
v -9.921521 23.596300 -9.078548
v -2.056775 37.682678 -4.199055
v -2.149599 39.889957 -4.913854
v -4.326771 37.650768 -4.721386
v -4.514429 39.766190 -5.786261
v -4.565379 42.164593 -5.068090
v -2.194435 42.268211 -4.408697
v -2.210478 44.507538 -2.910997
v -2.311855 45.596180 -1.299786
v -4.568666 44.463142 -3.145874
v -4.573858 45.813034 -1.480524
v -2.323628 46.417446 -0.447369
v -4.486979 46.761227 -0.442255
v -4.688313 51.154110 0.428168
v -2.628350 51.305973 0.392033
v -2.408766 20.493664 -9.725706
v -2.760505 24.830914 -11.403547
v -2.776593 25.764389 -12.568039
v -2.764187 27.094461 -13.075740
v -2.727459 29.148144 -12.588530
v -2.471303 32.711685 -7.886270
v -2.749840 31.334961 -10.761148
v -7.063659 39.679501 -5.781150
v -7.055368 42.128418 -4.906085
v -6.730393 37.595741 -4.613333
v -6.676261 45.881054 -1.437669
v -6.868656 44.367043 -2.983932
v -6.626921 50.962715 0.588898
v -6.547411 46.915359 -0.278454
v -20.124746 40.065166 5.912871
v -20.275627 41.199291 6.163769
v -20.841206 43.281185 6.501932
v -19.221468 35.854778 5.509077
v -19.507929 36.783356 5.347541
v -19.751268 37.827335 5.370848
v -14.196935 36.967678 0.625564
v -14.606513 38.767872 0.210677
v -14.663064 40.665684 0.420872
v -14.167499 43.877975 2.019746
v -14.453670 42.466003 1.121162
v -13.937654 44.869717 2.522866
v -13.943221 48.611698 3.601347
v -22.293333 33.508362 7.290331
v -22.715614 33.337646 6.859873
v -23.334904 33.461456 7.814181
v -22.952175 33.594250 8.157393
v -23.128586 33.083263 6.476868
v -23.727598 33.264740 7.494796
v -24.213539 33.429314 8.335277
v -23.834812 33.577702 8.591652
v -23.480366 33.676517 8.860088
v -23.529844 32.736526 6.151686
v -24.136965 32.986786 7.201617
v -23.978596 32.202145 5.891131
v -24.624201 32.543110 6.944545
v -25.152121 32.847515 7.852487
v -24.630535 33.212025 8.084511
v -25.270796 31.591219 6.730605
v -25.858667 32.062286 7.650738
v -24.561777 31.075193 5.693041
v -25.353992 28.559879 5.529573
v -26.165791 29.238428 6.540723
v -26.852880 29.920465 7.464966
v -20.576359 33.429413 5.117507
v -21.086544 33.130646 4.465245
v -21.984478 33.239311 5.752525
v -21.514105 33.468002 6.280559
v -21.543249 32.670536 3.939147
v -22.421774 32.897388 5.306074
v -21.927603 32.108238 3.561761
v -22.813963 32.457996 4.957632
v -22.293755 31.329294 3.319685
v -23.219322 31.810310 4.702802
v -13.561178 20.599110 -6.319431
v -15.385342 21.458265 -5.087571
v -15.366719 24.874737 -5.090790
v -13.732018 24.256956 -6.397665
v -17.142658 22.494476 -3.616817
v -16.950399 25.706865 -3.620799
v -16.774799 27.659597 -3.485063
v -15.288029 26.865129 -4.954567
v -15.090858 28.231977 -4.568003
v -16.541498 28.977251 -3.130613
v -16.202814 30.111492 -2.491042
v -14.743956 29.461134 -3.853595
v -14.278661 30.689596 -2.819554
v -12.704951 30.271475 -4.024065
v -15.763049 31.189129 -1.558575
v -15.247248 32.123432 -0.344264
v -13.738002 31.800327 -1.478124
v -12.102564 31.561022 -2.522938
v -20.641497 25.040333 -0.012737
v -20.123564 28.022905 -0.103250
v -18.558800 26.801262 -1.916038
v -18.939695 23.757414 -1.839535
v -19.753466 29.756655 -0.064575
v -18.271330 28.650749 -1.836083
v -19.436817 30.828197 0.157999
v -17.991081 29.865620 -1.551850
v -19.072805 31.690710 0.621906
v -17.643518 30.874359 -1.005152
v -18.623119 32.460720 1.355718
v -17.207764 31.803688 -0.177613
v -18.107183 33.037685 2.329566
v -16.696600 32.571609 0.920415
v -19.971399 38.973335 5.609063
v -20.798241 31.604851 1.922792
v -20.419390 32.311287 2.338140
v -21.138102 30.682226 1.702250
v -19.959253 32.913094 2.967517
v -19.435637 33.317699 3.779902
v -22.094412 26.139086 1.648917
v -21.537516 29.068897 1.636532
v -23.333309 27.054338 3.110342
v -22.736006 29.860546 3.185263
v -23.728882 30.504942 4.526376
v -24.412394 27.844799 4.394774
v -24.185381 33.667545 9.159657
v -24.556293 33.564140 8.957026
v -23.848307 33.731731 9.374299
v -25.790121 33.401852 9.118014
v -25.194954 33.586906 9.224078
v -24.982729 33.403267 8.757298
v -25.541504 33.122593 8.580435
v -27.840736 31.417219 9.061459
v -26.641304 32.989056 9.079813
v -26.319250 32.517887 8.446713
v -27.419020 30.650030 8.323827
v -25.274986 33.794689 9.504307
v -25.898006 33.706554 9.466602
v -26.803185 33.464386 9.515711
v -28.074034 32.180405 9.600496
v -10.998456 29.967283 -5.275172
v -10.299900 31.400337 -3.563071
v -11.481605 19.846777 -7.414786
v -11.934754 23.809059 -7.733514
v -26.263460 35.510071 9.872473
v -25.441862 35.173416 9.599360
v -27.393280 35.607788 10.213385
v -24.824541 34.863232 9.456712
v -24.364401 34.582653 9.418878
v -24.006632 34.348511 9.456977
v -23.716259 34.167702 9.555254
v 24.748207 34.126423 9.675594
v 25.215580 34.242439 9.665662
v 24.388506 34.036766 9.745334
v 24.090868 33.966763 9.867075
v 14.470556 34.367916 3.537640
v 15.071928 35.490864 2.615460
v 16.435852 35.427986 3.727344
v 15.897038 34.459850 4.462724
v 17.698135 35.284683 4.826502
v 17.214006 34.484306 5.420184
v 19.560604 34.369175 7.167566
v 18.432947 34.443916 6.332336
v 18.863649 35.086639 5.863060
v 19.939959 34.866436 6.807055
v 21.513628 34.186768 8.569293
v 20.591457 34.281982 7.917434
v 20.923971 34.659885 7.648308
v 21.803900 34.478867 8.371518
v 22.852158 34.011173 9.542886
v 22.278872 34.095966 9.113579
v 22.539738 34.311005 8.954517
v 23.101435 34.155193 9.394552
v 23.680462 33.962818 9.895790
v 23.463793 34.039742 9.696302
v 23.423019 33.899364 10.067286
v 23.214195 33.945381 9.851982
v 23.595333 33.844929 10.288699
v 23.544170 33.867374 10.215386
v 23.815470 33.911758 10.033032
v 23.879040 33.873653 10.096822
v 23.869595 33.833790 10.066670
v 23.762400 33.797230 9.913217
v 23.453472 33.810608 10.124375
v 23.573275 33.825916 10.266185
v 23.529238 33.770245 9.608344
v 23.141399 33.738956 9.144176
v 22.788324 33.786270 9.421346
v 23.202478 33.800735 9.840840
v 21.427774 33.701809 8.213683
v 22.188837 33.747379 8.873207
v 22.579020 33.677658 8.519249
v 21.870834 33.609795 7.752228
v 19.461243 33.638023 6.622996
v 20.516693 33.678295 7.458039
v 21.030764 33.591328 6.863214
v 20.038683 33.561447 5.855368
v 18.874990 33.493256 4.717352
v 17.556721 33.346348 3.470580
v 16.965155 33.479530 4.702683
v 18.268026 33.572315 5.704765
v 16.151642 33.075882 2.227158
v 14.697356 32.797199 1.111933
v 14.124681 33.247196 2.765414
v 15.587872 33.366154 3.675267
v 13.154283 32.622520 0.157321
v 11.428829 32.523178 -0.654831
v 10.679421 33.122017 1.523452
v 12.529773 33.179569 2.040096
v 9.474228 32.500248 -1.422134
v 7.360755 32.536201 -2.277120
v 6.079551 32.908253 0.601329
v 8.506591 33.084003 1.101973
v 5.266471 32.559452 -3.245533
v 3.344214 32.689388 -4.093529
v 2.168471 33.001850 -0.899427
v 3.889252 32.930710 -0.164576
v -0.129670 33.279739 -4.670148
v 1.702666 33.030468 -4.567859
v 0.115567 32.957283 -1.549942
v 1.015924 32.979649 -1.414860
v -1.739964 33.073860 -4.599103
v -3.393441 32.772129 -4.152831
v -2.200575 33.059124 -0.938137
v -0.994903 33.020802 -1.434918
v -7.374617 32.575356 -2.293431
v -5.308404 32.630928 -3.296051
v -6.099000 33.011505 0.580343
v -3.921037 32.981987 -0.200920
v -11.427293 32.523331 -0.652722
v -9.479905 32.512421 -1.428606
v -10.682663 33.130424 1.519812
v -8.515748 33.115543 1.091469
v -14.694454 32.797668 1.115403
v -13.155934 32.625713 0.155765
v -14.124087 33.247799 2.766262
v -12.531209 33.182816 2.038523
v -17.554657 33.347179 3.473394
v -16.151114 33.077480 2.228304
v -16.964071 33.479813 4.704710
v -15.587127 33.366680 3.676466
v -20.038902 33.563869 5.857184
v -18.874104 33.494678 4.719062
v -19.461319 33.639381 6.624860
v -18.267506 33.573120 5.706838
v -21.428072 33.703331 8.214626
v -20.516863 33.679749 7.459598
v -21.030890 33.592979 6.864387
v -21.871069 33.611202 7.753014
v -22.788692 33.787918 9.422419
v -22.189154 33.748970 8.873860
v -22.579298 33.679214 8.519802
v -23.141327 33.740444 9.144815
v -23.762869 33.799011 9.916027
v -23.529434 33.771931 9.610205
v -23.453859 33.812527 10.127067
v -23.202868 33.802509 9.842888
v -23.879564 33.875427 10.098320
v -23.869944 33.835583 10.068680
v -23.595798 33.846668 10.290248
v -23.573654 33.827854 10.268286
v -23.423422 33.901012 10.069866
v -23.544579 33.869156 10.217443
v -23.815899 33.913334 10.035047
v -23.680735 33.964211 9.898352
v -22.852526 34.012638 9.543904
v -23.214598 33.946907 9.853943
v -23.464180 34.041023 9.698247
v -23.101997 34.156483 9.395609
v -21.514044 34.187950 8.570106
v -22.279221 34.097286 9.114228
v -22.540270 34.312294 8.955006
v -21.804525 34.480003 8.371710
v -19.562517 34.368454 7.166818
v -20.592510 34.282421 7.917859
v -20.925331 34.660423 7.648006
v -19.942476 34.865997 6.805241
v -17.232029 34.470215 5.397624
v -18.440361 34.438152 6.323947
v -18.867840 35.084358 5.857986
v -17.701660 35.282925 4.819937
v -14.480699 34.353825 3.521905
v -15.909857 34.445061 4.443576
v -16.437992 35.417500 3.720532
v -15.077831 35.474983 2.604269
v -13.605532 35.498859 1.520307
v -11.964350 35.510502 0.507446
v -11.080218 34.269699 2.230513
v -12.870144 34.296978 2.788348
v -7.052099 34.355038 1.498681
v -9.052919 34.307087 1.873555
v -10.102189 35.472206 -0.436889
v -8.124037 35.491123 -1.331517
v -6.162086 35.591663 -1.909083
v -4.119157 35.668350 -1.823013
v -3.853349 34.440788 0.591238
v -5.423808 34.389141 0.969523
v 0.009370 35.640137 -1.390386
v -2.022645 35.663071 -1.518042
v -0.005166 34.513271 0.546747
v -1.929679 34.474686 0.508625
v 2.040656 35.655212 -1.525480
v 4.136717 35.656986 -1.843587
v 3.873373 34.410622 0.568100
v 1.940589 34.458397 0.501914
v 8.133376 35.464245 -1.357608
v 6.178712 35.576721 -1.942495
v 7.073905 34.288933 1.429282
v 5.447310 34.341908 0.923145
v 11.075397 34.246483 2.208575
v 9.058792 34.259926 1.824737
v 10.103298 35.462330 -0.463712
v 11.953526 35.516342 0.506215
v 13.590423 35.515099 1.537495
v 12.858854 34.298233 2.793962
vt 0.803294 0.206299
vt 0.805773 0.225980
vt 0.778914 0.226873
vt 0.775481 0.203478
vt 0.808833 0.243221
vt 0.782687 0.247416
vt 0.754801 0.252303
vt 0.750542 0.227506
vt 0.746188 0.199529
vt 0.644417 0.444686
vt 0.657410 0.487050
vt 0.618384 0.501649
vt 0.605128 0.458112
vt 0.666556 0.522110
vt 0.627361 0.537831
vt 0.585783 0.547381
vt 0.577708 0.511268
vt 0.565937 0.468200
vt 0.743306 -0.012690
vt 0.773704 0.001981
vt 0.771905 0.136421
vt 0.741536 0.126864
vt 0.803160 0.018753
vt 0.801283 0.146344
vt 0.800261 0.166009
vt 0.771156 0.157858
vt 0.740951 0.149179
vt 0.892069 0.210536
vt 0.890944 0.220593
vt 0.873407 0.222002
vt 0.873485 0.210127
vt 0.890878 0.229479
vt 0.874278 0.232591
vt 0.854857 0.236168
vt 0.853158 0.223721
vt 0.852272 0.209728
vt 0.905366 0.219796
vt 0.904271 0.226969
vt 0.907774 0.211716
vt 0.920181 0.214115
vt 0.916568 0.220042
vt 0.914231 0.225325
vt 0.933208 0.221224
vt 0.928561 0.224229
vt 0.924082 0.221758
vt 0.928385 0.217650
vt 0.924986 0.226456
vt 0.920845 0.225188
vt 0.937329 0.226361
vt 0.938360 0.229142
vt 0.933097 0.229737
vt 0.932313 0.228021
vt 0.938682 0.233913
vt 0.933356 0.233514
vt 0.928914 0.233456
vt 0.928798 0.230422
vt 0.928306 0.229425
vt 0.975002 0.118647
vt 0.980962 0.203737
vt 0.965270 0.210064
vt 0.960679 0.203119
vt 0.984333 0.145913
vt 0.967740 0.217509
vt 0.953469 0.221168
vt 0.951675 0.215815
vt 0.948182 0.210595
vt 0.953219 0.196282
vt 0.966049 0.106639
vt 0.942013 0.204963
vt 0.932013 0.198880
vt 0.941768 0.189067
vt 0.952952 0.094226
vt 0.898325 0.187944
vt 0.904475 0.174590
vt 0.925078 0.181430
vt 0.917018 0.192937
vt 0.911523 0.067852
vt 0.934297 0.080425
vt 0.881594 0.169089
vt 0.886667 0.058432
vt 0.877209 0.183738
vt 0.853699 0.179213
vt 0.856630 0.163333
vt 0.860166 0.048764
vt 0.801201 0.186103
vt 0.772648 0.180318
vt 0.742771 0.173484
vt 0.874632 0.197434
vt 0.894356 0.199777
vt 0.852368 0.194805
vt 0.911469 0.202897
vt 0.925096 0.207165
vt 0.939406 0.216682
vt 0.934063 0.212103
vt 0.702972 0.500646
vt 0.709121 0.522415
vt 0.672411 0.545232
vt 0.735132 0.477213
vt 0.741555 0.497301
vt 0.746181 0.511583
vt 0.713450 0.537160
vt 0.676618 0.560152
vt 0.633004 0.561651
vt 0.590955 0.571309
vt 0.636824 0.576846
vt 0.594503 0.586548
vt 0.618379 0.125878
vt 0.618313 0.107182
vt 0.648355 0.109493
vt 0.648313 0.128814
vt 0.619074 -0.033205
vt 0.649434 -0.031286
vt 0.680587 -0.027572
vt 0.679285 0.113582
vt 0.679142 0.133895
vt 0.684883 0.188791
vt 0.653521 0.185305
vt 0.650117 0.153805
vt 0.681100 0.158675
vt 0.622711 0.183427
vt 0.619967 0.151034
vt 0.658086 0.226796
vt 0.626130 0.227042
vt 0.689997 0.226979
vt 0.694614 0.262354
vt 0.662039 0.266382
vt 0.628756 0.269537
vt 0.638340 0.581412
vt 0.596262 0.593075
vt 0.678890 0.566002
vt 0.686084 0.686991
vt 0.644724 0.713273
vt 0.600595 0.730573
vt 0.497032 0.277935
vt 0.498316 0.231073
vt 0.531462 0.230291
vt 0.531835 0.275759
vt 0.499440 0.183893
vt 0.531642 0.183461
vt 0.563133 0.183161
vt 0.563948 0.229251
vt 0.565248 0.273787
vt 0.500172 0.125748
vt 0.531016 0.125308
vt 0.531418 0.150231
vt 0.499981 0.150615
vt 0.561215 0.125160
vt 0.562131 0.150123
vt 0.500147 0.106960
vt 0.530668 0.106496
vt 0.499967 -0.034263
vt 0.530267 -0.034872
vt 0.560366 -0.034830
vt 0.560705 0.106410
vt 0.502775 0.749156
vt 0.501225 0.605707
vt 0.550799 0.603132
vt 0.552532 0.741796
vt 0.500116 0.590235
vt 0.548541 0.589461
vt 0.497848 0.550508
vt 0.542032 0.550262
vt 0.545756 0.574144
vt 0.499116 0.574513
vt 0.536714 0.514854
vt 0.529615 0.473018
vt 0.496490 0.515498
vt 0.495529 0.474421
vt 0.593090 0.182923
vt 0.595141 0.227971
vt 0.596853 0.271676
vt 0.591194 0.150113
vt 0.589875 0.125031
vt 0.589543 0.106412
vt 0.589692 -0.034276
vt 0.829645 0.155523
vt 0.827884 0.173197
vt 0.832084 0.034953
vt 0.830568 0.224979
vt 0.832951 0.239527
vt 0.828881 0.208423
vt 0.720845 0.227462
vt 0.725405 0.257793
vt 0.715887 0.194070
vt 0.712121 0.165707
vt 0.710150 0.140885
vt 0.710515 0.119276
vt 0.712015 -0.021886
vt 0.900821 0.266021
vt 0.912453 0.254802
vt 0.917990 0.260439
vt 0.906804 0.273999
vt 0.921398 0.245868
vt 0.926600 0.249188
vt 0.932257 0.252522
vt 0.923944 0.265911
vt 0.913115 0.281599
vt 0.930270 0.271510
vt 0.919455 0.288764
vt 0.938535 0.256358
vt 0.946841 0.260879
vt 0.938407 0.277509
vt 0.927327 0.295892
vt 0.958846 0.266373
vt 0.949887 0.284233
vt 0.972936 0.232919
vt 0.963228 0.260771
vt 0.950862 0.289562
vt 0.938277 0.303358
vt 0.870503 0.294758
vt 0.887066 0.279360
vt 0.893802 0.289715
vt 0.878111 0.307905
vt 0.900696 0.299361
vt 0.885689 0.319814
vt 0.907034 0.307711
vt 0.892077 0.329274
vt 0.914440 0.315580
vt 0.899037 0.337682
vt 0.756066 0.615632
vt 0.749691 0.520166
vt 0.778637 0.496459
vt 0.785453 0.578881
vt 0.773528 0.487046
vt 0.799844 0.460023
vt 0.806862 0.470366
vt 0.814336 0.537966
vt 0.768111 0.474021
vt 0.761647 0.455755
vt 0.787036 0.432094
vt 0.793562 0.448455
vt 0.724817 0.448065
vt 0.752243 0.428351
vt 0.713734 0.413315
vt 0.742637 0.396004
vt 0.770176 0.376857
vt 0.778660 0.406599
vt 0.874593 0.436616
vt 0.845372 0.487858
vt 0.836947 0.436445
vt 0.865493 0.401823
vt 0.829189 0.426575
vt 0.857326 0.392467
vt 0.822633 0.416138
vt 0.850814 0.382919
vt 0.816005 0.401880
vt 0.844224 0.370627
vt 0.807634 0.380033
vt 0.835693 0.352824
vt 0.799048 0.354554
vt 0.826822 0.332108
vt 0.827815 0.190984
vt 0.867161 0.343474
vt 0.873647 0.354222
vt 0.880304 0.363145
vt 0.850552 0.312293
vt 0.858974 0.328903
vt 0.888942 0.372140
vt 0.898651 0.392633
vt 0.908294 0.346363
vt 0.918764 0.354417
vt 0.936075 0.320422
vt 0.924549 0.323737
vt 0.937041 0.241794
vt 0.931647 0.240205
vt 0.926849 0.238884
vt 0.954508 0.235692
vt 0.952130 0.246812
vt 0.943355 0.244075
vt 0.945266 0.234778
vt 0.984139 0.180995
vt 0.979921 0.205358
vt 0.964876 0.250140
vt 0.968157 0.236514
vt 0.954638 0.227469
vt 0.945055 0.228458
vt 0.943894 0.224100
vt 0.985475 0.161798
vt 0.968880 0.225986
vt 0.693069 0.468461
vt 0.680834 0.429680
vt 0.716142 0.543913
vt 0.723035 0.652954
vt 0.201104 0.197996
vt 0.228162 0.198130
vt 0.222371 0.220999
vt 0.196447 0.217235
vt 0.256786 0.196907
vt 0.249857 0.224406
vt 0.243405 0.248727
vt 0.216611 0.241044
vt 0.191504 0.234180
vt 0.344364 0.448840
vt 0.384539 0.462343
vt 0.372825 0.506428
vt 0.332322 0.491978
vt 0.424637 0.471221
vt 0.414554 0.514957
vt 0.409231 0.551714
vt 0.366157 0.543484
vt 0.324932 0.528049
vt 0.269751 -0.015666
vt 0.268886 0.124949
vt 0.239482 0.131670
vt 0.240586 -0.005263
vt 0.266967 0.147224
vt 0.237515 0.153130
vt 0.209081 0.158159
vt 0.210833 0.138398
vt 0.211959 0.006738
vt 0.115263 0.190303
vt 0.133196 0.192723
vt 0.131506 0.204649
vt 0.114788 0.200572
vt 0.153631 0.195346
vt 0.150834 0.209255
vt 0.147516 0.221523
vt 0.129145 0.215153
vt 0.113493 0.209514
vt 0.100898 0.204856
vt 0.100976 0.197469
vt 0.091515 0.201529
vt 0.090104 0.195814
vt 0.087568 0.189225
vt 0.099947 0.188950
vt 0.068855 0.198404
vt 0.070599 0.196392
vt 0.074891 0.199681
vt 0.073457 0.200971
vt 0.073730 0.194006
vt 0.077745 0.197866
vt 0.080871 0.200743
vt 0.078265 0.202110
vt 0.077131 0.203094
vt 0.072408 0.202547
vt 0.067382 0.201006
vt 0.076484 0.203998
vt 0.075843 0.207004
vt 0.071517 0.206280
vt 0.066265 0.205734
vt 0.038123 0.067088
vt 0.050380 0.170776
vt 0.044637 0.176824
vt 0.030620 0.078273
vt 0.061080 0.180605
vt 0.056762 0.185175
vt 0.054068 0.190200
vt 0.040860 0.183781
vt 0.025475 0.091464
vt 0.112986 0.166684
vt 0.094242 0.168556
vt 0.088639 0.155687
vt 0.109517 0.152370
vt 0.078782 0.171855
vt 0.071232 0.160304
vt 0.062636 0.049033
vt 0.082302 0.040333
vt 0.105569 0.033637
vt 0.130165 0.030108
vt 0.132148 0.150497
vt 0.156030 0.026120
vt 0.156596 0.148358
vt 0.156816 0.164612
vt 0.133789 0.165769
vt 0.233456 0.175376
vt 0.205580 0.178119
vt 0.262689 0.171264
vt 0.114786 0.179161
vt 0.134053 0.179837
vt 0.155703 0.180390
vt 0.083988 0.181382
vt 0.097847 0.179474
vt 0.062860 0.194931
vt 0.064956 0.191632
vt 0.068496 0.188322
vt 0.320783 0.552002
vt 0.281293 0.528286
vt 0.286364 0.505661
vt 0.317916 0.567525
vt 0.277919 0.543685
vt 0.242441 0.516018
vt 0.246556 0.501141
vt 0.252540 0.480320
vt 0.406559 0.576147
vt 0.362672 0.568001
vt 0.404842 0.591762
vt 0.360549 0.583667
vt 0.384935 0.129288
vt 0.356292 0.131866
vt 0.357383 0.112651
vt 0.385742 0.110681
vt 0.326740 0.135920
vt 0.328183 0.115720
vt 0.328432 -0.024404
vt 0.357318 -0.026583
vt 0.385545 -0.027984
vt 0.317023 0.190187
vt 0.322987 0.160441
vt 0.353049 0.156649
vt 0.347727 0.187869
vt 0.382241 0.154300
vt 0.377847 0.186519
vt 0.371920 0.230015
vt 0.340473 0.229043
vt 0.366811 0.272628
vt 0.333944 0.268328
vt 0.301832 0.262769
vt 0.309067 0.227905
vt 0.403912 0.598399
vt 0.359571 0.588299
vt 0.402225 0.739187
vt 0.355497 0.724527
vt 0.310676 0.699308
vt 0.316244 0.573452
vt 0.462483 0.277377
vt 0.465259 0.231703
vt 0.429348 0.276615
vt 0.433081 0.231766
vt 0.436219 0.185601
vt 0.467344 0.184822
vt 0.468708 0.151603
vt 0.469559 0.126698
vt 0.438484 0.152594
vt 0.440000 0.127671
vt 0.469930 0.107905
vt 0.440691 0.108955
vt 0.440990 -0.031014
vt 0.470075 -0.032793
vt 0.452125 0.746527
vt 0.451315 0.606162
vt 0.451592 0.592285
vt 0.452427 0.576742
vt 0.453601 0.552567
vt 0.461348 0.474499
vt 0.456145 0.516782
vt 0.402361 0.231029
vt 0.406815 0.185955
vt 0.398142 0.275059
vt 0.412283 0.128230
vt 0.410143 0.153229
vt 0.413099 -0.029406
vt 0.413042 0.109676
vt 0.182072 0.162017
vt 0.183068 0.144129
vt 0.183629 0.017752
vt 0.168384 0.227793
vt 0.172525 0.213436
vt 0.176264 0.197112
vt 0.271776 0.256453
vt 0.278817 0.226589
vt 0.286566 0.193705
vt 0.296851 0.141222
vt 0.292717 0.165759
vt 0.298563 0.119711
vt 0.299220 -0.021363
vt 0.098463 0.244697
vt 0.091475 0.251760
vt 0.082329 0.236142
vt 0.088580 0.231423
vt 0.084209 0.258378
vt 0.075693 0.240611
vt 0.069526 0.225621
vt 0.075562 0.223267
vt 0.081144 0.220838
vt 0.076967 0.264545
vt 0.068647 0.245148
vt 0.068185 0.270390
vt 0.059729 0.249742
vt 0.053922 0.231370
vt 0.062793 0.228344
vt 0.047342 0.254400
vt 0.041194 0.234626
vt 0.056243 0.275980
vt 0.042536 0.246028
vt 0.032930 0.213259
vt 0.026193 0.182243
vt 0.124885 0.278535
vt 0.115825 0.290785
vt 0.102330 0.269833
vt 0.110304 0.260402
vt 0.106917 0.301804
vt 0.094301 0.278494
vt 0.099470 0.310501
vt 0.086971 0.285933
vt 0.091559 0.318013
vt 0.078601 0.292704
vt 0.233553 0.623526
vt 0.201561 0.582186
vt 0.208169 0.498318
vt 0.239332 0.524783
vt 0.170840 0.535210
vt 0.178541 0.468582
vt 0.185811 0.458265
vt 0.213230 0.488751
vt 0.218579 0.475338
vt 0.192390 0.446613
vt 0.199389 0.429988
vt 0.225108 0.456541
vt 0.234984 0.428485
vt 0.262761 0.450337
vt 0.208725 0.404065
vt 0.218718 0.373931
vt 0.245673 0.395504
vt 0.274393 0.414799
vt 0.110385 0.417403
vt 0.120286 0.389635
vt 0.148011 0.429636
vt 0.139035 0.477132
vt 0.129229 0.381003
vt 0.156324 0.420151
vt 0.136501 0.371938
vt 0.163454 0.409940
vt 0.144070 0.360043
vt 0.170879 0.395763
vt 0.154074 0.342726
vt 0.180591 0.373939
vt 0.164738 0.322521
vt 0.190945 0.348516
vt 0.179623 0.179808
vt 0.115579 0.339049
vt 0.123115 0.328915
vt 0.108042 0.347269
vt 0.132744 0.315101
vt 0.142835 0.299255
vt 0.087797 0.365966
vt 0.098482 0.355236
vt 0.069705 0.321295
vt 0.081279 0.325393
vt 0.067437 0.299276
vt 0.054752 0.281670
vt 0.072062 0.213310
vt 0.066558 0.213952
vt 0.076934 0.212822
vt 0.050532 0.204575
vt 0.059706 0.205400
vt 0.060028 0.215097
vt 0.050991 0.216203
vt 0.021209 0.126551
vt 0.037035 0.202735
vt 0.037907 0.217082
vt 0.022422 0.152317
vt 0.060983 0.199093
vt 0.051825 0.196294
vt 0.038205 0.192036
vt 0.022313 0.106954
vt 0.295371 0.472450
vt 0.307522 0.432769
vt 0.269955 0.664093
vt 0.275703 0.550577
vt 0.058865 0.165372
vt 0.068053 0.176115
vt 0.048380 0.057716
vt 0.074466 0.184713
vt 0.079020 0.191301
vt 0.082524 0.196201
vt 0.085116 0.200233
vt 0.935929 0.224102
vt 0.942368 0.220529
vt 0.931104 0.226505
vt 0.927354 0.228253
vt 0.765473 0.302127
vt 0.759529 0.275759
vt 0.787358 0.266992
vt 0.793510 0.289097
vt 0.813188 0.259521
vt 0.819037 0.277274
vt 0.860316 0.258391
vt 0.841016 0.267261
vt 0.836475 0.253183
vt 0.857280 0.247327
vt 0.893159 0.243571
vt 0.877886 0.250347
vt 0.875855 0.241699
vt 0.891724 0.236848
vt 0.913606 0.234724
vt 0.905257 0.238328
vt 0.904348 0.232946
vt 0.913248 0.230139
vt 0.922058 0.228707
vt 0.918641 0.228719
vt 0.920461 0.232000
vt 0.918107 0.232749
vt 0.922744 0.231653
vt 0.922028 0.231674
vt 0.924175 0.229716
vt 0.924885 0.230629
vt 0.925104 0.231161
vt 0.924983 0.233428
vt 0.921261 0.232471
vt 0.922598 0.231889
vt 0.922360 0.237167
vt 0.916656 0.241932
vt 0.912754 0.236760
vt 0.918405 0.233744
vt 0.890719 0.248809
vt 0.903348 0.241793
vt 0.907483 0.248675
vt 0.895491 0.257661
vt 0.857563 0.266870
vt 0.875591 0.257469
vt 0.881086 0.268662
vt 0.863754 0.281157
vt 0.842978 0.294778
vt 0.818764 0.310213
vt 0.811606 0.286788
vt 0.836130 0.276144
vt 0.791276 0.328384
vt 0.762636 0.346545
vt 0.756062 0.314708
vt 0.784467 0.300722
vt 0.734599 0.361755
vt 0.703691 0.375148
vt 0.693493 0.334318
vt 0.727372 0.325276
vt 0.666624 0.387005
vt 0.626244 0.398274
vt 0.605464 0.350930
vt 0.650077 0.343238
vt 0.585672 0.410370
vt 0.549439 0.421056
vt 0.530005 0.370976
vt 0.563876 0.359888
vt 0.495110 0.429045
vt 0.520281 0.427070
vt 0.495617 0.379580
vt 0.509799 0.377976
vt 0.469907 0.427936
vt 0.440704 0.423289
vt 0.460143 0.371934
vt 0.481304 0.377771
vt 0.362666 0.402454
vt 0.403963 0.414755
vt 0.385011 0.357300
vt 0.425044 0.365594
vt 0.285904 0.375880
vt 0.322415 0.389526
vt 0.298472 0.334317
vt 0.341336 0.345142
vt 0.228199 0.343388
vt 0.255460 0.360707
vt 0.237021 0.311530
vt 0.265160 0.323796
vt 0.174776 0.301100
vt 0.200731 0.322485
vt 0.184152 0.278121
vt 0.209794 0.295022
vt 0.133154 0.265704
vt 0.152208 0.282403
vt 0.140986 0.252093
vt 0.161027 0.264370
vt 0.110768 0.228948
vt 0.124458 0.239987
vt 0.117586 0.250483
vt 0.104861 0.237124
vt 0.091006 0.213229
vt 0.099406 0.219868
vt 0.094345 0.226106
vt 0.086377 0.217713
vt 0.079669 0.207685
vt 0.081578 0.211887
vt 0.083488 0.207425
vt 0.086026 0.209197
vt 0.080244 0.204932
vt 0.079933 0.205414
vt 0.082124 0.206271
vt 0.082144 0.206534
vt 0.084317 0.207092
vt 0.082889 0.206517
vt 0.081106 0.204153
vt 0.083331 0.203544
vt 0.090567 0.211045
vt 0.086515 0.208268
vt 0.086659 0.204157
vt 0.091681 0.206523
vt 0.109347 0.221941
vt 0.098155 0.216090
vt 0.099878 0.210843
vt 0.111569 0.216791
vt 0.142093 0.235654
vt 0.123163 0.228474
vt 0.126338 0.224081
vt 0.143695 0.232414
vt 0.183051 0.256034
vt 0.161739 0.244189
vt 0.163310 0.241084
vt 0.185391 0.250282
vt 0.232788 0.285467
vt 0.206364 0.269545
vt 0.209984 0.260516
vt 0.236659 0.271589
vt 0.264959 0.282535
vt 0.295376 0.292428
vt 0.289141 0.312271
vt 0.260564 0.298903
vt 0.361497 0.334207
vt 0.326650 0.324073
vt 0.329250 0.301551
vt 0.363980 0.308737
vt 0.394785 0.312109
vt 0.425070 0.313495
vt 0.418678 0.342735
vt 0.389667 0.339771
vt 0.496221 0.315011
vt 0.458999 0.315292
vt 0.495875 0.355233
vt 0.455817 0.341870
vt 0.533510 0.313346
vt 0.567724 0.310187
vt 0.572390 0.353386
vt 0.535795 0.354686
vt 0.629631 0.305369
vt 0.598068 0.308048
vt 0.629010 0.345271
vt 0.600670 0.348170
vt 0.702945 0.327515
vt 0.664934 0.338003
vt 0.664719 0.299914
vt 0.699005 0.292442
vt 0.730158 0.284211
vt 0.735828 0.315185
vn 0.6682 0.0137 -0.7439
vn 0.6446 -0.1515 -0.7494
vn 0.6684 -0.1199 -0.7341
vn 0.6902 0.0691 -0.7204
vn 0.6076 -0.3502 -0.7129
vn 0.6197 -0.3259 -0.7140
vn 0.6180 -0.3497 -0.7041
vn 0.7068 -0.1166 -0.6978
vn 0.7350 0.1219 -0.6670
vn 0.3143 0.8485 -0.4258
vn 0.4139 0.7405 -0.5295
vn 0.4651 0.7207 -0.5141
vn 0.3828 0.8512 -0.3590
vn 0.4916 0.5809 -0.6488
vn 0.5110 0.5274 -0.6788
vn 0.4766 0.4570 -0.7510
vn 0.4904 0.6915 -0.5304
vn 0.4362 0.8396 -0.3237
vn 0.5540 0.5766 -0.6005
vn 0.5713 0.4597 -0.6799
vn 0.5700 0.3497 -0.7435
vn 0.5992 0.4510 -0.6615
vn 0.6026 0.3120 -0.7345
vn 0.5967 0.2311 -0.7684
vn 0.6366 0.1778 -0.7504
vn 0.6266 0.2584 -0.7353
vn 0.6425 0.3513 -0.6810
vn 0.5578 -0.1954 -0.8067
vn 0.5314 -0.3375 -0.7770
vn 0.5875 -0.2933 -0.7542
vn 0.6290 -0.1362 -0.7654
vn 0.4615 -0.5156 -0.7220
vn 0.5017 -0.4918 -0.7116
vn 0.5330 -0.4571 -0.7120
vn 0.6098 -0.2510 -0.7518
vn 0.6551 -0.0873 -0.7505
vn 0.4363 -0.3962 -0.8079
vn 0.3833 -0.5604 -0.7342
vn 0.4582 -0.2623 -0.8492
vn 0.3607 -0.3249 -0.8743
vn 0.3322 -0.4693 -0.8181
vn 0.2813 -0.6379 -0.7169
vn 0.1472 -0.3723 -0.9164
vn 0.0915 -0.6028 -0.7926
vn 0.2165 -0.5425 -0.8117
vn 0.2599 -0.3662 -0.8935
vn 0.0482 -0.8104 -0.5839
vn 0.1640 -0.7307 -0.6627
vn -0.1520 0.2363 -0.9597
vn -0.0935 0.7438 -0.6618
vn -0.1610 0.8162 -0.5549
vn -0.2841 0.0343 -0.9582
vn 0.0744 0.9139 -0.3991
vn 0.0456 0.9592 -0.2790
vn 0.0309 0.9863 -0.1623
vn -0.1794 0.8967 -0.4048
vn -0.3889 -0.2623 -0.8831
vn 0.2609 0.1495 -0.9537
vn 0.2606 0.2801 -0.9239
vn 0.2210 0.2230 -0.9494
vn 0.2713 0.0789 -0.9593
vn 0.2607 0.4252 -0.8667
vn 0.2061 0.4099 -0.8885
vn 0.1231 0.3938 -0.9109
vn 0.1699 0.1406 -0.9754
vn 0.2478 -0.0172 -0.9687
vn 0.3265 -0.0108 -0.9451
vn 0.2873 0.0474 -0.9567
vn 0.3278 -0.0856 -0.9408
vn 0.3976 -0.1000 -0.9121
vn 0.3861 -0.0397 -0.9216
vn 0.3442 -0.0203 -0.9387
vn 0.5274 -0.0473 -0.8483
vn 0.4943 -0.0403 -0.8684
vn 0.4395 -0.0430 -0.8972
vn 0.4568 -0.0784 -0.8861
vn 0.4630 -0.0451 -0.8852
vn 0.4062 -0.0384 -0.9130
vn 0.5587 -0.0215 -0.8291
vn 0.5267 -0.0272 -0.8496
vn 0.6011 -0.0081 -0.7992
vn 0.6441 0.0454 -0.7636
vn 0.6033 0.0391 -0.7965
vn 0.5791 0.0504 -0.8137
vn 0.6695 0.1450 -0.7285
vn 0.6769 0.2258 -0.7006
vn 0.7050 0.3149 -0.6355
vn 0.6326 -0.0377 -0.7736
vn 0.5532 -0.0961 -0.8275
vn 0.6692 0.0187 -0.7428
vn 0.4624 -0.1566 -0.8727
vn 0.3809 -0.2040 -0.9018
vn 0.2014 -0.1750 -0.9637
vn 0.2972 -0.2164 -0.9300
vn 0.4349 0.6139 -0.6587
vn 0.5358 0.4127 -0.7366
vn 0.5639 0.3714 -0.7376
vn 0.3840 0.6257 -0.6790
vn 0.5065 0.4347 -0.7447
vn 0.6158 0.1413 -0.7752
vn 0.6272 0.0774 -0.7750
vn 0.6191 -0.0273 -0.7849
vn 0.5314 0.2821 -0.7987
vn 0.3831 0.1177 -0.9162
vn 0.5050 -0.2078 -0.8377
vn 0.1987 -0.4440 -0.8737
vn 0.2711 0.7753 -0.5704
vn 0.2623 0.8421 -0.4713
vn 0.4431 0.7952 -0.4138
vn 0.4436 0.6959 -0.5648
vn 0.2757 0.8498 -0.4493
vn 0.3766 0.8278 -0.4159
vn 0.4793 0.7716 -0.4182
vn 0.4944 0.7071 -0.5056
vn 0.5900 0.5742 -0.5676
vn 0.7219 0.2412 -0.6486
vn 0.5973 0.3230 -0.7341
vn 0.5201 0.5672 -0.6386
vn 0.6555 0.4862 -0.5778
vn 0.4221 0.4063 -0.8104
vn 0.3346 0.6321 -0.6990
vn 0.6147 -0.1269 -0.7785
vn 0.4758 -0.1052 -0.8732
vn 0.6960 -0.1474 -0.7028
vn 0.5442 -0.4814 -0.6870
vn 0.4752 -0.5271 -0.7045
vn 0.3614 -0.5742 -0.7346
vn 0.3142 -0.6096 -0.7278
vn -0.0347 -0.7361 -0.6760
vn 0.5137 -0.4388 -0.7373
vn 0.4171 -0.5578 -0.7176
vn 0.2340 -0.6675 -0.7069
vn -0.0520 -0.7564 -0.6520
vn -0.0015 -0.5204 -0.8539
vn -0.0012 -0.0362 -0.9993
vn -0.2118 -0.0446 -0.9763
vn -0.1444 -0.5418 -0.8280
vn -0.0019 0.3723 -0.9281
vn -0.1635 0.3928 -0.9050
vn -0.0839 0.4310 -0.8985
vn -0.1314 -0.0691 -0.9889
vn -0.1205 -0.5682 -0.8141
vn 0.0070 0.8243 -0.5661
vn -0.0815 0.8239 -0.5609
vn -0.0999 0.6938 -0.7132
vn 0.0003 0.7042 -0.7100
vn -0.0298 0.8192 -0.5727
vn -0.0283 0.6912 -0.7221
vn -0.0061 0.8537 -0.5208
vn -0.0493 0.8646 -0.5001
vn 0.0141 0.8847 -0.4660
vn 0.0441 0.8853 -0.4629
vn 0.0749 0.8777 -0.4733
vn -0.0703 0.8622 -0.5017
vn 0.0082 -0.8895 -0.4569
vn -0.0051 -0.8798 -0.4753
vn -0.1766 -0.8263 -0.5348
vn -0.1756 -0.8552 -0.4876
vn -0.0040 -0.6129 -0.7901
vn -0.0459 -0.5679 -0.8218
vn 0.0213 0.4402 -0.8977
vn 0.3223 0.4250 -0.8459
vn 0.1834 0.0032 -0.9830
vn 0.0049 -0.0273 -0.9996
vn 0.3682 0.7049 -0.6062
vn 0.3572 0.8670 -0.3474
vn 0.0365 0.7549 -0.6548
vn 0.0394 0.9202 -0.3894
vn 0.1898 0.4532 -0.8710
vn 0.2071 -0.0936 -0.9738
vn 0.1451 -0.5962 -0.7896
vn 0.1465 0.6745 -0.7236
vn 0.1035 0.8088 -0.5789
vn 0.1471 0.8603 -0.4881
vn 0.1639 0.8725 -0.4603
vn 0.6031 0.1349 -0.7862
vn 0.6517 0.1082 -0.7507
vn 0.6084 0.1676 -0.7757
vn 0.6282 -0.2001 -0.7519
vn 0.5754 -0.4054 -0.7103
vn 0.6626 -0.0394 -0.7480
vn 0.7288 -0.1383 -0.6706
vn 0.5942 -0.4112 -0.6913
vn 0.7632 0.1782 -0.6211
vn 0.7131 0.4014 -0.5748
vn 0.6480 0.4539 -0.6116
vn 0.5329 0.5873 -0.6092
vn 0.5341 0.6830 -0.4982
vn 0.3342 0.9225 -0.1932
vn 0.2890 0.9464 -0.1444
vn 0.3459 0.9052 -0.2468
vn 0.4082 0.8657 -0.2898
vn 0.2192 0.9677 -0.1244
vn 0.2674 0.9392 -0.2155
vn 0.3152 0.8984 -0.3058
vn 0.4002 0.8547 -0.3306
vn 0.4650 0.7996 -0.3799
vn 0.4664 0.7700 -0.4353
vn 0.5366 0.6987 -0.4731
vn 0.3783 0.8309 -0.4081
vn 0.4468 0.7294 -0.5180
vn 0.5272 0.6611 -0.5339
vn 0.5877 0.5814 -0.5627
vn 0.4299 0.6731 -0.6017
vn 0.5028 0.6193 -0.6030
vn 0.3878 0.6866 -0.6149
vn 0.4496 0.6405 -0.6227
vn 0.5108 0.5739 -0.6401
vn 0.5546 0.5488 -0.6255
vn 0.3541 0.8684 -0.3472
vn 0.3509 0.9009 -0.2554
vn 0.4238 0.8254 -0.3730
vn 0.4188 0.7983 -0.4329
vn 0.4941 0.7489 -0.4416
vn 0.4931 0.7140 -0.4970
vn 0.5764 0.6244 -0.5272
vn 0.6018 0.5625 -0.5670
vn 0.6314 0.5011 -0.5918
vn 0.6596 0.4226 -0.6215
vn 0.6024 -0.2507 -0.7578
vn 0.6300 -0.1263 -0.7663
vn 0.6546 -0.0247 -0.7556
vn 0.6498 -0.1160 -0.7512
vn 0.6216 0.1797 -0.7624
vn 0.6388 0.2127 -0.7394
vn 0.6798 0.0591 -0.7311
vn 0.6840 -0.0109 -0.7294
vn 0.5034 0.4353 -0.7464
vn 0.3678 0.6236 -0.6898
vn 0.3733 0.6235 -0.6870
vn 0.5213 0.4315 -0.7362
vn 0.2910 0.7395 -0.6070
vn 0.2724 0.7388 -0.6164
vn 0.2103 0.8142 -0.5412
vn 0.2079 0.8011 -0.5613
vn 0.2086 0.7951 -0.5694
vn 0.2613 0.7458 -0.6128
vn 0.6899 0.1740 -0.7026
vn 0.6967 0.0803 -0.7129
vn 0.6867 0.1319 -0.7149
vn 0.6791 0.2052 -0.7048
vn 0.6489 0.2433 -0.7209
vn 0.6557 0.2813 -0.7007
vn 0.5362 0.4354 -0.7231
vn 0.5587 0.4566 -0.6923
vn 0.3784 0.6321 -0.6762
vn 0.4081 0.6550 -0.6360
vn 0.2523 0.7556 -0.6045
vn 0.2943 0.7673 -0.5697
vn 0.1960 0.7986 -0.5691
vn 0.2378 0.8132 -0.5313
vn 0.6744 0.0771 -0.7343
vn 0.4625 0.6862 -0.5614
vn 0.5910 0.5043 -0.6296
vn 0.6647 0.3439 -0.6632
vn 0.3214 0.8376 -0.4417
vn 0.3757 0.7803 -0.5000
vn 0.6640 0.2928 -0.6880
vn 0.6655 0.2810 -0.6915
vn 0.6434 0.3886 -0.6595
vn 0.6242 0.3908 -0.6765
vn 0.5713 0.4898 -0.6586
vn 0.6043 0.4735 -0.6408
vn 0.2111 0.9276 -0.3082
vn 0.1749 0.9622 -0.2087
vn 0.1427 0.9831 -0.1150
vn 0.2419 0.7476 -0.6185
vn 0.3487 0.7687 -0.5362
vn 0.2719 0.8662 -0.4192
vn 0.1469 0.8440 -0.5159
vn 0.2790 0.6626 -0.6951
vn 0.3269 0.7004 -0.6344
vn 0.3550 0.7012 -0.6183
vn 0.2867 0.6825 -0.6723
vn 0.1529 0.6215 -0.7683
vn 0.0258 0.6857 -0.7274
vn -0.0032 0.3480 -0.9375
vn 0.2581 0.5634 -0.7849
vn 0.2268 0.5780 -0.7839
vn 0.3469 0.7440 -0.5711
vn 0.2499 0.8324 -0.4946
vn 0.5803 -0.2698 -0.7684
vn 0.5227 -0.4130 -0.7458
vn -0.6691 0.0099 -0.7431
vn -0.6928 0.0661 -0.7181
vn -0.6722 -0.1228 -0.7301
vn -0.6456 -0.1553 -0.7477
vn -0.7354 0.1220 -0.6666
vn -0.7091 -0.1154 -0.6956
vn -0.6204 -0.3459 -0.7039
vn -0.6255 -0.3240 -0.7097
vn -0.6128 -0.3455 -0.7107
vn -0.3335 0.8413 -0.4255
vn -0.4049 0.8408 -0.3594
vn -0.4866 0.7080 -0.5118
vn -0.4255 0.7351 -0.5278
vn -0.4342 0.8356 -0.3365
vn -0.4991 0.6779 -0.5398
vn -0.4831 0.4394 -0.7573
vn -0.5196 0.5165 -0.6807
vn -0.4916 0.5842 -0.6458
vn -0.5549 0.5770 -0.5993
vn -0.5699 0.4656 -0.6770
vn -0.5999 0.3314 -0.7282
vn -0.5734 0.4592 -0.6785
vn -0.6401 0.3512 -0.6834
vn -0.6287 0.2574 -0.7338
vn -0.6375 0.1768 -0.7499
vn -0.5973 0.2301 -0.7683
vn -0.6033 0.3113 -0.7343
vn -0.5581 -0.1966 -0.8062
vn -0.6277 -0.1365 -0.7664
vn -0.5859 -0.2941 -0.7551
vn -0.5302 -0.3375 -0.7778
vn -0.6525 -0.0878 -0.7527
vn -0.6070 -0.2510 -0.7540
vn -0.5356 -0.4519 -0.7134
vn -0.5027 -0.4888 -0.7130
vn -0.4615 -0.5139 -0.7231
vn -0.3821 -0.5592 -0.7358
vn -0.4368 -0.3971 -0.8071
vn -0.2797 -0.6377 -0.7177
vn -0.3321 -0.4699 -0.8179
vn -0.3615 -0.3264 -0.8734
vn -0.4580 -0.2626 -0.8493
vn 0.1536 0.2365 -0.9594
vn -0.0071 -0.2625 -0.9649
vn 0.0564 -0.5756 -0.8158
vn 0.2854 0.0337 -0.9578
vn -0.1467 -0.3729 -0.9162
vn -0.0908 -0.6039 -0.7919
vn -0.0478 -0.8111 -0.5829
vn 0.0750 -0.8254 -0.5595
vn 0.3899 -0.2629 -0.8826
vn 0.1580 0.8148 -0.5578
vn 0.0964 0.7445 -0.6606
vn 0.1802 0.8961 -0.4056
vn -0.0315 0.9861 -0.1633
vn -0.0453 0.9594 -0.2785
vn -0.0737 0.9144 -0.3980
vn -0.2609 0.1495 -0.9537
vn -0.2633 0.0830 -0.9611
vn -0.2341 0.2279 -0.9451
vn -0.2606 0.2801 -0.9239
vn -0.2473 -0.0168 -0.9688
vn -0.1700 0.1406 -0.9754
vn -0.1244 0.3928 -0.9112
vn -0.2061 0.4099 -0.8885
vn -0.2608 0.4253 -0.8667
vn -0.5277 -0.0473 -0.8481
vn -0.4568 -0.0783 -0.8861
vn -0.4390 -0.0425 -0.8975
vn -0.4937 -0.0396 -0.8688
vn -0.3977 -0.0998 -0.9121
vn -0.3860 -0.0396 -0.9216
vn -0.3442 -0.0202 -0.9387
vn -0.4062 -0.0382 -0.9130
vn -0.4629 -0.0446 -0.8853
vn -0.5265 -0.0264 -0.8498
vn -0.5554 -0.0187 -0.8314
vn -0.5778 0.0513 -0.8146
vn -0.6021 0.0399 -0.7974
vn -0.6442 0.0447 -0.7635
vn -0.6003 -0.0078 -0.7998
vn -0.6793 0.2256 -0.6983
vn -0.6710 0.1451 -0.7271
vn -0.7052 0.3148 -0.6353
vn -0.5542 -0.0966 -0.8267
vn -0.6313 -0.0363 -0.7747
vn -0.6676 0.0197 -0.7442
vn -0.3815 -0.2046 -0.9015
vn -0.4613 -0.1558 -0.8735
vn 0.0054 0.3498 -0.9368
vn -0.0910 -0.0142 -0.9957
vn -0.2011 -0.1748 -0.9638
vn -0.5584 0.3691 -0.7430
vn -0.5301 0.4227 -0.7351
vn -0.4285 0.6229 -0.6545
vn -0.6114 -0.0446 -0.7901
vn -0.6229 0.0708 -0.7791
vn -0.6172 0.1420 -0.7739
vn -0.5039 0.4450 -0.7403
vn -0.3796 0.6328 -0.6749
vn -0.3846 0.0960 -0.9181
vn -0.5315 0.2663 -0.8041
vn -0.1908 -0.4620 -0.8661
vn -0.4968 -0.2298 -0.8369
vn -0.2704 0.7706 -0.5771
vn -0.4573 0.6917 -0.5590
vn -0.4170 0.8031 -0.4257
vn -0.2651 0.8421 -0.4696
vn -0.5920 0.5729 -0.5668
vn -0.4952 0.7057 -0.5067
vn -0.4805 0.7714 -0.4172
vn -0.3853 0.8246 -0.4143
vn -0.2816 0.8515 -0.4423
vn -0.7195 0.2408 -0.6514
vn -0.6585 0.4845 -0.5759
vn -0.5210 0.5638 -0.6409
vn -0.6016 0.3179 -0.7328
vn -0.3379 0.6248 -0.7039
vn -0.4272 0.4016 -0.8101
vn -0.4751 -0.1090 -0.8731
vn -0.6137 -0.1293 -0.7789
vn -0.3633 -0.5791 -0.7298
vn -0.4698 -0.5316 -0.7047
vn -0.5348 -0.4835 -0.6930
vn -0.6943 -0.1483 -0.7042
vn 0.0263 -0.7470 -0.6643
vn -0.2711 -0.6215 -0.7350
vn 0.0504 -0.7628 -0.6447
vn -0.2252 -0.6794 -0.6984
vn -0.3990 -0.5729 -0.7160
vn -0.4981 -0.4576 -0.7365
vn 0.1410 -0.5431 -0.8277
vn 0.2105 -0.0456 -0.9765
vn 0.1082 -0.5713 -0.8135
vn 0.1327 -0.0708 -0.9886
vn 0.0878 0.4288 -0.8991
vn 0.1626 0.3909 -0.9059
vn 0.1001 0.6898 -0.7171
vn 0.0850 0.8204 -0.5655
vn 0.0309 0.6853 -0.7276
vn 0.0401 0.8149 -0.5782
vn 0.0651 0.8620 -0.5026
vn 0.0718 0.8586 -0.5076
vn -0.0770 0.8738 -0.4801
vn -0.0331 0.8857 -0.4630
vn 0.1786 -0.8601 -0.4778
vn 0.1699 -0.8319 -0.5282
vn 0.0441 -0.5777 -0.8151
vn -0.1795 -0.0050 -0.9837
vn -0.3028 0.4226 -0.8542
vn -0.3079 0.8752 -0.3731
vn -0.3445 0.7079 -0.6166
vn -0.2050 -0.0963 -0.9740
vn -0.1896 0.4499 -0.8727
vn -0.1441 -0.6003 -0.7867
vn -0.1055 0.8041 -0.5851
vn -0.1468 0.6667 -0.7307
vn -0.1630 0.8701 -0.4651
vn -0.0930 0.8647 -0.4937
vn -0.6489 0.1084 -0.7531
vn -0.6147 0.1268 -0.7785
vn -0.6073 0.1676 -0.7766
vn -0.5781 -0.3964 -0.7132
vn -0.6248 -0.2007 -0.7545
vn -0.6596 -0.0412 -0.7505
vn -0.5918 -0.4090 -0.6946
vn -0.7285 -0.1369 -0.6712
vn -0.7635 0.1778 -0.6209
vn -0.6475 0.4520 -0.6135
vn -0.7144 0.4010 -0.5734
vn -0.5524 0.5807 -0.5981
vn -0.5343 0.6839 -0.4968
vn -0.3354 0.9239 -0.1840
vn -0.4066 0.8636 -0.2980
vn -0.3460 0.9069 -0.2407
vn -0.2902 0.9449 -0.1514
vn -0.4624 0.7970 -0.3885
vn -0.4005 0.8545 -0.3307
vn -0.3151 0.8991 -0.3039
vn -0.2671 0.9393 -0.2155
vn -0.2196 0.9674 -0.1263
vn -0.5330 0.6963 -0.4807
vn -0.4679 0.7724 -0.4294
vn -0.5879 0.5813 -0.5626
vn -0.5272 0.6610 -0.5340
vn -0.4461 0.7294 -0.5186
vn -0.3782 0.8307 -0.4086
vn -0.4980 0.6172 -0.6091
vn -0.4358 0.6765 -0.5936
vn -0.5542 0.5488 -0.6258
vn -0.5105 0.5741 -0.6402
vn -0.4494 0.6404 -0.6229
vn -0.3878 0.6865 -0.6151
vn -0.3588 0.8690 -0.3409
vn -0.4141 0.7986 -0.4368
vn -0.4291 0.8262 -0.3652
vn -0.3454 0.8998 -0.2668
vn -0.4891 0.7144 -0.5005
vn -0.4942 0.7484 -0.4424
vn -0.5993 0.5627 -0.5695
vn -0.5806 0.6252 -0.5215
vn -0.6614 0.4245 -0.6183
vn -0.6313 0.5012 -0.5919
vn -0.5910 -0.2543 -0.7655
vn -0.6431 -0.1118 -0.7576
vn -0.6537 -0.0212 -0.7564
vn -0.6201 -0.1330 -0.7732
vn -0.6842 -0.0040 -0.7292
vn -0.6802 0.0644 -0.7302
vn -0.6380 0.2168 -0.7389
vn -0.6222 0.1831 -0.7612
vn -0.5012 0.4417 -0.7441
vn -0.5195 0.4358 -0.7350
vn -0.3703 0.6268 -0.6855
vn -0.3642 0.6282 -0.6876
vn -0.2710 0.7406 -0.6148
vn -0.2892 0.7404 -0.6068
vn -0.2583 0.7485 -0.6108
vn -0.2063 0.7945 -0.5711
vn -0.2098 0.8006 -0.5612
vn -0.2125 0.8126 -0.5427
vn -0.6906 0.1757 -0.7016
vn -0.6800 0.2082 -0.7030
vn -0.6875 0.1355 -0.7134
vn -0.6986 0.0842 -0.7105
vn -0.6542 0.2830 -0.7014
vn -0.6483 0.2467 -0.7203
vn -0.5574 0.4584 -0.6922
vn -0.5352 0.4386 -0.7219
vn -0.4065 0.6563 -0.6356
vn -0.3764 0.6344 -0.6752
vn -0.2973 0.7684 -0.5667
vn -0.2477 0.7575 -0.6039
vn -0.2559 0.8160 -0.5184
vn -0.1937 0.7980 -0.5706
vn -0.6725 0.0777 -0.7360
vn -0.5904 0.5055 -0.6292
vn -0.4598 0.6873 -0.5623
vn -0.6640 0.3454 -0.6632
vn -0.3729 0.7809 -0.5011
vn -0.3304 0.8388 -0.4328
vn -0.6657 0.2823 -0.6908
vn -0.6652 0.2953 -0.6857
vn -0.6243 0.3918 -0.6758
vn -0.6435 0.3897 -0.6588
vn -0.5976 0.4704 -0.6493
vn -0.5713 0.4906 -0.6580
vn -0.1744 0.9625 -0.2079
vn -0.2110 0.9277 -0.3079
vn -0.1424 0.9831 -0.1148
vn -0.2421 0.7475 -0.6186
vn -0.1469 0.8441 -0.5158
vn -0.2718 0.8663 -0.4190
vn -0.3485 0.7684 -0.5367
vn -0.2790 0.6625 -0.6952
vn -0.2810 0.6780 -0.6793
vn -0.3525 0.6992 -0.6219
vn -0.3268 0.7003 -0.6347
vn -0.0266 0.6848 -0.7283
vn -0.1519 0.6221 -0.7681
vn -0.2404 0.5899 -0.7709
vn -0.2583 0.5634 -0.7848
vn -0.3462 0.7441 -0.5714
vn -0.2564 0.8288 -0.4974
vn -0.5045 -0.4260 -0.7510
vn -0.5772 -0.2821 -0.7663
vn -0.3235 -0.0037 -0.9462
vn -0.3276 -0.0853 -0.9409
vn -0.2873 0.0473 -0.9567
vn -0.2972 -0.2165 -0.9300
vn -0.2598 -0.3669 -0.8933
vn -0.2163 -0.5437 -0.8110
vn -0.1646 -0.7321 -0.6610
vn 0.0078 -0.2628 -0.9648
vn 0.0903 -0.0124 -0.9958
vn -0.0555 -0.5762 -0.8155
vn -0.0742 -0.8253 -0.5598
vn 0.4153 -0.6746 -0.6103
vn 0.4923 -0.5686 -0.6590
vn 0.5472 -0.5439 -0.6362
vn 0.4962 -0.6502 -0.5754
vn 0.5509 -0.5650 -0.6143
vn 0.5140 -0.6604 -0.5474
vn 0.4084 -0.7112 -0.5722
vn 0.4715 -0.6875 -0.5523
vn 0.5060 -0.6079 -0.6119
vn 0.4438 -0.6444 -0.6228
vn 0.3296 -0.7382 -0.5886
vn 0.3593 -0.7262 -0.5862
vn 0.3997 -0.6655 -0.6304
vn 0.3685 -0.6797 -0.6342
vn 0.2169 -0.8344 -0.5067
vn 0.2891 -0.7693 -0.5697
vn 0.3129 -0.7154 -0.6247
vn 0.2278 -0.7876 -0.5726
vn 0.0414 -0.9239 -0.3805
vn 0.1277 -0.8676 -0.4806
vn 0.0545 -0.9535 -0.2963
vn 0.1288 -0.9074 -0.4000
vn -0.3301 -0.7051 -0.6275
vn -0.0111 -0.9656 -0.2599
vn -0.0406 -0.9377 -0.3452
vn -0.3669 -0.5857 -0.7227
vn -0.1369 0.9633 -0.2309
vn 0.0420 0.9965 -0.0718
vn 0.0606 0.9976 -0.0323
vn -0.0622 0.9907 -0.1212
vn 0.1278 0.9908 -0.0440
vn 0.1868 0.9810 -0.0530
vn 0.1779 0.9837 -0.0256
vn 0.1294 0.9915 -0.0168
vn 0.2362 0.9702 -0.0531
vn 0.2260 0.9737 -0.0300
vn 0.2436 0.9676 -0.0662
vn 0.2612 0.9619 -0.0803
vn 0.2157 0.9710 -0.1033
vn 0.2160 0.9726 -0.0857
vn 0.2577 0.9558 -0.1419
vn 0.2732 0.9435 -0.1873
vn 0.2568 0.9204 -0.2947
vn 0.2027 0.8871 -0.4146
vn 0.1492 0.9419 -0.3010
vn 0.1826 0.9685 -0.1695
vn 0.1828 0.8431 -0.5057
vn 0.1845 0.8197 -0.5422
vn 0.1602 0.8536 -0.4957
vn 0.1422 0.8968 -0.4190
vn 0.1667 0.8216 -0.5452
vn 0.1504 0.8438 -0.5152
vn 0.1288 0.8469 -0.5159
vn 0.1407 0.8414 -0.5218
vn 0.1684 0.8677 -0.4677
vn 0.2350 0.8931 -0.3835
vn 0.1942 0.9047 -0.3791
vn 0.1303 0.8757 -0.4650
vn 0.3128 0.8987 -0.3075
vn 0.3408 0.9057 -0.2522
vn 0.2908 0.9207 -0.2601
vn 0.2672 0.9111 -0.3139
vn -0.0005 0.9739 -0.2270
vn 0.2675 0.9370 -0.2249
vn 0.0245 0.9812 -0.1912
vn 0.2155 0.9537 -0.2097
vn -0.2233 0.9451 -0.2384
vn -0.3274 0.9086 -0.2594
vn -0.2780 0.9235 -0.2642
vn -0.1801 0.9599 -0.2148
vn -0.2402 0.8897 -0.3882
vn -0.3196 0.8953 -0.3104
vn -0.2073 0.9041 -0.3738
vn -0.2773 0.9093 -0.3103
vn -0.1647 0.8422 -0.5133
vn -0.1602 0.8652 -0.4751
vn -0.1346 0.8453 -0.5171
vn -0.1393 0.8733 -0.4669
vn -0.1933 0.8181 -0.5416
vn -0.1716 0.8195 -0.5469
vn -0.1611 0.8537 -0.4952
vn -0.1425 0.8409 -0.5222
vn -0.1998 0.8871 -0.4162
vn -0.1679 0.8406 -0.5150
vn -0.1489 0.9420 -0.3006
vn -0.1421 0.8970 -0.4186
vn -0.2723 0.9429 -0.1920
vn -0.2455 0.9189 -0.3087
vn -0.2150 0.9712 -0.1026
vn -0.1817 0.9687 -0.1691
vn -0.2361 0.9703 -0.0531
vn -0.2157 0.9727 -0.0851
vn -0.2573 0.9558 -0.1421
vn -0.2611 0.9620 -0.0800
vn -0.1780 0.9837 -0.0257
vn -0.2259 0.9737 -0.0301
vn -0.2431 0.9678 -0.0647
vn -0.1807 0.9826 -0.0427
vn -0.0428 0.9964 -0.0733
vn -0.1268 0.9910 -0.0428
vn -0.0607 0.9976 -0.0327
vn -0.1294 0.9914 -0.0172
vn 0.3524 -0.5814 -0.7333
vn 0.1273 0.9632 -0.2366
vn 0.3309 -0.6980 -0.6351
vn 0.0618 0.9912 -0.1167
vn -0.0542 -0.9538 -0.2955
vn 0.0117 -0.9656 -0.2598
vn 0.0414 -0.9378 -0.3447
vn -0.0406 -0.9245 -0.3791
vn -0.2169 -0.8349 -0.5059
vn -0.1289 -0.9080 -0.3987
vn -0.1279 -0.8682 -0.4794
vn -0.2278 -0.7880 -0.5719
vn -0.3294 -0.7389 -0.5878
vn -0.2889 -0.7698 -0.5691
vn -0.3131 -0.7152 -0.6249
vn -0.3693 -0.6788 -0.6347
vn -0.4115 -0.7107 -0.5706
vn -0.3597 -0.7270 -0.5849
vn -0.4019 -0.6634 -0.6312
vn -0.4486 -0.6399 -0.6239
vn -0.5237 -0.6487 -0.5522
vn -0.4799 -0.6811 -0.5531
vn -0.5143 -0.5968 -0.6159
vn -0.5596 -0.5563 -0.6143
vn -0.4151 -0.6744 -0.6107
vn -0.5012 -0.6418 -0.5804
vn -0.5523 -0.5382 -0.6367
vn -0.4933 -0.5677 -0.6590
vn -0.4094 -0.6344 -0.6557
vn -0.3209 -0.7141 -0.6221
vn -0.1980 -0.8088 -0.5538
vn -0.3020 -0.7386 -0.6027
vn -0.1093 -0.8888 -0.4450
vn -0.1344 -0.8642 -0.4849
vn -0.2536 -0.7799 -0.5722
vn -0.1840 -0.8132 -0.5521
vn -0.0815 -0.8189 -0.5682
vn 0.0523 -0.8101 -0.5839
vn 0.0045 -0.8482 -0.5296
vn -0.0636 -0.8811 -0.4687
vn 0.0018 -0.7871 -0.6169
vn 0.0531 -0.7941 -0.6055
vn -0.0033 -0.8124 -0.5831
vn 0.0275 -0.8197 -0.5722
vn -0.0614 -0.7920 -0.6074
vn -0.0552 -0.8059 -0.5894
vn -0.0132 -0.8438 -0.5365
vn -0.0349 -0.8174 -0.5750
vn 0.1884 -0.8064 -0.5605
vn 0.0764 -0.8126 -0.5778
vn 0.1136 -0.8817 -0.4580
vn 0.0563 -0.8750 -0.4809
vn 0.2165 -0.8007 -0.5585
vn 0.1512 -0.8565 -0.4934
vn 0.2650 -0.7725 -0.5770
vn 0.3328 -0.7088 -0.6219
vn 0.4170 -0.6315 -0.6537
vn 0.3131 -0.7323 -0.6047
s 1
f 1/1/1 2/2/2 3/3/3 4/4/4
f 2/2/2 5/5/5 6/6/6 3/3/3
f 3/3/3 6/6/6 7/7/7 8/8/8
f 4/4/4 3/3/3 8/8/8 9/9/9
f 10/10/10 11/11/11 12/12/12 13/13/13
f 11/11/11 14/14/14 15/15/15 12/12/12
f 12/12/12 15/15/15 16/16/16 17/17/17
f 13/13/13 12/12/12 17/17/17 18/18/18
f 19/19/19 20/20/20 21/21/21 22/22/22
f 20/20/20 23/23/23 24/24/24 21/21/21
f 21/21/21 24/24/24 25/25/25 26/26/26
f 22/22/22 21/21/21 26/26/26 27/27/27
f 28/28/28 29/29/29 30/30/30 31/31/31
f 29/29/29 32/32/32 33/33/33 30/30/30
f 30/30/30 33/33/33 34/34/34 35/35/35
f 31/31/31 30/30/30 35/35/35 36/36/36
f 32/32/32 29/29/29 37/37/37 38/38/38
f 29/29/29 28/28/28 39/39/39 37/37/37
f 37/37/37 39/39/39 40/40/40 41/41/41
f 38/38/38 37/37/37 41/41/41 42/42/42
f 43/43/43 44/44/44 45/45/45 46/46/46
f 44/44/44 47/47/47 48/48/48 45/45/45
f 45/45/45 48/48/48 42/42/42 41/41/41
f 46/46/46 45/45/45 41/41/41 40/40/40
f 49/49/49 50/50/50 51/51/51 52/52/52
f 50/50/50 53/53/53 54/54/54 51/51/51
f 51/51/51 54/54/54 55/55/55 56/56/56
f 52/52/52 51/51/51 56/56/56 57/57/57
f 58/58/58 59/59/59 60/60/60 61/61/61
f 59/59/59 62/62/62 63/63/63 60/60/60
f 60/60/60 63/63/63 64/64/64 65/65/65
f 61/61/61 60/60/60 65/65/65 66/66/66
f 58/58/58 61/61/61 67/67/67 68/68/68
f 61/61/61 66/66/66 69/69/69 67/67/67
f 67/67/67 69/69/69 70/70/70 71/71/71
f 68/68/68 67/67/67 71/71/71 72/72/72
f 73/73/73 74/74/74 75/75/75 76/76/76
f 74/74/74 77/77/77 78/78/78 75/75/75
f 75/75/75 78/78/78 72/72/72 71/71/71
f 76/76/76 75/75/75 71/71/71 70/70/70
f 77/77/77 74/74/74 79/79/79 80/80/80
f 74/74/74 73/73/73 81/81/81 79/79/79
f 79/79/79 81/81/81 82/82/82 83/83/83
f 80/80/80 79/79/79 83/83/83 84/84/84
f 25/25/25 85/85/85 86/86/86 26/26/26
f 85/85/85 1/1/1 4/4/4 86/86/86
f 86/86/86 4/4/4 9/9/9 87/87/87
f 26/26/26 86/86/86 87/87/87 27/27/27
f 28/28/28 31/31/31 88/88/88 89/89/89
f 31/31/31 36/36/36 90/90/90 88/88/88
f 88/88/88 90/90/90 82/82/82 81/81/81
f 89/89/89 88/88/88 81/81/81 73/73/73
f 40/40/40 39/39/39 91/91/91 92/92/92
f 39/39/39 28/28/28 89/89/89 91/91/91
f 91/91/91 89/89/89 73/73/73 76/76/76
f 92/92/92 91/91/91 76/76/76 70/70/70
f 66/66/66 93/93/93 94/94/94 69/69/69
f 93/93/93 43/43/43 46/46/46 94/94/94
f 94/94/94 46/46/46 40/40/40 92/92/92
f 69/69/69 94/94/94 92/92/92 70/70/70
f 14/14/14 95/95/95 96/96/96 97/97/97
f 95/95/95 98/98/98 99/99/99 96/96/96
f 96/96/96 99/99/99 100/100/100 101/101/101
f 97/97/97 96/96/96 101/101/101 102/102/102
f 16/16/16 15/15/15 103/103/103 104/104/104
f 15/15/15 14/14/14 97/97/97 103/103/103
f 103/103/103 97/97/97 102/102/102 105/105/105
f 104/104/104 103/103/103 105/105/105 106/106/106
f 107/107/107 108/108/108 109/109/109 110/110/110
f 108/108/108 111/111/111 112/112/112 109/109/109
f 109/109/109 112/112/112 113/113/113 114/114/114
f 110/110/110 109/109/109 114/114/114 115/115/115
f 116/116/116 117/117/117 118/118/118 119/119/119
f 117/117/117 120/120/120 121/121/121 118/118/118
f 118/118/118 121/121/121 107/107/107 110/110/110
f 119/119/119 118/118/118 110/110/110 115/115/115
f 120/120/120 117/117/117 122/122/122 123/123/123
f 117/117/117 116/116/116 124/124/124 122/122/122
f 122/122/122 124/124/124 125/125/125 126/126/126
f 123/123/123 122/122/122 126/126/126 127/127/127
f 106/106/106 105/105/105 128/128/128 129/129/129
f 105/105/105 102/102/102 130/130/130 128/128/128
f 128/128/128 130/130/130 131/131/131 132/132/132
f 129/129/129 128/128/128 132/132/132 133/133/133
f 134/134/134 135/135/135 136/136/136 137/137/137
f 135/135/135 138/138/138 139/139/139 136/136/136
f 136/136/136 139/139/139 140/140/140 141/141/141
f 137/137/137 136/136/136 141/141/141 142/142/142
f 143/143/143 144/144/144 145/145/145 146/146/146
f 144/144/144 147/147/147 148/148/148 145/145/145
f 145/145/145 148/148/148 140/140/140 139/139/139
f 146/146/146 145/145/145 139/139/139 138/138/138
f 143/143/143 149/149/149 150/150/150 144/144/144
f 149/149/149 151/151/151 152/152/152 150/150/150
f 150/150/150 152/152/152 153/153/153 154/154/154
f 144/144/144 150/150/150 154/154/154 147/147/147
f 155/155/155 156/156/156 157/157/157 158/158/158
f 156/156/156 159/159/159 160/160/160 157/157/157
f 157/157/157 160/160/160 106/106/106 129/129/129
f 158/158/158 157/157/157 129/129/129 133/133/133
f 161/161/161 162/162/162 163/163/163 164/164/164
f 162/162/162 16/16/16 104/104/104 163/163/163
f 163/163/163 104/104/104 106/106/106 160/160/160
f 164/164/164 163/163/163 160/160/160 159/159/159
f 18/18/18 17/17/17 165/165/165 166/166/166
f 17/17/17 16/16/16 162/162/162 165/165/165
f 165/165/165 162/162/162 161/161/161 167/167/167
f 166/166/166 165/165/165 167/167/167 168/168/168
f 140/140/140 169/169/169 170/170/170 141/141/141
f 169/169/169 120/120/120 123/123/123 170/170/170
f 170/170/170 123/123/123 127/127/127 171/171/171
f 141/141/141 170/170/170 171/171/171 142/142/142
f 107/107/107 121/121/121 172/172/172 173/173/173
f 121/121/121 120/120/120 169/169/169 172/172/172
f 172/172/172 169/169/169 140/140/140 148/148/148
f 173/173/173 172/172/172 148/148/148 147/147/147
f 111/111/111 108/108/108 174/174/174 175/175/175
f 108/108/108 107/107/107 173/173/173 174/174/174
f 174/174/174 173/173/173 147/147/147 154/154/154
f 175/175/175 174/174/174 154/154/154 153/153/153
f 25/25/25 24/24/24 176/176/176 177/177/177
f 24/24/24 23/23/23 178/178/178 176/176/176
f 176/176/176 178/178/178 84/84/84 83/83/83
f 177/177/177 176/176/176 83/83/83 82/82/82
f 5/5/5 2/2/2 179/179/179 180/180/180
f 2/2/2 1/1/1 181/181/181 179/179/179
f 179/179/179 181/181/181 36/36/36 35/35/35
f 180/180/180 179/179/179 35/35/35 34/34/34
f 125/125/125 124/124/124 182/182/182 183/183/183
f 124/124/124 116/116/116 184/184/184 182/182/182
f 182/182/182 184/184/184 9/9/9 8/8/8
f 183/183/183 182/182/182 8/8/8 7/7/7
f 27/27/27 87/87/87 185/185/185 186/186/186
f 87/87/87 9/9/9 184/184/184 185/185/185
f 185/185/185 184/184/184 116/116/116 119/119/119
f 186/186/186 185/185/185 119/119/119 115/115/115
f 115/115/115 114/114/114 187/187/187 186/186/186
f 114/114/114 113/113/113 188/188/188 187/187/187
f 187/187/187 188/188/188 19/19/19 22/22/22
f 186/186/186 187/187/187 22/22/22 27/27/27
f 189/189/189 190/190/190 191/191/191 192/192/192
f 190/190/190 193/193/193 194/194/194 191/191/191
f 191/191/191 194/194/194 195/195/195 196/196/196
f 192/192/192 191/191/191 196/196/196 197/197/197
f 197/197/197 196/196/196 198/198/198 199/199/199
f 196/196/196 195/195/195 200/200/200 198/198/198
f 198/198/198 200/200/200 201/201/201 202/202/202
f 199/199/199 198/198/198 202/202/202 203/203/203
f 201/201/201 204/204/204 205/205/205 202/202/202
f 204/204/204 206/206/206 207/207/207 205/205/205
f 205/205/205 207/207/207 208/208/208 209/209/209
f 202/202/202 205/205/205 209/209/209 203/203/203
f 210/210/210 211/211/211 212/212/212 213/213/213
f 211/211/211 189/189/189 192/192/192 212/212/212
f 212/212/212 192/192/192 197/197/197 214/214/214
f 213/213/213 212/212/212 214/214/214 215/215/215
f 215/215/215 214/214/214 216/216/216 217/217/217
f 214/214/214 197/197/197 199/199/199 216/216/216
f 216/216/216 199/199/199 203/203/203 218/218/218
f 217/217/217 216/216/216 218/218/218 219/219/219
f 220/220/220 221/221/221 222/222/222 223/223/223
f 221/221/221 100/100/100 224/224/224 222/222/222
f 222/222/222 224/224/224 225/225/225 226/226/226
f 223/223/223 222/222/222 226/226/226 227/227/227
f 100/100/100 99/99/99 228/228/228 224/224/224
f 99/99/99 98/98/98 229/229/229 228/228/228
f 228/228/228 229/229/229 230/230/230 231/231/231
f 224/224/224 228/228/228 231/231/231 225/225/225
f 98/98/98 232/232/232 233/233/233 229/229/229
f 232/232/232 234/234/234 235/235/235 233/233/233
f 233/233/233 235/235/235 236/236/236 237/237/237
f 229/229/229 233/233/233 237/237/237 230/230/230
f 238/238/238 239/239/239 240/240/240 241/241/241
f 239/239/239 227/227/227 226/226/226 240/240/240
f 240/240/240 226/226/226 225/225/225 242/242/242
f 241/241/241 240/240/240 242/242/242 243/243/243
f 243/243/243 242/242/242 244/244/244 245/245/245
f 242/242/242 225/225/225 231/231/231 244/244/244
f 244/244/244 231/231/231 230/230/230 246/246/246
f 245/245/245 244/244/244 246/246/246 247/247/247
f 247/247/247 246/246/246 248/248/248 249/249/249
f 246/246/246 230/230/230 237/237/237 248/248/248
f 248/248/248 237/237/237 236/236/236 250/250/250
f 249/249/249 248/248/248 250/250/250 251/251/251
f 25/25/25 177/177/177 252/252/252 85/85/85
f 177/177/177 82/82/82 90/90/90 252/252/252
f 252/252/252 90/90/90 36/36/36 181/181/181
f 85/85/85 252/252/252 181/181/181 1/1/1
f 247/247/247 253/253/253 254/254/254 245/245/245
f 253/253/253 215/215/215 217/217/217 254/254/254
f 254/254/254 217/217/217 219/219/219 255/255/255
f 245/245/245 254/254/254 255/255/255 243/243/243
f 251/251/251 256/256/256 257/257/257 249/249/249
f 256/256/256 210/210/210 213/213/213 257/257/257
f 257/257/257 213/213/213 215/215/215 253/253/253
f 249/249/249 257/257/257 253/253/253 247/247/247
f 238/238/238 241/241/241 258/258/258 259/259/259
f 241/241/241 243/243/243 255/255/255 258/258/258
f 258/258/258 255/255/255 219/219/219 260/260/260
f 259/259/259 258/258/258 260/260/260 261/261/261
f 208/208/208 262/262/262 263/263/263 209/209/209
f 262/262/262 261/261/261 260/260/260 263/263/263
f 263/263/263 260/260/260 219/219/219 218/218/218
f 209/209/209 263/263/263 218/218/218 203/203/203
f 53/53/53 264/264/264 265/265/265 54/54/54
f 264/264/264 195/195/195 194/194/194 265/265/265
f 265/265/265 194/194/194 193/193/193 266/266/266
f 54/54/54 265/265/265 266/266/266 55/55/55
f 267/267/267 268/268/268 269/269/269 270/270/270
f 268/268/268 201/201/201 200/200/200 269/269/269
f 269/269/269 200/200/200 195/195/195 264/264/264
f 270/270/270 269/269/269 264/264/264 53/53/53
f 271/271/271 272/272/272 273/273/273 274/274/274
f 272/272/272 206/206/206 204/204/204 273/273/273
f 273/273/273 204/204/204 201/201/201 268/268/268
f 274/274/274 273/273/273 268/268/268 267/267/267
f 64/64/64 275/275/275 276/276/276 277/277/277
f 275/275/275 267/267/267 270/270/270 276/276/276
f 276/276/276 270/270/270 53/53/53 50/50/50
f 277/277/277 276/276/276 50/50/50 49/49/49
f 62/62/62 278/278/278 279/279/279 63/63/63
f 278/278/278 271/271/271 274/274/274 279/279/279
f 279/279/279 274/274/274 267/267/267 275/275/275
f 63/63/63 279/279/279 275/275/275 64/64/64
f 14/14/14 11/11/11 280/280/280 95/95/95
f 11/11/11 10/10/10 281/281/281 280/280/280
f 280/280/280 281/281/281 234/234/234 232/232/232
f 95/95/95 280/280/280 232/232/232 98/98/98
f 131/131/131 130/130/130 282/282/282 283/283/283
f 130/130/130 102/102/102 101/101/101 282/282/282
f 282/282/282 101/101/101 100/100/100 221/221/221
f 283/283/283 282/282/282 221/221/221 220/220/220
f 284/284/284 285/285/285 286/286/286 287/287/287
f 285/285/285 288/288/288 289/289/289 286/286/286
f 286/286/286 289/289/289 290/290/290 291/291/291
f 287/287/287 286/286/286 291/291/291 292/292/292
f 293/293/293 294/294/294 295/295/295 296/296/296
f 294/294/294 297/297/297 298/298/298 295/295/295
f 295/295/295 298/298/298 299/299/299 300/300/300
f 296/296/296 295/295/295 300/300/300 301/301/301
f 302/302/302 303/303/303 304/304/304 305/305/305
f 303/303/303 306/306/306 307/307/307 304/304/304
f 304/304/304 307/307/307 308/308/308 309/309/309
f 305/305/305 304/304/304 309/309/309 310/310/310
f 311/311/311 312/312/312 313/313/313 314/314/314
f 312/312/312 315/315/315 316/316/316 313/313/313
f 313/313/313 316/316/316 317/317/317 318/318/318
f 314/314/314 313/313/313 318/318/318 319/319/319
f 319/319/319 320/320/320 321/321/321 314/314/314
f 320/320/320 322/322/322 323/323/323 321/321/321
f 321/321/321 323/323/323 324/324/324 325/325/325
f 314/314/314 321/321/321 325/325/325 311/311/311
f 326/326/326 327/327/327 328/328/328 329/329/329
f 327/327/327 330/330/330 331/331/331 328/328/328
f 328/328/328 331/331/331 332/332/332 333/333/333
f 329/329/329 328/328/328 333/333/333 334/334/334
f 326/326/326 329/329/329 335/335/335 336/336/336
f 329/329/329 334/334/334 337/337/337 335/335/335
f 335/335/335 337/337/337 338/338/338 339/339/339
f 336/336/336 335/335/335 339/339/339 340/340/340
f 341/341/341 342/342/342 343/343/343 344/344/344
f 342/342/342 345/345/345 346/346/346 343/343/343
f 343/343/343 346/346/346 347/347/347 348/348/348
f 344/344/344 343/343/343 348/348/348 349/349/349
f 350/350/350 351/351/351 352/352/352 353/353/353
f 351/351/351 354/354/354 355/355/355 352/352/352
f 352/352/352 355/355/355 356/356/356 357/357/357
f 353/353/353 352/352/352 357/357/357 358/358/358
f 358/358/358 359/359/359 360/360/360 353/353/353
f 359/359/359 361/361/361 362/362/362 360/360/360
f 360/360/360 362/362/362 363/363/363 364/364/364
f 353/353/353 360/360/360 364/364/364 350/350/350
f 308/308/308 307/307/307 365/365/365 366/366/366
f 307/307/307 306/306/306 367/367/367 365/365/365
f 365/365/365 367/367/367 288/288/288 285/285/285
f 366/366/366 365/365/365 285/285/285 284/284/284
f 311/311/311 368/368/368 369/369/369 312/312/312
f 368/368/368 350/350/350 364/364/364 369/369/369
f 369/369/369 364/364/364 363/363/363 370/370/370
f 312/312/312 369/369/369 370/370/370 315/315/315
f 324/324/324 371/371/371 372/372/372 325/325/325
f 371/371/371 354/354/354 351/351/351 372/372/372
f 372/372/372 351/351/351 350/350/350 368/368/368
f 325/325/325 372/372/372 368/368/368 311/311/311
f 326/326/326 373/373/373 374/374/374 327/327/327
f 373/373/373 347/347/347 346/346/346 374/374/374
f 374/374/374 346/346/346 345/345/345 375/375/375
f 327/327/327 374/374/374 375/375/375 330/330/330
f 301/301/301 376/376/376 377/377/377 378/378/378
f 376/376/376 379/379/379 380/380/380 377/377/377
f 377/377/377 380/380/380 381/381/381 382/382/382
f 378/378/378 377/377/377 382/382/382 383/383/383
f 299/299/299 384/384/384 385/385/385 300/300/300
f 384/384/384 386/386/386 387/387/387 385/385/385
f 385/385/385 387/387/387 379/379/379 376/376/376
f 300/300/300 385/385/385 376/376/376 301/301/301
f 388/388/388 389/389/389 390/390/390 391/391/391
f 389/389/389 392/392/392 393/393/393 390/390/390
f 390/390/390 393/393/393 394/394/394 395/395/395
f 391/391/391 390/390/390 395/395/395 396/396/396
f 397/397/397 398/398/398 399/399/399 400/400/400
f 398/398/398 392/392/392 389/389/389 399/399/399
f 399/399/399 389/389/389 388/388/388 401/401/401
f 400/400/400 399/399/399 401/401/401 402/402/402
f 402/402/402 403/403/403 404/404/404 400/400/400
f 403/403/403 405/405/405 406/406/406 404/404/404
f 404/404/404 406/406/406 407/407/407 408/408/408
f 400/400/400 404/404/404 408/408/408 397/397/397
f 386/386/386 409/409/409 410/410/410 387/387/387
f 409/409/409 411/411/411 412/412/412 410/410/410
f 410/410/410 412/412/412 413/413/413 414/414/414
f 387/387/387 410/410/410 414/414/414 379/379/379
f 134/134/134 415/415/415 416/416/416 135/135/135
f 415/415/415 417/417/417 418/418/418 416/416/416
f 416/416/416 418/418/418 419/419/419 420/420/420
f 135/135/135 416/416/416 420/420/420 138/138/138
f 143/143/143 146/146/146 421/421/421 422/422/422
f 146/146/146 138/138/138 420/420/420 421/421/421
f 421/421/421 420/420/420 419/419/419 423/423/423
f 422/422/422 421/421/421 423/423/423 424/424/424
f 143/143/143 422/422/422 425/425/425 149/149/149
f 422/422/422 424/424/424 426/426/426 425/425/425
f 425/425/425 426/426/426 427/427/427 428/428/428
f 149/149/149 425/425/425 428/428/428 151/151/151
f 155/155/155 429/429/429 430/430/430 156/156/156
f 429/429/429 411/411/411 409/409/409 430/430/430
f 430/430/430 409/409/409 386/386/386 431/431/431
f 156/156/156 430/430/430 431/431/431 159/159/159
f 161/161/161 164/164/164 432/432/432 433/433/433
f 164/164/164 159/159/159 431/431/431 432/432/432
f 432/432/432 431/431/431 386/386/386 384/384/384
f 433/433/433 432/432/432 384/384/384 299/299/299
f 297/297/297 434/434/434 435/435/435 298/298/298
f 434/434/434 168/168/168 167/167/167 435/435/435
f 435/435/435 167/167/167 161/161/161 433/433/433
f 298/298/298 435/435/435 433/433/433 299/299/299
f 419/419/419 418/418/418 436/436/436 437/437/437
f 418/418/418 417/417/417 438/438/438 436/436/436
f 436/436/436 438/438/438 405/405/405 403/403/403
f 437/437/437 436/436/436 403/403/403 402/402/402
f 388/388/388 439/439/439 440/440/440 401/401/401
f 439/439/439 424/424/424 423/423/423 440/440/440
f 440/440/440 423/423/423 419/419/419 437/437/437
f 401/401/401 440/440/440 437/437/437 402/402/402
f 396/396/396 441/441/441 442/442/442 391/391/391
f 441/441/441 427/427/427 426/426/426 442/442/442
f 442/442/442 426/426/426 424/424/424 439/439/439
f 391/391/391 442/442/442 439/439/439 388/388/388
f 308/308/308 443/443/443 444/444/444 309/309/309
f 443/443/443 363/363/363 362/362/362 444/444/444
f 444/444/444 362/362/362 361/361/361 445/445/445
f 309/309/309 444/444/444 445/445/445 310/310/310
f 292/292/292 446/446/446 447/447/447 287/287/287
f 446/446/446 317/317/317 316/316/316 447/447/447
f 447/447/447 316/316/316 315/315/315 448/448/448
f 287/287/287 447/447/447 448/448/448 284/284/284
f 407/407/407 449/449/449 450/450/450 408/408/408
f 449/449/449 290/290/290 289/289/289 450/450/450
f 450/450/450 289/289/289 288/288/288 451/451/451
f 408/408/408 450/450/450 451/451/451 397/397/397
f 306/306/306 452/452/452 453/453/453 367/367/367
f 452/452/452 392/392/392 398/398/398 453/453/453
f 453/453/453 398/398/398 397/397/397 451/451/451
f 367/367/367 453/453/453 451/451/451 288/288/288
f 392/392/392 452/452/452 454/454/454 393/393/393
f 452/452/452 306/306/306 303/303/303 454/454/454
f 454/454/454 303/303/303 302/302/302 455/455/455
f 393/393/393 454/454/454 455/455/455 394/394/394
f 456/456/456 457/457/457 458/458/458 459/459/459
f 457/457/457 460/460/460 461/461/461 458/458/458
f 458/458/458 461/461/461 462/462/462 463/463/463
f 459/459/459 458/458/458 463/463/463 464/464/464
f 460/460/460 465/465/465 466/466/466 461/461/461
f 465/465/465 467/467/467 468/468/468 466/466/466
f 466/466/466 468/468/468 469/469/469 470/470/470
f 461/461/461 466/466/466 470/470/470 462/462/462
f 469/469/469 468/468/468 471/471/471 472/472/472
f 468/468/468 467/467/467 473/473/473 471/471/471
f 471/471/471 473/473/473 474/474/474 475/475/475
f 472/472/472 471/471/471 475/475/475 476/476/476
f 477/477/477 478/478/478 479/479/479 480/480/480
f 478/478/478 481/481/481 482/482/482 479/479/479
f 479/479/479 482/482/482 460/460/460 457/457/457
f 480/480/480 479/479/479 457/457/457 456/456/456
f 481/481/481 483/483/483 484/484/484 482/482/482
f 483/483/483 485/485/485 486/486/486 484/484/484
f 484/484/484 486/486/486 467/467/467 465/465/465
f 482/482/482 484/484/484 465/465/465 460/460/460
f 487/487/487 488/488/488 489/489/489 490/490/490
f 488/488/488 491/491/491 492/492/492 489/489/489
f 489/489/489 492/492/492 493/493/493 494/494/494
f 490/490/490 489/489/489 494/494/494 381/381/381
f 381/381/381 494/494/494 495/495/495 382/382/382
f 494/494/494 493/493/493 496/496/496 495/495/495
f 495/495/495 496/496/496 497/497/497 498/498/498
f 382/382/382 495/495/495 498/498/498 383/383/383
f 383/383/383 498/498/498 499/499/499 500/500/500
f 498/498/498 497/497/497 501/501/501 499/499/499
f 499/499/499 501/501/501 502/502/502 503/503/503
f 500/500/500 499/499/499 503/503/503 504/504/504
f 505/505/505 506/506/506 507/507/507 508/508/508
f 506/506/506 509/509/509 510/510/510 507/507/507
f 507/507/507 510/510/510 493/493/493 492/492/492
f 508/508/508 507/507/507 492/492/492 491/491/491
f 509/509/509 511/511/511 512/512/512 510/510/510
f 511/511/511 513/513/513 514/514/514 512/512/512
f 512/512/512 514/514/514 497/497/497 496/496/496
f 510/510/510 512/512/512 496/496/496 493/493/493
f 513/513/513 515/515/515 516/516/516 514/514/514
f 515/515/515 517/517/517 518/518/518 516/516/516
f 516/516/516 518/518/518 502/502/502 501/501/501
f 514/514/514 516/516/516 501/501/501 497/497/497
f 308/308/308 366/366/366 519/519/519 443/443/443
f 366/366/366 284/284/284 448/448/448 519/519/519
f 519/519/519 448/448/448 315/315/315 370/370/370
f 443/443/443 519/519/519 370/370/370 363/363/363
f 513/513/513 511/511/511 520/520/520 521/521/521
f 511/511/511 509/509/509 522/522/522 520/520/520
f 520/520/520 522/522/522 485/485/485 483/483/483
f 521/521/521 520/520/520 483/483/483 481/481/481
f 517/517/517 515/515/515 523/523/523 524/524/524
f 515/515/515 513/513/513 521/521/521 523/523/523
f 523/523/523 521/521/521 481/481/481 478/478/478
f 524/524/524 523/523/523 478/478/478 477/477/477
f 505/505/505 525/525/525 526/526/526 506/506/506
f 525/525/525 527/527/527 528/528/528 526/526/526
f 526/526/526 528/528/528 485/485/485 522/522/522
f 506/506/506 526/526/526 522/522/522 509/509/509
f 474/474/474 473/473/473 529/529/529 530/530/530
f 473/473/473 467/467/467 486/486/486 529/529/529
f 529/529/529 486/486/486 485/485/485 528/528/528
f 530/530/530 529/529/529 528/528/528 527/527/527
f 340/340/340 339/339/339 531/531/531 532/532/532
f 339/339/339 338/338/338 533/533/533 531/531/531
f 531/531/531 533/533/533 464/464/464 463/463/463
f 532/532/532 531/531/531 463/463/463 462/462/462
f 534/534/534 535/535/535 536/536/536 537/537/537
f 535/535/535 340/340/340 532/532/532 536/536/536
f 536/536/536 532/532/532 462/462/462 470/470/470
f 537/537/537 536/536/536 470/470/470 469/469/469
f 538/538/538 539/539/539 540/540/540 541/541/541
f 539/539/539 534/534/534 537/537/537 540/540/540
f 540/540/540 537/537/537 469/469/469 472/472/472
f 541/541/541 540/540/540 472/472/472 476/476/476
f 347/347/347 373/373/373 542/542/542 543/543/543
f 373/373/373 326/326/326 336/336/336 542/542/542
f 542/542/542 336/336/336 340/340/340 535/535/535
f 543/543/543 542/542/542 535/535/535 534/534/534
f 349/349/349 348/348/348 544/544/544 545/545/545
f 348/348/348 347/347/347 543/543/543 544/544/544
f 544/544/544 543/543/543 534/534/534 539/539/539
f 545/545/545 544/544/544 539/539/539 538/538/538
f 301/301/301 378/378/378 546/546/546 296/296/296
f 378/378/378 383/383/383 500/500/500 546/546/546
f 546/546/546 500/500/500 504/504/504 547/547/547
f 296/296/296 546/546/546 547/547/547 293/293/293
f 413/413/413 548/548/548 549/549/549 414/414/414
f 548/548/548 487/487/487 490/490/490 549/549/549
f 549/549/549 490/490/490 381/381/381 380/380/380
f 414/414/414 549/549/549 380/380/380 379/379/379
f 345/345/345 342/342/342 550/550/550 551/551/551
f 342/342/342 341/341/341 552/552/552 550/550/550
f 550/550/550 552/552/552 356/356/356 355/355/355
f 551/551/551 550/550/550 355/355/355 354/354/354
f 330/330/330 375/375/375 553/553/553 554/554/554
f 375/375/375 345/345/345 551/551/551 553/553/553
f 553/553/553 551/551/551 354/354/354 371/371/371
f 554/554/554 553/553/553 371/371/371 324/324/324
f 332/332/332 331/331/331 555/555/555 556/556/556
f 331/331/331 330/330/330 554/554/554 555/555/555
f 555/555/555 554/554/554 324/324/324 323/323/323
f 556/556/556 555/555/555 323/323/323 322/322/322
f 49/49/49 557/557/557 558/558/558 277/277/277
f 557/557/557 43/43/43 93/93/93 558/558/558
f 558/558/558 93/93/93 66/66/66 65/65/65
f 277/277/277 558/558/558 65/65/65 64/64/64
f 49/49/49 52/52/52 559/559/559 557/557/557
f 52/52/52 57/57/57 560/560/560 559/559/559
f 559/559/559 560/560/560 47/47/47 44/44/44
f 557/557/557 559/559/559 44/44/44 43/43/43
f 561/561/561 562/562/562 563/563/563 564/564/564
f 562/562/562 7/7/7 6/6/6 563/563/563
f 563/563/563 6/6/6 5/5/5 565/565/565
f 564/564/564 563/563/563 565/565/565 566/566/566
f 567/567/567 568/568/568 569/569/569 570/570/570
f 568/568/568 566/566/566 565/565/565 569/569/569
f 569/569/569 565/565/565 5/5/5 180/180/180
f 570/570/570 569/569/569 180/180/180 34/34/34
f 571/571/571 572/572/572 573/573/573 574/574/574
f 572/572/572 567/567/567 570/570/570 573/573/573
f 573/573/573 570/570/570 34/34/34 33/33/33
f 574/574/574 573/573/573 33/33/33 32/32/32
f 575/575/575 576/576/576 577/577/577 578/578/578
f 576/576/576 571/571/571 574/574/574 577/577/577
f 577/577/577 574/574/574 32/32/32 38/38/38
f 578/578/578 577/577/577 38/38/38 42/42/42
f 47/47/47 579/579/579 580/580/580 48/48/48
f 579/579/579 581/581/581 582/582/582 580/580/580
f 580/580/580 582/582/582 575/575/575 578/578/578
f 48/48/48 580/580/580 578/578/578 42/42/42
f 583/583/583 584/584/584 585/585/585 586/586/586
f 584/584/584 581/581/581 579/579/579 585/585/585
f 585/585/585 579/579/579 47/47/47 560/560/560
f 586/586/586 585/585/585 560/560/560 57/57/57
f 57/57/57 56/56/56 587/587/587 586/586/586
f 56/56/56 55/55/55 588/588/588 587/587/587
f 587/587/587 588/588/588 589/589/589 590/590/590
f 586/586/586 587/587/587 590/590/590 583/583/583
f 55/55/55 266/266/266 591/591/591 588/588/588
f 266/266/266 193/193/193 592/592/592 591/591/591
f 591/591/591 592/592/592 593/593/593 594/594/594
f 588/588/588 591/591/591 594/594/594 589/589/589
f 595/595/595 596/596/596 597/597/597 598/598/598
f 596/596/596 593/593/593 592/592/592 597/597/597
f 597/597/597 592/592/592 193/193/193 190/190/190
f 598/598/598 597/597/597 190/190/190 189/189/189
f 599/599/599 600/600/600 601/601/601 602/602/602
f 600/600/600 595/595/595 598/598/598 601/601/601
f 601/601/601 598/598/598 189/189/189 211/211/211
f 602/602/602 601/601/601 211/211/211 210/210/210
f 210/210/210 256/256/256 603/603/603 602/602/602
f 256/256/256 251/251/251 604/604/604 603/603/603
f 603/603/603 604/604/604 605/605/605 606/606/606
f 602/602/602 603/603/603 606/606/606 599/599/599
f 251/251/251 250/250/250 607/607/607 604/604/604
f 250/250/250 236/236/236 608/608/608 607/607/607
f 607/607/607 608/608/608 609/609/609 610/610/610
f 604/604/604 607/607/607 610/610/610 605/605/605
f 236/236/236 235/235/235 611/611/611 608/608/608
f 235/235/235 234/234/234 612/612/612 611/611/611
f 611/611/611 612/612/612 613/613/613 614/614/614
f 608/608/608 611/611/611 614/614/614 609/609/609
f 234/234/234 281/281/281 615/615/615 612/612/612
f 281/281/281 10/10/10 616/616/616 615/615/615
f 615/615/615 616/616/616 617/617/617 618/618/618
f 612/612/612 615/615/615 618/618/618 613/613/613
f 10/10/10 13/13/13 619/619/619 616/616/616
f 13/13/13 18/18/18 620/620/620 619/619/619
f 619/619/619 620/620/620 621/621/621 622/622/622
f 616/616/616 619/619/619 622/622/622 617/617/617
f 168/168/168 623/623/623 624/624/624 166/166/166
f 623/623/623 625/625/625 626/626/626 624/624/624
f 624/624/624 626/626/626 621/621/621 620/620/620
f 166/166/166 624/624/624 620/620/620 18/18/18
f 168/168/168 434/434/434 627/627/627 623/623/623
f 434/434/434 297/297/297 628/628/628 627/627/627
f 627/627/627 628/628/628 629/629/629 630/630/630
f 623/623/623 627/627/627 630/630/630 625/625/625
f 293/293/293 631/631/631 632/632/632 294/294/294
f 631/631/631 633/633/633 634/634/634 632/632/632
f 632/632/632 634/634/634 629/629/629 628/628/628
f 294/294/294 632/632/632 628/628/628 297/297/297
f 504/504/504 635/635/635 636/636/636 547/547/547
f 635/635/635 637/637/637 638/638/638 636/636/636
f 636/636/636 638/638/638 633/633/633 631/631/631
f 547/547/547 636/636/636 631/631/631 293/293/293
f 502/502/502 639/639/639 640/640/640 503/503/503
f 639/639/639 641/641/641 642/642/642 640/640/640
f 640/640/640 642/642/642 637/637/637 635/635/635
f 503/503/503 640/640/640 635/635/635 504/504/504
f 517/517/517 643/643/643 644/644/644 518/518/518
f 643/643/643 645/645/645 646/646/646 644/644/644
f 644/644/644 646/646/646 641/641/641 639/639/639
f 518/518/518 644/644/644 639/639/639 502/502/502
f 477/477/477 647/647/647 648/648/648 524/524/524
f 647/647/647 649/649/649 650/650/650 648/648/648
f 648/648/648 650/650/650 645/645/645 643/643/643
f 524/524/524 648/648/648 643/643/643 517/517/517
f 651/651/651 652/652/652 653/653/653 654/654/654
f 652/652/652 649/649/649 647/647/647 653/653/653
f 653/653/653 647/647/647 477/477/477 480/480/480
f 654/654/654 653/653/653 480/480/480 456/456/456
f 655/655/655 656/656/656 657/657/657 658/658/658
f 656/656/656 651/651/651 654/654/654 657/657/657
f 657/657/657 654/654/654 456/456/456 459/459/459
f 658/658/658 657/657/657 459/459/459 464/464/464
f 338/338/338 659/659/659 660/660/660 533/533/533
f 659/659/659 661/661/661 662/662/662 660/660/660
f 660/660/660 662/662/662 655/655/655 658/658/658
f 533/533/533 660/660/660 658/658/658 464/464/464
f 334/334/334 663/663/663 664/664/664 337/337/337
f 663/663/663 665/665/665 666/666/666 664/664/664
f 664/664/664 666/666/666 661/661/661 659/659/659
f 337/337/337 664/664/664 659/659/659 338/338/338
f 667/667/667 668/668/668 669/669/669 670/670/670
f 668/668/668 665/665/665 663/663/663 669/669/669
f 669/669/669 663/663/663 334/334/334 333/333/333
f 670/670/670 669/669/669 333/333/333 332/332/332
f 671/671/671 672/672/672 673/673/673 674/674/674
f 672/672/672 667/667/667 670/670/670 673/673/673
f 673/673/673 670/670/670 332/332/332 556/556/556
f 674/674/674 673/673/673 556/556/556 322/322/322
f 675/675/675 676/676/676 677/677/677 678/678/678
f 676/676/676 671/671/671 674/674/674 677/677/677
f 677/677/677 674/674/674 322/322/322 320/320/320
f 678/678/678 677/677/677 320/320/320 319/319/319
f 679/679/679 680/680/680 681/681/681 682/682/682
f 680/680/680 675/675/675 678/678/678 681/681/681
f 681/681/681 678/678/678 319/319/319 318/318/318
f 682/682/682 681/681/681 318/318/318 317/317/317
f 683/683/683 684/684/684 685/685/685 686/686/686
f 684/684/684 679/679/679 682/682/682 685/685/685
f 685/685/685 682/682/682 317/317/317 446/446/446
f 686/686/686 685/685/685 446/446/446 292/292/292
f 687/687/687 688/688/688 689/689/689 690/690/690
f 688/688/688 683/683/683 686/686/686 689/689/689
f 689/689/689 686/686/686 292/292/292 291/291/291
f 690/690/690 689/689/689 291/291/291 290/290/290
f 290/290/290 449/449/449 691/691/691 690/690/690
f 449/449/449 407/407/407 692/692/692 691/691/691
f 691/691/691 692/692/692 693/693/693 694/694/694
f 690/690/690 691/691/691 694/694/694 687/687/687
f 695/695/695 696/696/696 697/697/697 698/698/698
f 696/696/696 693/693/693 692/692/692 697/697/697
f 697/697/697 692/692/692 407/407/407 406/406/406
f 698/698/698 697/697/697 406/406/406 405/405/405
f 405/405/405 438/438/438 699/699/699 698/698/698
f 438/438/438 417/417/417 700/700/700 699/699/699
f 699/699/699 700/700/700 701/701/701 702/702/702
f 698/698/698 699/699/699 702/702/702 695/695/695
f 134/134/134 703/703/703 704/704/704 415/415/415
f 703/703/703 705/705/705 706/706/706 704/704/704
f 704/704/704 706/706/706 701/701/701 700/700/700
f 415/415/415 704/704/704 700/700/700 417/417/417
f 134/134/134 137/137/137 707/707/707 703/703/703
f 137/137/137 142/142/142 708/708/708 707/707/707
f 707/707/707 708/708/708 709/709/709 710/710/710
f 703/703/703 707/707/707 710/710/710 705/705/705
f 127/127/127 711/711/711 712/712/712 171/171/171
f 711/711/711 713/713/713 714/714/714 712/712/712
f 712/712/712 714/714/714 709/709/709 708/708/708
f 171/171/171 712/712/712 708/708/708 142/142/142
f 715/715/715 716/716/716 717/717/717 718/718/718
f 716/716/716 713/713/713 711/711/711 717/717/717
f 717/717/717 711/711/711 127/127/127 126/126/126
f 718/718/718 717/717/717 126/126/126 125/125/125
f 7/7/7 562/562/562 719/719/719 183/183/183
f 562/562/562 561/561/561 720/720/720 719/719/719
f 719/719/719 720/720/720 715/715/715 718/718/718
f 183/183/183 719/719/719 718/718/718 125/125/125
